<svg width="237" height="20" viewBox="0 0 237 20" fill="none" xmlns="http://www.w3.org/2000/svg">
<path d="M33.24 16L30.165 4.825H32.04L34.53 14.5H34.065L36.645 4.825H38.49L41.07 14.5H40.59L43.095 4.825H44.955L41.895 16H39.9L37.305 6.475H37.83L35.22 16H33.24ZM47.6816 16L51.6116 4.825H53.8016L57.7316 16H55.8416L54.9866 13.495H50.4416L49.5716 16H47.6816ZM50.9516 11.92H54.4466L52.4666 6.07H52.9616L50.9516 11.92ZM65.8259 16.18C65.1259 16.18 64.4759 16.05 63.8759 15.79C63.2759 15.52 62.7659 15.155 62.3459 14.695C61.9259 14.235 61.6159 13.705 61.4159 13.105L62.9159 12.475C63.1859 13.165 63.5809 13.695 64.1009 14.065C64.6209 14.435 65.2209 14.62 65.9009 14.62C66.3009 14.62 66.6509 14.56 66.9509 14.44C67.2509 14.31 67.4809 14.13 67.6409 13.9C67.8109 13.67 67.8959 13.405 67.8959 13.105C67.8959 12.695 67.7809 12.37 67.5509 12.13C67.3209 11.89 66.9809 11.7 66.5309 11.56L64.4309 10.9C63.5909 10.64 62.9509 10.245 62.5109 9.715C62.0709 9.175 61.8509 8.545 61.8509 7.825C61.8509 7.195 62.0059 6.645 62.3159 6.175C62.6259 5.695 63.0509 5.32 63.5909 5.05C64.1409 4.78 64.7659 4.645 65.4659 4.645C66.1359 4.645 66.7459 4.765 67.2959 5.005C67.8459 5.235 68.3159 5.555 68.7059 5.965C69.1059 6.375 69.3959 6.85 69.5759 7.39L68.1059 8.035C67.8859 7.445 67.5409 6.99 67.0709 6.67C66.6109 6.35 66.0759 6.19 65.4659 6.19C65.0959 6.19 64.7709 6.255 64.4909 6.385C64.2109 6.505 63.9909 6.685 63.8309 6.925C63.6809 7.155 63.6059 7.425 63.6059 7.735C63.6059 8.095 63.7209 8.415 63.9509 8.695C64.1809 8.975 64.5309 9.185 65.0009 9.325L66.9509 9.94C67.8409 10.21 68.5109 10.6 68.9609 11.11C69.4109 11.61 69.6359 12.235 69.6359 12.985C69.6359 13.605 69.4709 14.155 69.1409 14.635C68.8209 15.115 68.3759 15.495 67.8059 15.775C67.2359 16.045 66.5759 16.18 65.8259 16.18ZM76.6028 16V6.4H73.6328V4.825H81.2828V6.4H78.3578V16H76.6028ZM85.6062 16V4.825H92.9712V6.4H87.3762V9.61H92.6712V11.185H87.3762V14.425H92.9712V16H85.6062ZM103.237 16V4.825H104.887L109.087 10.645H108.262L112.387 4.825H114.037V16H112.282V6.91L112.942 7.09L108.727 12.85H108.547L104.422 7.09L105.007 6.91V16H103.237ZM118.357 16L122.287 4.825H124.477L128.407 16H126.517L125.662 13.495H121.117L120.247 16H118.357ZM121.627 11.92H125.122L123.142 6.07H123.637L121.627 11.92ZM132.733 16V4.825H134.158L140.428 13.48L139.753 13.585V4.825H141.508V16H140.083L133.858 7.285L134.503 7.165V16H132.733ZM145.832 16L149.762 4.825H151.952L155.882 16H153.992L153.137 13.495H148.592L147.722 16H145.832ZM149.102 11.92H152.597L150.617 6.07H151.112L149.102 11.92ZM164.989 16.18C164.199 16.18 163.464 16.035 162.784 15.745C162.114 15.455 161.524 15.055 161.014 14.545C160.514 14.025 160.124 13.415 159.844 12.715C159.564 12.015 159.424 11.245 159.424 10.405C159.424 9.575 159.559 8.81 159.829 8.11C160.109 7.4 160.499 6.79 160.999 6.28C161.499 5.76 162.084 5.36 162.754 5.08C163.424 4.79 164.159 4.645 164.959 4.645C165.749 4.645 166.454 4.78 167.074 5.05C167.704 5.32 168.234 5.675 168.664 6.115C169.094 6.545 169.404 7.015 169.594 7.525L168.019 8.29C167.789 7.68 167.409 7.19 166.879 6.82C166.349 6.44 165.709 6.25 164.959 6.25C164.219 6.25 163.564 6.425 162.994 6.775C162.424 7.125 161.979 7.61 161.659 8.23C161.349 8.85 161.194 9.575 161.194 10.405C161.194 11.235 161.354 11.965 161.674 12.595C162.004 13.215 162.454 13.7 163.024 14.05C163.594 14.39 164.249 14.56 164.989 14.56C165.609 14.56 166.174 14.435 166.684 14.185C167.204 13.925 167.619 13.565 167.929 13.105C168.239 12.635 168.394 12.09 168.394 11.47V10.705L169.189 11.425H164.959V9.925H170.149V10.975C170.149 11.795 170.009 12.53 169.729 13.18C169.449 13.82 169.069 14.365 168.589 14.815C168.109 15.265 167.559 15.605 166.939 15.835C166.319 16.065 165.669 16.18 164.989 16.18ZM174.956 16V4.825H182.321V6.4H176.726V9.61H182.021V11.185H176.726V14.425H182.321V16H174.956ZM186.965 16V4.825H188.615L192.815 10.645H191.99L196.115 4.825H197.765V16H196.01V6.91L196.67 7.09L192.455 12.85H192.275L188.15 7.09L188.735 6.91V16H186.965ZM203.075 16V4.825H210.44V6.4H204.845V9.61H210.14V11.185H204.845V14.425H210.44V16H203.075ZM215.084 16V4.825H216.509L222.779 13.48L222.104 13.585V4.825H223.859V16H222.434L216.209 7.285L216.854 7.165V16H215.084ZM231.153 16V6.4H228.183V4.825H235.833V6.4H232.908V16H231.153Z" fill="#F2F4E8"/>
<path d="M7.6268 3.158C7.73366 2.95882 7.89253 2.79234 8.08649 2.67628C8.28046 2.56022 8.50226 2.49893 8.7283 2.49893C8.95434 2.49893 9.17614 2.56022 9.37011 2.67628C9.56408 2.79234 9.72294 2.95882 9.8298 3.158L11.4898 6.251L10.4638 5.909C10.275 5.84614 10.0689 5.86088 9.89093 5.94996C9.71295 6.03904 9.57766 6.19517 9.5148 6.384C9.45194 6.57283 9.46668 6.7789 9.55576 6.95688C9.64484 7.13485 9.80097 7.27014 9.9898 7.333L12.9898 8.333C13.0927 8.36728 13.2018 8.37884 13.3096 8.36689C13.4173 8.35493 13.5212 8.31975 13.6141 8.26376C13.707 8.20778 13.7866 8.13231 13.8475 8.04258C13.9084 7.95285 13.9491 7.85098 13.9668 7.744L14.4668 4.744C14.483 4.64682 14.4798 4.54741 14.4575 4.45145C14.4353 4.35549 14.3943 4.26485 14.337 4.18472C14.2797 4.10458 14.2072 4.03651 14.1236 3.9844C14.04 3.93229 13.947 3.89715 13.8498 3.881C13.7526 3.86485 13.6532 3.86799 13.5573 3.89026C13.4613 3.91252 13.3707 3.95347 13.2905 4.01077C13.2104 4.06806 13.1423 4.14058 13.0902 4.22418C13.0381 4.30778 13.003 4.40082 12.9868 4.498L12.8128 5.544L11.1508 2.449C10.1138 0.517 7.3438 0.517 6.3068 2.449L4.5708 5.68C4.48123 5.85476 4.46377 6.05767 4.52218 6.24516C4.58059 6.43265 4.7102 6.58975 4.88317 6.68272C5.05614 6.77569 5.25868 6.7971 5.44727 6.74237C5.63587 6.68764 5.79547 6.56112 5.8918 6.39L7.6268 3.158ZM15.6668 14.031L13.7558 10.47C13.7069 10.3831 13.6758 10.2873 13.6643 10.1882C13.6529 10.0892 13.6613 9.98883 13.6891 9.89306C13.7169 9.79728 13.7635 9.70802 13.8262 9.63048C13.8889 9.55293 13.9665 9.48868 14.0543 9.44147C14.1421 9.39425 14.2385 9.36503 14.3378 9.35552C14.437 9.346 14.5372 9.35637 14.6324 9.38603C14.7276 9.41569 14.816 9.46405 14.8923 9.52826C14.9686 9.59247 15.0313 9.67125 15.0768 9.76L16.9888 13.321C17.9718 15.153 16.6448 17.371 14.5658 17.371H11.0398L11.7588 18.091C11.8304 18.1602 11.8875 18.243 11.9268 18.3345C11.966 18.426 11.9867 18.5245 11.9875 18.6241C11.9883 18.7236 11.9693 18.8224 11.9315 18.9145C11.8938 19.0067 11.838 19.0904 11.7676 19.1608C11.6971 19.2312 11.6134 19.2868 11.5212 19.3245C11.429 19.3622 11.3302 19.3811 11.2306 19.3802C11.1311 19.3793 11.0327 19.3585 10.9412 19.3192C10.8497 19.2798 10.767 19.2227 10.6978 19.151L8.6978 17.151C8.55735 17.0104 8.47846 16.8198 8.47846 16.621C8.47846 16.4222 8.55735 16.2316 8.6978 16.091L10.6978 14.091C10.7665 14.0173 10.8493 13.9582 10.9413 13.9172C11.0333 13.8762 11.1326 13.8542 11.2333 13.8524C11.334 13.8506 11.434 13.8692 11.5274 13.9069C11.6208 13.9446 11.7056 14.0007 11.7768 14.072C11.8481 14.1432 11.9042 14.228 11.9419 14.3214C11.9796 14.4148 11.9982 14.5148 11.9964 14.6155C11.9946 14.7162 11.9726 14.8155 11.9316 14.9075C11.8906 14.9995 11.8315 15.0823 11.7578 15.151L11.0378 15.871H14.5658C14.7817 15.8707 14.9937 15.8144 15.1814 15.7078C15.3691 15.6011 15.5259 15.4477 15.6367 15.2624C15.7475 15.0771 15.8084 14.8663 15.8135 14.6505C15.8186 14.4347 15.7677 14.2213 15.6658 14.031H15.6668ZM5.9768 15.871C6.17571 15.871 6.36648 15.95 6.50713 16.0907C6.64778 16.2313 6.7268 16.4221 6.7268 16.621C6.7268 16.8199 6.64778 17.0107 6.50713 17.1513C6.36648 17.292 6.17571 17.371 5.9768 17.371H2.8908C0.810801 17.371 -0.515199 15.153 0.467801 13.321L2.3148 9.881L0.964801 10.331C0.778192 10.3868 0.577201 10.3678 0.40435 10.278C0.231499 10.1883 0.100346 10.0348 0.0386382 9.85004C-0.0230698 9.6653 -0.010493 9.46381 0.0737081 9.28818C0.157909 9.11256 0.30713 8.97657 0.489801 8.909L3.4898 7.908C3.58324 7.8768 3.6819 7.86431 3.78016 7.87124C3.87843 7.87818 3.97436 7.9044 4.06249 7.94842C4.15061 7.99244 4.2292 8.05338 4.29377 8.12778C4.35834 8.20217 4.40762 8.28856 4.4388 8.382L5.4388 11.382C5.46999 11.4754 5.48247 11.5741 5.47553 11.6724C5.46859 11.7706 5.44236 11.8665 5.39835 11.9547C5.35433 12.0428 5.29339 12.1214 5.219 12.186C5.14461 12.2505 5.05824 12.2998 4.9648 12.331C4.87137 12.3622 4.7727 12.3747 4.67444 12.3677C4.57619 12.3608 4.48026 12.3346 4.39213 12.2905C4.30401 12.2465 4.22542 12.1856 4.16085 12.1112C4.09628 12.0368 4.04699 11.9504 4.0158 11.857L3.6098 10.64L1.7898 14.03C1.68788 14.2204 1.63701 14.4339 1.64215 14.6498C1.6473 14.8657 1.70828 15.0765 1.81916 15.2618C1.93004 15.4471 2.08703 15.6006 2.27484 15.7071C2.46265 15.8137 2.67486 15.8698 2.8908 15.87H5.9768V15.871Z" fill="#F2F4E8"/>
</svg>
