<svg width="46" height="46" viewBox="0 0 46 46" fill="none" xmlns="http://www.w3.org/2000/svg">
<circle cx="23" cy="23" r="22" fill="#FAFAFA" stroke="#2BAB7B" stroke-width="2"/>
<path d="M15.411 12C14.775 11.9999 14.1632 12.2427 13.7015 12.6784C13.2398 13.114 12.9634 13.7094 12.9292 14.3419L12.0036 31.3919C11.9854 31.7277 12.0362 32.0636 12.1527 32.3792C12.2692 32.6948 12.4491 32.9834 12.6814 33.2275C12.9136 33.4715 13.1933 33.6659 13.5035 33.7987C13.8137 33.9316 14.1478 34 14.4854 34H17.6156C17.9532 33.9999 18.2872 33.9313 18.5972 33.7984C18.9073 33.6655 19.1869 33.4711 19.419 33.2271C19.6511 32.983 19.8309 32.6945 19.9474 32.3789C20.0638 32.0634 20.1145 31.7276 20.0964 31.3919L19.1708 14.3419C19.1366 13.7096 18.8604 13.1144 18.3989 12.6788C17.9374 12.2431 17.3259 12.0002 16.6901 12H15.411ZM14.5826 14.431C14.5939 14.2201 14.686 14.0216 14.8399 13.8763C14.9939 13.731 15.1979 13.65 15.4099 13.65H16.6889C16.901 13.65 17.105 13.731 17.2589 13.8763C17.4128 14.0216 17.5049 14.2201 17.5162 14.431L18.4407 31.481C18.4467 31.5928 18.4298 31.7046 18.391 31.8097C18.3522 31.9148 18.2923 32.0109 18.215 32.0922C18.1377 32.1735 18.0446 32.2383 17.9414 32.2826C17.8382 32.3269 17.7269 32.3499 17.6145 32.35H14.4854C14.3729 32.35 14.2616 32.3272 14.1582 32.2829C14.0549 32.2387 13.9616 32.1739 13.8842 32.0926C13.8068 32.0113 13.7468 31.9151 13.708 31.81C13.6691 31.7048 13.6522 31.5929 13.6582 31.481L14.5826 14.431ZM20.2057 34C20.642 33.5468 20.9601 32.9792 21.1092 32.35H22.4015V27.675C22.4015 26.6124 23.2663 25.75 24.3344 25.75H28.7525C29.8194 25.75 30.6854 26.6124 30.6854 27.675V32.35H31.5137C31.7334 32.35 31.9441 32.2631 32.0995 32.1084C32.2548 31.9536 32.3421 31.7438 32.3421 31.525V18.2843L26.5534 23.6061C26.4351 23.7153 26.2874 23.7878 26.1284 23.8146C25.9694 23.8414 25.8059 23.8214 25.6582 23.7571C25.5104 23.6927 25.3847 23.5868 25.2965 23.4523C25.2083 23.3178 25.1614 23.1606 25.1617 23V18.2843L20.7138 22.3741L20.5978 20.2357L25.429 15.7939C25.5472 15.6847 25.6949 15.6122 25.854 15.5854C26.013 15.5586 26.1764 15.5786 26.3242 15.6429C26.472 15.7073 26.5977 15.8132 26.6858 15.9477C26.774 16.0822 26.8209 16.2394 26.8207 16.4V21.1157L32.6094 15.7939C32.7277 15.685 32.8753 15.6129 33.0342 15.5863C33.193 15.5596 33.3562 15.5797 33.5037 15.644C33.6513 15.7083 33.7768 15.8141 33.865 15.9484C33.9531 16.0826 34 16.2396 34 16.4V31.525C34 32.1814 33.7382 32.8109 33.2721 33.2751C32.8061 33.7392 32.1739 34 31.5148 34H20.2057ZM24.0583 27.675V32.35H29.0286V27.675C29.0286 27.6021 28.9995 27.5321 28.9477 27.4805C28.8959 27.429 28.8257 27.4 28.7525 27.4H24.3344C24.2612 27.4 24.1909 27.429 24.1391 27.4805C24.0874 27.5321 24.0583 27.6021 24.0583 27.675Z" fill="#2BAB7B"/>
</svg>
