<svg width="312" height="604" viewBox="0 0 312 604" fill="none" xmlns="http://www.w3.org/2000/svg">
<path d="M40.7756 19V5.59H49.6136V7.48H42.8996V11.332H49.2536V13.222H42.8996V17.11H49.6136V19H40.7756ZM51.5862 19V5.59H53.2962L60.8202 15.976L60.0102 16.102V5.59H62.1162V19H60.4062L52.9362 8.542L53.7102 8.398V19H51.5862ZM64.8928 19V5.59H69.2848C70.6768 5.59 71.8828 5.872 72.9028 6.436C73.9348 6.988 74.7328 7.768 75.2968 8.776C75.8608 9.784 76.1428 10.954 76.1428 12.286C76.1428 13.606 75.8608 14.776 75.2968 15.796C74.7328 16.804 73.9348 17.59 72.9028 18.154C71.8828 18.718 70.6768 19 69.2848 19H64.8928ZM67.0168 17.11H69.3208C70.2688 17.11 71.0908 16.912 71.7868 16.516C72.4948 16.12 73.0408 15.562 73.4248 14.842C73.8088 14.122 74.0008 13.27 74.0008 12.286C74.0008 11.302 73.8028 10.456 73.4068 9.748C73.0228 9.028 72.4828 8.47 71.7868 8.074C71.0908 7.678 70.2688 7.48 69.3208 7.48H67.0168V17.11ZM83.7571 19V7.48H80.1931V5.59H89.3731V7.48H85.8631V19H83.7571ZM96.9323 19.216C95.9603 19.216 95.0543 19.042 94.2143 18.694C93.3863 18.346 92.6543 17.86 92.0183 17.236C91.3943 16.612 90.9023 15.88 90.5423 15.04C90.1943 14.2 90.0203 13.282 90.0203 12.286C90.0203 11.29 90.1943 10.372 90.5423 9.532C90.9023 8.68 91.3943 7.948 92.0183 7.336C92.6423 6.712 93.3743 6.232 94.2143 5.896C95.0543 5.548 95.9603 5.374 96.9323 5.374C97.9163 5.374 98.8223 5.548 99.6503 5.896C100.49 6.232 101.222 6.712 101.846 7.336C102.482 7.96 102.974 8.692 103.322 9.532C103.67 10.372 103.844 11.29 103.844 12.286C103.844 13.282 103.664 14.2 103.304 15.04C102.956 15.88 102.47 16.612 101.846 17.236C101.222 17.86 100.49 18.346 99.6503 18.694C98.8103 19.042 97.9043 19.216 96.9323 19.216ZM96.9323 17.272C97.6283 17.272 98.2643 17.146 98.8403 16.894C99.4283 16.642 99.9383 16.294 100.37 15.85C100.802 15.394 101.138 14.866 101.378 14.266C101.618 13.654 101.738 12.994 101.738 12.286C101.738 11.578 101.618 10.924 101.378 10.324C101.138 9.724 100.802 9.196 100.37 8.74C99.9383 8.284 99.4283 7.93 98.8403 7.678C98.2643 7.426 97.6283 7.3 96.9323 7.3C96.2363 7.3 95.5943 7.426 95.0063 7.678C94.4303 7.93 93.9263 8.284 93.4943 8.74C93.0623 9.196 92.7263 9.724 92.4863 10.324C92.2583 10.924 92.1443 11.578 92.1443 12.286C92.1443 12.994 92.2583 13.654 92.4863 14.266C92.7263 14.866 93.0623 15.394 93.4943 15.85C93.9263 16.294 94.4363 16.642 95.0243 16.894C95.6123 17.146 96.2483 17.272 96.9323 17.272ZM109.365 19V5.59H118.203V7.48H111.489V11.332H117.843V13.222H111.489V17.11H118.203V19H109.365ZM120.176 19V5.59H121.886L129.41 15.976L128.6 16.102V5.59H130.706V19H128.996L121.526 8.542L122.3 8.398V19H120.176ZM133.483 19V5.59H137.875C139.267 5.59 140.473 5.872 141.493 6.436C142.525 6.988 143.323 7.768 143.887 8.776C144.451 9.784 144.733 10.954 144.733 12.286C144.733 13.606 144.451 14.776 143.887 15.796C143.323 16.804 142.525 17.59 141.493 18.154C140.473 18.718 139.267 19 137.875 19H133.483ZM135.607 17.11H137.911C138.859 17.11 139.681 16.912 140.377 16.516C141.085 16.12 141.631 15.562 142.015 14.842C142.399 14.122 142.591 13.27 142.591 12.286C142.591 11.302 142.393 10.456 141.997 9.748C141.613 9.028 141.073 8.47 140.377 8.074C139.681 7.678 138.859 7.48 137.911 7.48H135.607V17.11ZM149.971 19V5.59H155.623C156.463 5.59 157.189 5.74 157.801 6.04C158.413 6.328 158.881 6.748 159.205 7.3C159.529 7.84 159.691 8.482 159.691 9.226C159.691 9.874 159.523 10.468 159.187 11.008C158.863 11.536 158.353 11.956 157.657 12.268V11.368C158.269 11.608 158.767 11.914 159.151 12.286C159.535 12.646 159.811 13.054 159.979 13.51C160.159 13.966 160.249 14.446 160.249 14.95C160.249 16.21 159.835 17.2 159.007 17.92C158.191 18.64 157.069 19 155.641 19H149.971ZM152.095 17.11H155.803C156.511 17.11 157.075 16.918 157.495 16.534C157.915 16.138 158.125 15.616 158.125 14.968C158.125 14.308 157.915 13.786 157.495 13.402C157.075 13.006 156.511 12.808 155.803 12.808H152.095V17.11ZM152.095 10.936H155.677C156.253 10.936 156.715 10.774 157.063 10.45C157.411 10.114 157.585 9.676 157.585 9.136C157.585 8.596 157.411 8.176 157.063 7.876C156.715 7.576 156.253 7.426 155.677 7.426H152.095V10.936ZM162.434 19V5.59H164.558V17.11H170.354V19H162.434ZM178.301 19.216C177.329 19.216 176.423 19.042 175.583 18.694C174.755 18.346 174.023 17.86 173.387 17.236C172.763 16.612 172.271 15.88 171.911 15.04C171.563 14.2 171.389 13.282 171.389 12.286C171.389 11.29 171.563 10.372 171.911 9.532C172.271 8.68 172.763 7.948 173.387 7.336C174.011 6.712 174.743 6.232 175.583 5.896C176.423 5.548 177.329 5.374 178.301 5.374C179.285 5.374 180.191 5.548 181.019 5.896C181.859 6.232 182.591 6.712 183.215 7.336C183.851 7.96 184.343 8.692 184.691 9.532C185.039 10.372 185.213 11.29 185.213 12.286C185.213 13.282 185.033 14.2 184.673 15.04C184.325 15.88 183.839 16.612 183.215 17.236C182.591 17.86 181.859 18.346 181.019 18.694C180.179 19.042 179.273 19.216 178.301 19.216ZM178.301 17.272C178.997 17.272 179.633 17.146 180.209 16.894C180.797 16.642 181.307 16.294 181.739 15.85C182.171 15.394 182.507 14.866 182.747 14.266C182.987 13.654 183.107 12.994 183.107 12.286C183.107 11.578 182.987 10.924 182.747 10.324C182.507 9.724 182.171 9.196 181.739 8.74C181.307 8.284 180.797 7.93 180.209 7.678C179.633 7.426 178.997 7.3 178.301 7.3C177.605 7.3 176.963 7.426 176.375 7.678C175.799 7.93 175.295 8.284 174.863 8.74C174.431 9.196 174.095 9.724 173.855 10.324C173.627 10.924 173.513 11.578 173.513 12.286C173.513 12.994 173.627 13.654 173.855 14.266C174.095 14.866 174.431 15.394 174.863 15.85C175.295 16.294 175.805 16.642 176.393 16.894C176.981 17.146 177.617 17.272 178.301 17.272ZM193.834 19.216C192.886 19.216 192.004 19.042 191.188 18.694C190.384 18.346 189.682 17.866 189.082 17.254C188.494 16.63 188.032 15.898 187.696 15.058C187.36 14.218 187.192 13.294 187.192 12.286C187.192 11.29 187.354 10.372 187.678 9.532C188.014 8.68 188.482 7.948 189.082 7.336C189.682 6.712 190.384 6.232 191.188 5.896C191.992 5.548 192.874 5.374 193.834 5.374C194.782 5.374 195.628 5.536 196.372 5.86C197.128 6.184 197.764 6.61 198.28 7.138C198.796 7.654 199.168 8.218 199.396 8.83L197.488 9.73C197.2 9.01 196.738 8.428 196.102 7.984C195.478 7.528 194.722 7.3 193.834 7.3C192.946 7.3 192.16 7.51 191.476 7.93C190.792 8.35 190.258 8.932 189.874 9.676C189.502 10.42 189.316 11.29 189.316 12.286C189.316 13.282 189.502 14.158 189.874 14.914C190.258 15.658 190.792 16.24 191.476 16.66C192.16 17.068 192.946 17.272 193.834 17.272C194.722 17.272 195.478 17.05 196.102 16.606C196.738 16.162 197.2 15.58 197.488 14.86L199.396 15.76C199.168 16.36 198.796 16.924 198.28 17.452C197.764 17.98 197.128 18.406 196.372 18.73C195.628 19.054 194.782 19.216 193.834 19.216ZM201.58 19V5.59H203.704V12.862L203.146 12.646L209.212 5.59H211.858L206.494 11.872L206.602 10.36L212.074 19H209.572L205.648 12.862L203.704 15.13V19H201.58ZM219.358 19.216C218.41 19.216 217.528 19.042 216.712 18.694C215.908 18.346 215.206 17.866 214.606 17.254C214.018 16.63 213.556 15.898 213.22 15.058C212.884 14.218 212.716 13.294 212.716 12.286C212.716 11.29 212.878 10.372 213.202 9.532C213.538 8.68 214.006 7.948 214.606 7.336C215.206 6.712 215.908 6.232 216.712 5.896C217.516 5.548 218.398 5.374 219.358 5.374C220.306 5.374 221.152 5.536 221.896 5.86C222.652 6.184 223.288 6.61 223.804 7.138C224.32 7.654 224.692 8.218 224.92 8.83L223.012 9.73C222.724 9.01 222.262 8.428 221.626 7.984C221.002 7.528 220.246 7.3 219.358 7.3C218.47 7.3 217.684 7.51 217 7.93C216.316 8.35 215.782 8.932 215.398 9.676C215.026 10.42 214.84 11.29 214.84 12.286C214.84 13.282 215.026 14.158 215.398 14.914C215.782 15.658 216.316 16.24 217 16.66C217.684 17.068 218.47 17.272 219.358 17.272C220.246 17.272 221.002 17.05 221.626 16.606C222.262 16.162 222.724 15.58 223.012 14.86L224.92 15.76C224.692 16.36 224.32 16.924 223.804 17.452C223.288 17.98 222.652 18.406 221.896 18.73C221.152 19.054 220.306 19.216 219.358 19.216ZM227.104 19V5.59H229.228V11.494H235.438V5.59H237.544V19H235.438V13.384H229.228V19H227.104ZM239.135 19L243.851 5.59H246.479L251.195 19H248.927L247.901 15.994H242.447L241.403 19H239.135ZM243.059 14.104H247.253L244.877 7.084H245.471L243.059 14.104ZM252.785 19V5.59H254.909V19H252.785ZM257.69 19V5.59H259.4L266.924 15.976L266.114 16.102V5.59H268.22V19H266.51L259.04 8.542L259.814 8.398V19H257.69ZM107.819 42V28.59H112.697C113.597 28.59 114.389 28.758 115.073 29.094C115.769 29.418 116.309 29.898 116.693 30.534C117.077 31.158 117.269 31.908 117.269 32.784C117.269 33.648 117.071 34.392 116.675 35.016C116.291 35.64 115.757 36.12 115.073 36.456C114.389 36.792 113.597 36.96 112.697 36.96H109.943V42H107.819ZM109.943 35.07H112.751C113.231 35.07 113.651 34.974 114.011 34.782C114.371 34.59 114.653 34.326 114.857 33.99C115.061 33.642 115.163 33.234 115.163 32.766C115.163 32.298 115.061 31.896 114.857 31.56C114.653 31.212 114.371 30.948 114.011 30.768C113.651 30.576 113.231 30.48 112.751 30.48H109.943V35.07ZM119.455 42V28.59H121.579V40.11H127.375V42H119.455ZM127.97 42L132.686 28.59H135.314L140.03 42H137.762L136.736 38.994H131.282L130.238 42H127.97ZM131.894 37.104H136.088L133.712 30.084H134.306L131.894 37.104ZM143.101 42V30.48H139.537V28.59H148.717V30.48H145.207V42H143.101ZM150.305 42V28.59H159.035V30.48H152.429V34.512H158.315V36.402H152.429V42H150.305ZM167.157 42.216C166.185 42.216 165.279 42.042 164.439 41.694C163.611 41.346 162.879 40.86 162.243 40.236C161.619 39.612 161.127 38.88 160.767 38.04C160.419 37.2 160.245 36.282 160.245 35.286C160.245 34.29 160.419 33.372 160.767 32.532C161.127 31.68 161.619 30.948 162.243 30.336C162.867 29.712 163.599 29.232 164.439 28.896C165.279 28.548 166.185 28.374 167.157 28.374C168.141 28.374 169.047 28.548 169.875 28.896C170.715 29.232 171.447 29.712 172.071 30.336C172.707 30.96 173.199 31.692 173.547 32.532C173.895 33.372 174.069 34.29 174.069 35.286C174.069 36.282 173.889 37.2 173.529 38.04C173.181 38.88 172.695 39.612 172.071 40.236C171.447 40.86 170.715 41.346 169.875 41.694C169.035 42.042 168.129 42.216 167.157 42.216ZM167.157 40.272C167.853 40.272 168.489 40.146 169.065 39.894C169.653 39.642 170.163 39.294 170.595 38.85C171.027 38.394 171.363 37.866 171.603 37.266C171.843 36.654 171.963 35.994 171.963 35.286C171.963 34.578 171.843 33.924 171.603 33.324C171.363 32.724 171.027 32.196 170.595 31.74C170.163 31.284 169.653 30.93 169.065 30.678C168.489 30.426 167.853 30.3 167.157 30.3C166.461 30.3 165.819 30.426 165.231 30.678C164.655 30.93 164.151 31.284 163.719 31.74C163.287 32.196 162.951 32.724 162.711 33.324C162.483 33.924 162.369 34.578 162.369 35.286C162.369 35.994 162.483 36.654 162.711 37.266C162.951 37.866 163.287 38.394 163.719 38.85C164.151 39.294 164.661 39.642 165.249 39.894C165.837 40.146 166.473 40.272 167.157 40.272ZM176.444 42V28.59H181.322C182.222 28.59 183.014 28.758 183.698 29.094C184.382 29.418 184.916 29.898 185.3 30.534C185.696 31.158 185.894 31.908 185.894 32.784C185.894 33.708 185.66 34.5 185.192 35.16C184.736 35.82 184.118 36.3 183.338 36.6L186.434 42H184.022L180.728 36.15L182.114 36.96H178.568V42H176.444ZM178.568 35.07H181.358C181.85 35.07 182.276 34.974 182.636 34.782C182.996 34.59 183.272 34.326 183.464 33.99C183.668 33.642 183.77 33.234 183.77 32.766C183.77 32.298 183.668 31.896 183.464 31.56C183.272 31.212 182.996 30.948 182.636 30.768C182.276 30.576 181.85 30.48 181.358 30.48H178.568V35.07ZM188.221 42V28.59H190.201L195.241 35.574H194.251L199.201 28.59H201.181V42H199.075V31.092L199.867 31.308L194.809 38.22H194.593L189.643 31.308L190.345 31.092V42H188.221Z" fill="#FAFAFA"/>
<path opacity="0.7" d="M153 79V93.6984C153 114.685 170.013 131.698 191 131.698H298.698C304.94 131.698 310 136.758 310 143V143" stroke="url(#paint0_linear_7_2163)" stroke-width="3"/>
<path opacity="0.7" d="M153 79V93.4917C153 114.479 135.987 131.492 115 131.492H11.5083C6.25701 131.492 2 135.749 2 141V141" stroke="url(#paint1_linear_7_2163)" stroke-width="3"/>
<rect x="50" y="158" width="206.108" height="70.3078" rx="10.4829" fill="white"/>
<mask id="mask0_7_2163" style="mask-type:alpha" maskUnits="userSpaceOnUse" x="61" y="158" width="184" height="71">
<rect x="61" y="158" width="183.956" height="70.3078" rx="10.4829" fill="white"/>
</mask>
<g mask="url(#mask0_7_2163)">
<path d="M195.181 183.362C161.545 189.713 140.301 205.487 127.637 221.506C139.535 219.712 153.396 218.771 169.498 219.004C256.296 220.262 270.658 161.523 266.989 131.996C268.037 144.401 255.143 172.041 195.181 183.362Z" fill="white"/>
<path d="M111.842 255.17C114.638 235.951 135.219 194.684 195.181 183.362C255.143 172.041 268.037 144.401 266.989 131.996C270.658 161.523 256.296 220.262 169.498 219.004C82.6996 217.746 61 250.627 61 267.225" stroke="url(#paint2_linear_7_2163)" stroke-opacity="0.1" stroke-width="1.04829"/>
</g>
<path d="M112.161 196.115L116.007 185.181H118.149L121.994 196.115H120.145L119.309 193.664H114.862L114.011 196.115H112.161ZM115.361 192.123H118.78L116.843 186.399H117.327L115.361 192.123ZM123.13 199.05V188.175H124.715V189.819L124.524 189.437C124.818 188.987 125.209 188.635 125.698 188.38C126.188 188.126 126.745 187.999 127.371 187.999C128.125 187.999 128.8 188.18 129.397 188.542C130.003 188.904 130.478 189.398 130.82 190.024C131.173 190.65 131.349 191.355 131.349 192.138C131.349 192.92 131.173 193.625 130.82 194.251C130.478 194.877 130.008 195.376 129.411 195.748C128.815 196.11 128.135 196.291 127.371 196.291C126.755 196.291 126.192 196.164 125.684 195.909C125.185 195.655 124.798 195.288 124.524 194.809L124.788 194.5V199.05H123.13ZM127.21 194.75C127.68 194.75 128.095 194.637 128.457 194.412C128.819 194.187 129.103 193.879 129.309 193.488C129.524 193.087 129.632 192.637 129.632 192.138C129.632 191.639 129.524 191.193 129.309 190.802C129.103 190.411 128.819 190.102 128.457 189.877C128.095 189.652 127.68 189.54 127.21 189.54C126.75 189.54 126.334 189.652 125.963 189.877C125.601 190.102 125.312 190.411 125.097 190.802C124.891 191.193 124.788 191.639 124.788 192.138C124.788 192.637 124.891 193.087 125.097 193.488C125.312 193.879 125.601 194.187 125.963 194.412C126.334 194.637 126.75 194.75 127.21 194.75ZM132.962 199.05V188.175H134.547V189.819L134.356 189.437C134.65 188.987 135.041 188.635 135.53 188.38C136.019 188.126 136.577 187.999 137.203 187.999C137.957 187.999 138.632 188.18 139.229 188.542C139.835 188.904 140.31 189.398 140.652 190.024C141.004 190.65 141.18 191.355 141.18 192.138C141.18 192.92 141.004 193.625 140.652 194.251C140.31 194.877 139.84 195.376 139.243 195.748C138.646 196.11 137.966 196.291 137.203 196.291C136.587 196.291 136.024 196.164 135.516 195.909C135.017 195.655 134.63 195.288 134.356 194.809L134.62 194.5V199.05H132.962ZM137.042 194.75C137.511 194.75 137.927 194.637 138.289 194.412C138.651 194.187 138.935 193.879 139.141 193.488C139.356 193.087 139.463 192.637 139.463 192.138C139.463 191.639 139.356 191.193 139.141 190.802C138.935 190.411 138.651 190.102 138.289 189.877C137.927 189.652 137.511 189.54 137.042 189.54C136.582 189.54 136.166 189.652 135.794 189.877C135.432 190.102 135.144 190.411 134.928 190.802C134.723 191.193 134.62 191.639 134.62 192.138C134.62 192.637 134.723 193.087 134.928 193.488C135.144 193.879 135.432 194.187 135.794 194.412C136.166 194.637 136.582 194.75 137.042 194.75ZM142.794 196.115V185.005H144.452V196.115H142.794ZM146.391 196.115V188.175H148.049V196.115H146.391ZM146.391 187.089V185.181H148.049V187.089H146.391ZM153.76 196.291C152.968 196.291 152.263 196.11 151.647 195.748C151.04 195.376 150.556 194.877 150.194 194.251C149.842 193.625 149.666 192.915 149.666 192.123C149.666 191.34 149.842 190.636 150.194 190.01C150.546 189.383 151.03 188.894 151.647 188.542C152.263 188.18 152.968 187.999 153.76 187.999C154.298 187.999 154.802 188.097 155.272 188.292C155.741 188.478 156.147 188.738 156.49 189.07C156.842 189.403 157.101 189.789 157.268 190.23L155.815 190.905C155.648 190.494 155.379 190.166 155.008 189.921C154.646 189.667 154.23 189.54 153.76 189.54C153.31 189.54 152.904 189.652 152.542 189.877C152.19 190.093 151.911 190.401 151.706 190.802C151.5 191.193 151.397 191.639 151.397 192.138C151.397 192.637 151.5 193.087 151.706 193.488C151.911 193.879 152.19 194.187 152.542 194.412C152.904 194.637 153.31 194.75 153.76 194.75C154.24 194.75 154.655 194.628 155.008 194.383C155.37 194.129 155.639 193.791 155.815 193.37L157.268 194.06C157.111 194.481 156.857 194.862 156.505 195.205C156.162 195.537 155.756 195.802 155.286 195.997C154.817 196.193 154.308 196.291 153.76 196.291ZM161.194 196.291C160.656 196.291 160.182 196.198 159.771 196.012C159.37 195.816 159.057 195.552 158.832 195.22C158.607 194.877 158.494 194.476 158.494 194.016C158.494 193.586 158.587 193.199 158.773 192.857C158.969 192.514 159.267 192.226 159.668 191.991C160.069 191.756 160.573 191.59 161.18 191.492L163.939 191.037V192.343L161.503 192.769C161.062 192.847 160.74 192.989 160.534 193.194C160.329 193.39 160.226 193.644 160.226 193.957C160.226 194.261 160.338 194.51 160.563 194.706C160.798 194.892 161.097 194.985 161.459 194.985C161.909 194.985 162.3 194.887 162.633 194.691C162.975 194.495 163.239 194.236 163.425 193.913C163.611 193.581 163.704 193.214 163.704 192.813V190.773C163.704 190.381 163.557 190.063 163.264 189.819C162.98 189.564 162.599 189.437 162.119 189.437C161.679 189.437 161.292 189.555 160.96 189.789C160.637 190.014 160.397 190.308 160.241 190.67L158.861 189.98C159.008 189.589 159.247 189.246 159.58 188.953C159.913 188.65 160.299 188.415 160.74 188.248C161.19 188.082 161.664 187.999 162.163 187.999C162.789 187.999 163.342 188.116 163.822 188.351C164.311 188.586 164.687 188.914 164.952 189.334C165.226 189.745 165.362 190.225 165.362 190.773V196.115H163.777V194.676L164.115 194.721C163.929 195.043 163.689 195.322 163.396 195.557C163.112 195.792 162.784 195.973 162.413 196.1C162.051 196.227 161.645 196.291 161.194 196.291ZM170.592 196.203C169.761 196.203 169.115 195.968 168.655 195.498C168.195 195.029 167.965 194.368 167.965 193.517V189.672H166.571V188.175H166.791C167.163 188.175 167.452 188.067 167.657 187.852C167.863 187.637 167.965 187.343 167.965 186.972V186.355H169.624V188.175H171.429V189.672H169.624V193.444C169.624 193.718 169.668 193.952 169.756 194.148C169.844 194.334 169.986 194.481 170.182 194.588C170.377 194.686 170.632 194.735 170.945 194.735C171.023 194.735 171.111 194.73 171.209 194.721C171.307 194.711 171.4 194.701 171.488 194.691V196.115C171.351 196.134 171.199 196.154 171.033 196.173C170.866 196.193 170.72 196.203 170.592 196.203ZM173.106 196.115V188.175H174.764V196.115H173.106ZM173.106 187.089V185.181H174.764V187.089H173.106ZM180.534 196.291C179.771 196.291 179.071 196.11 178.435 195.748C177.809 195.386 177.31 194.892 176.938 194.266C176.566 193.639 176.381 192.93 176.381 192.138C176.381 191.335 176.566 190.626 176.938 190.01C177.31 189.383 177.809 188.894 178.435 188.542C179.061 188.18 179.761 187.999 180.534 187.999C181.317 187.999 182.016 188.18 182.633 188.542C183.259 188.894 183.753 189.383 184.115 190.01C184.487 190.626 184.673 191.335 184.673 192.138C184.673 192.94 184.487 193.654 184.115 194.28C183.743 194.906 183.244 195.401 182.618 195.763C181.992 196.115 181.297 196.291 180.534 196.291ZM180.534 194.75C181.004 194.75 181.419 194.637 181.781 194.412C182.143 194.187 182.427 193.879 182.633 193.488C182.848 193.087 182.955 192.637 182.955 192.138C182.955 191.639 182.848 191.193 182.633 190.802C182.427 190.411 182.143 190.102 181.781 189.877C181.419 189.652 181.004 189.54 180.534 189.54C180.074 189.54 179.658 189.652 179.286 189.877C178.924 190.102 178.636 190.411 178.421 190.802C178.215 191.193 178.112 191.639 178.112 192.138C178.112 192.637 178.215 193.087 178.421 193.488C178.636 193.879 178.924 194.187 179.286 194.412C179.658 194.637 180.074 194.75 180.534 194.75ZM186.292 196.115V188.175H187.877V189.731L187.686 189.525C187.881 189.026 188.195 188.65 188.625 188.395C189.056 188.131 189.555 187.999 190.122 187.999C190.709 187.999 191.228 188.126 191.678 188.38C192.128 188.635 192.48 188.987 192.734 189.437C192.989 189.887 193.116 190.406 193.116 190.993V196.115H191.472V191.433C191.472 191.032 191.399 190.694 191.252 190.42C191.105 190.137 190.895 189.921 190.621 189.775C190.357 189.618 190.054 189.54 189.711 189.54C189.369 189.54 189.06 189.618 188.787 189.775C188.522 189.921 188.317 190.137 188.17 190.42C188.023 190.704 187.95 191.042 187.95 191.433V196.115H186.292Z" fill="#535353"/>
<circle cx="85.9588" cy="193.118" r="9.95875" fill="#F0F0F0"/>
<path d="M85.9588 183.159C87.2666 183.159 88.5616 183.417 89.7698 183.917C90.9781 184.418 92.0759 185.151 93.0007 186.076C93.9254 187.001 94.659 188.099 95.1594 189.307C95.6599 190.515 95.9175 191.81 95.9175 193.118L85.9588 193.118L85.9588 183.159Z" fill="#135B40"/>
<rect x="12" y="281" width="282.194" height="70.3078" rx="10.4829" fill="white"/>
<mask id="mask1_7_2163" style="mask-type:alpha" maskUnits="userSpaceOnUse" x="110" y="281" width="185" height="71">
<rect x="110.239" y="281" width="183.956" height="70.3078" rx="10.4829" fill="white"/>
</mask>
<g mask="url(#mask1_7_2163)">
<path d="M229.632 321.66C220.716 318.879 213.011 314.145 206.345 308.053C206.941 308.048 207.54 308.041 208.142 308.032C294.941 306.774 309.302 365.513 305.633 395.04C306.682 382.636 286.764 339.481 229.632 321.66Z" fill="white"/>
<path d="M162.018 182.762C164.813 201.98 171.379 303.489 229.632 321.66C286.764 339.481 306.682 382.636 305.633 395.04C309.302 365.513 294.941 306.774 208.142 308.032C121.344 309.29 99.6443 276.409 99.6443 259.811" stroke="url(#paint3_linear_7_2163)" stroke-opacity="0.1" stroke-width="1.04829"/>
</g>
<path d="M71.8805 322.115V311.181H75.4615C76.5965 311.181 77.5797 311.411 78.4114 311.871C79.2528 312.321 79.9035 312.957 80.3633 313.779C80.8232 314.601 81.0531 315.555 81.0531 316.641C81.0531 317.717 80.8232 318.671 80.3633 319.502C79.9035 320.324 79.2528 320.965 78.4114 321.425C77.5797 321.885 76.5965 322.115 75.4615 322.115H71.8805ZM73.6123 320.574H75.4909C76.2638 320.574 76.934 320.412 77.5015 320.089C78.0787 319.767 78.5239 319.312 78.837 318.725C79.1501 318.138 79.3066 317.443 79.3066 316.641C79.3066 315.838 79.1452 315.149 78.8223 314.571C78.5092 313.984 78.069 313.529 77.5015 313.206C76.934 312.884 76.2638 312.722 75.4909 312.722H73.6123V320.574ZM84.903 322.291C84.3649 322.291 83.8904 322.198 83.4794 322.012C83.0783 321.816 82.7652 321.552 82.5402 321.22C82.3151 320.877 82.2026 320.476 82.2026 320.016C82.2026 319.586 82.2956 319.199 82.4815 318.857C82.6772 318.514 82.9756 318.226 83.3767 317.991C83.7779 317.756 84.2817 317.59 84.8883 317.492L87.6474 317.037V318.343L85.2112 318.769C84.7709 318.847 84.4481 318.989 84.2426 319.194C84.0371 319.39 83.9344 319.644 83.9344 319.957C83.9344 320.261 84.0469 320.51 84.272 320.706C84.5068 320.892 84.8052 320.985 85.1672 320.985C85.6173 320.985 86.0086 320.887 86.3413 320.691C86.6837 320.495 86.9479 320.236 87.1338 319.913C87.3197 319.581 87.4126 319.214 87.4126 318.813V316.773C87.4126 316.381 87.2659 316.063 86.9724 315.819C86.6886 315.564 86.307 315.437 85.8276 315.437C85.3873 315.437 85.0009 315.555 84.6682 315.789C84.3453 316.014 84.1056 316.308 83.9491 316.67L82.5695 315.98C82.7163 315.589 82.956 315.246 83.2887 314.953C83.6213 314.65 84.0078 314.415 84.4481 314.248C84.8981 314.082 85.3727 313.999 85.8716 313.999C86.4978 313.999 87.0506 314.116 87.53 314.351C88.0192 314.586 88.3959 314.914 88.6601 315.334C88.9341 315.745 89.071 316.225 89.071 316.773V322.115H87.486V320.676L87.8236 320.721C87.6377 321.043 87.398 321.322 87.1044 321.557C86.8207 321.792 86.4929 321.973 86.1211 322.1C85.7591 322.227 85.3531 322.291 84.903 322.291ZM94.301 322.203C93.4693 322.203 92.8236 321.968 92.3637 321.498C91.9039 321.029 91.674 320.368 91.674 319.517V315.672H90.2797V314.175H90.4999C90.8717 314.175 91.1603 314.067 91.3658 313.852C91.5712 313.637 91.674 313.343 91.674 312.972V312.355H93.3324V314.175H95.1375V315.672H93.3324V319.444C93.3324 319.718 93.3764 319.952 93.4644 320.148C93.5525 320.334 93.6944 320.481 93.89 320.588C94.0857 320.686 94.3401 320.735 94.6532 320.735C94.7315 320.735 94.8195 320.73 94.9174 320.721C95.0152 320.711 95.1082 320.701 95.1962 320.691V322.115C95.0592 322.134 94.9076 322.154 94.7413 322.173C94.5749 322.193 94.4282 322.203 94.301 322.203ZM99.1205 322.291C98.5823 322.291 98.1078 322.198 97.6969 322.012C97.2957 321.816 96.9826 321.552 96.7576 321.22C96.5326 320.877 96.4201 320.476 96.4201 320.016C96.4201 319.586 96.513 319.199 96.6989 318.857C96.8946 318.514 97.193 318.226 97.5941 317.991C97.9953 317.756 98.4992 317.59 99.1058 317.492L101.865 317.037V318.343L99.4287 318.769C98.9884 318.847 98.6655 318.989 98.46 319.194C98.2546 319.39 98.1518 319.644 98.1518 319.957C98.1518 320.261 98.2644 320.51 98.4894 320.706C98.7242 320.892 99.0226 320.985 99.3846 320.985C99.8347 320.985 100.226 320.887 100.559 320.691C100.901 320.495 101.165 320.236 101.351 319.913C101.537 319.581 101.63 319.214 101.63 318.813V316.773C101.63 316.381 101.483 316.063 101.19 315.819C100.906 315.564 100.524 315.437 100.045 315.437C99.6048 315.437 99.2183 315.555 98.8856 315.789C98.5628 316.014 98.3231 316.308 98.1665 316.67L96.787 315.98C96.9337 315.589 97.1734 315.246 97.5061 314.953C97.8387 314.65 98.2252 314.415 98.6655 314.248C99.1156 314.082 99.5901 313.999 100.089 313.999C100.715 313.999 101.268 314.116 101.747 314.351C102.237 314.586 102.613 314.914 102.878 315.334C103.151 315.745 103.288 316.225 103.288 316.773V322.115H101.703V320.676L102.041 320.721C101.855 321.043 101.615 321.322 101.322 321.557C101.038 321.792 100.71 321.973 100.339 322.1C99.9766 322.227 99.5705 322.291 99.1205 322.291ZM113.047 322.291C112.274 322.291 111.555 322.149 110.89 321.865C110.234 321.582 109.662 321.19 109.173 320.691C108.693 320.182 108.316 319.586 108.042 318.901C107.769 318.216 107.632 317.462 107.632 316.641C107.632 315.829 107.764 315.08 108.028 314.395C108.302 313.7 108.683 313.104 109.173 312.605C109.662 312.096 110.234 311.705 110.89 311.431C111.545 311.147 112.264 311.005 113.047 311.005C113.82 311.005 114.51 311.137 115.116 311.401C115.733 311.665 116.251 312.013 116.672 312.443C117.093 312.864 117.396 313.324 117.582 313.823L116.026 314.557C115.791 313.97 115.415 313.495 114.896 313.133C114.387 312.761 113.771 312.575 113.047 312.575C112.323 312.575 111.682 312.747 111.124 313.089C110.567 313.431 110.131 313.906 109.818 314.513C109.515 315.119 109.363 315.829 109.363 316.641C109.363 317.453 109.515 318.167 109.818 318.783C110.131 319.39 110.567 319.864 111.124 320.207C111.682 320.54 112.323 320.706 113.047 320.706C113.771 320.706 114.387 320.525 114.896 320.163C115.415 319.801 115.791 319.326 116.026 318.739L117.582 319.473C117.396 319.962 117.093 320.422 116.672 320.853C116.251 321.283 115.733 321.63 115.116 321.895C114.51 322.159 113.82 322.291 113.047 322.291ZM122.888 322.291C122.125 322.291 121.426 322.11 120.79 321.748C120.164 321.386 119.665 320.892 119.293 320.266C118.921 319.639 118.735 318.93 118.735 318.138C118.735 317.335 118.921 316.626 119.293 316.01C119.665 315.383 120.164 314.894 120.79 314.542C121.416 314.18 122.116 313.999 122.888 313.999C123.671 313.999 124.371 314.18 124.987 314.542C125.613 314.894 126.107 315.383 126.469 316.01C126.841 316.626 127.027 317.335 127.027 318.138C127.027 318.94 126.841 319.654 126.469 320.28C126.098 320.906 125.599 321.401 124.972 321.763C124.346 322.115 123.652 322.291 122.888 322.291ZM122.888 320.75C123.358 320.75 123.774 320.637 124.136 320.412C124.498 320.187 124.782 319.879 124.987 319.488C125.202 319.087 125.31 318.637 125.31 318.138C125.31 317.639 125.202 317.193 124.987 316.802C124.782 316.411 124.498 316.102 124.136 315.877C123.774 315.652 123.358 315.54 122.888 315.54C122.429 315.54 122.013 315.652 121.641 315.877C121.279 316.102 120.99 316.411 120.775 316.802C120.57 317.193 120.467 317.639 120.467 318.138C120.467 318.637 120.57 319.087 120.775 319.488C120.99 319.879 121.279 320.187 121.641 320.412C122.013 320.637 122.429 320.75 122.888 320.75ZM128.646 322.115V311.005H130.305V322.115H128.646ZM132.244 322.115V311.005H133.902V322.115H132.244ZM139.569 322.291C138.776 322.291 138.072 322.11 137.455 321.748C136.849 321.376 136.374 320.877 136.032 320.251C135.689 319.615 135.518 318.906 135.518 318.123C135.518 317.321 135.689 316.611 136.032 315.995C136.384 315.378 136.854 314.894 137.441 314.542C138.028 314.18 138.693 313.999 139.437 313.999C140.033 313.999 140.567 314.102 141.036 314.307C141.506 314.513 141.902 314.796 142.225 315.158C142.548 315.511 142.792 315.917 142.959 316.376C143.135 316.836 143.223 317.325 143.223 317.844C143.223 317.971 143.218 318.103 143.208 318.24C143.198 318.377 143.179 318.504 143.15 318.622H136.824V317.301H142.21L141.418 317.903C141.516 317.423 141.481 316.998 141.315 316.626C141.158 316.244 140.914 315.946 140.581 315.731C140.258 315.506 139.877 315.393 139.437 315.393C138.996 315.393 138.605 315.506 138.262 315.731C137.92 315.946 137.656 316.259 137.47 316.67C137.284 317.071 137.211 317.56 137.25 318.138C137.201 318.676 137.274 319.145 137.47 319.546C137.675 319.948 137.959 320.261 138.321 320.486C138.693 320.711 139.114 320.823 139.583 320.823C140.063 320.823 140.469 320.716 140.801 320.5C141.144 320.285 141.413 320.006 141.609 319.664L142.959 320.324C142.802 320.696 142.558 321.034 142.225 321.337C141.902 321.63 141.511 321.865 141.051 322.041C140.601 322.208 140.107 322.291 139.569 322.291ZM148.613 322.291C147.821 322.291 147.116 322.11 146.5 321.748C145.893 321.376 145.409 320.877 145.047 320.251C144.695 319.625 144.519 318.915 144.519 318.123C144.519 317.34 144.695 316.636 145.047 316.01C145.399 315.383 145.883 314.894 146.5 314.542C147.116 314.18 147.821 313.999 148.613 313.999C149.151 313.999 149.655 314.097 150.125 314.292C150.594 314.478 151 314.738 151.343 315.07C151.695 315.403 151.954 315.789 152.121 316.23L150.668 316.905C150.501 316.494 150.232 316.166 149.861 315.921C149.499 315.667 149.083 315.54 148.613 315.54C148.163 315.54 147.757 315.652 147.395 315.877C147.043 316.093 146.764 316.401 146.559 316.802C146.353 317.193 146.25 317.639 146.25 318.138C146.25 318.637 146.353 319.087 146.559 319.488C146.764 319.879 147.043 320.187 147.395 320.412C147.757 320.637 148.163 320.75 148.613 320.75C149.093 320.75 149.508 320.628 149.861 320.383C150.223 320.129 150.492 319.791 150.668 319.37L152.121 320.06C151.964 320.481 151.71 320.862 151.358 321.205C151.015 321.537 150.609 321.802 150.139 321.997C149.67 322.193 149.161 322.291 148.613 322.291ZM157.176 322.203C156.344 322.203 155.698 321.968 155.239 321.498C154.779 321.029 154.549 320.368 154.549 319.517V315.672H153.155V314.175H153.375C153.747 314.175 154.035 314.067 154.241 313.852C154.446 313.637 154.549 313.343 154.549 312.972V312.355H156.207V314.175H158.012V315.672H156.207V319.444C156.207 319.718 156.251 319.952 156.339 320.148C156.427 320.334 156.569 320.481 156.765 320.588C156.961 320.686 157.215 320.735 157.528 320.735C157.606 320.735 157.694 320.73 157.792 320.721C157.89 320.711 157.983 320.701 158.071 320.691V322.115C157.934 322.134 157.782 322.154 157.616 322.173C157.45 322.193 157.303 322.203 157.176 322.203ZM159.689 322.115V314.175H161.348V322.115H159.689ZM159.689 313.089V311.181H161.348V313.089H159.689ZM167.117 322.291C166.354 322.291 165.655 322.11 165.019 321.748C164.392 321.386 163.893 320.892 163.522 320.266C163.15 319.639 162.964 318.93 162.964 318.138C162.964 317.335 163.15 316.626 163.522 316.01C163.893 315.383 164.392 314.894 165.019 314.542C165.645 314.18 166.344 313.999 167.117 313.999C167.9 313.999 168.6 314.18 169.216 314.542C169.842 314.894 170.336 315.383 170.698 316.01C171.07 316.626 171.256 317.335 171.256 318.138C171.256 318.94 171.07 319.654 170.698 320.28C170.326 320.906 169.827 321.401 169.201 321.763C168.575 322.115 167.88 322.291 167.117 322.291ZM167.117 320.75C167.587 320.75 168.003 320.637 168.365 320.412C168.727 320.187 169.01 319.879 169.216 319.488C169.431 319.087 169.539 318.637 169.539 318.138C169.539 317.639 169.431 317.193 169.216 316.802C169.01 316.411 168.727 316.102 168.365 315.877C168.003 315.652 167.587 315.54 167.117 315.54C166.657 315.54 166.242 315.652 165.87 315.877C165.508 316.102 165.219 316.411 165.004 316.802C164.798 317.193 164.696 317.639 164.696 318.138C164.696 318.637 164.798 319.087 165.004 319.488C165.219 319.879 165.508 320.187 165.87 320.412C166.242 320.637 166.657 320.75 167.117 320.75ZM172.875 322.115V314.175H174.46V315.731L174.269 315.525C174.465 315.026 174.778 314.65 175.208 314.395C175.639 314.131 176.138 313.999 176.705 313.999C177.292 313.999 177.811 314.126 178.261 314.38C178.711 314.635 179.063 314.987 179.318 315.437C179.572 315.887 179.699 316.406 179.699 316.993V322.115H178.056V317.433C178.056 317.032 177.982 316.694 177.836 316.42C177.689 316.137 177.478 315.921 177.204 315.775C176.94 315.618 176.637 315.54 176.295 315.54C175.952 315.54 175.644 315.618 175.37 315.775C175.106 315.921 174.9 316.137 174.754 316.42C174.607 316.704 174.533 317.042 174.533 317.433V322.115H172.875ZM187.371 322.291C186.725 322.291 186.158 322.173 185.669 321.939C185.18 321.694 184.793 321.356 184.509 320.926C184.235 320.486 184.098 319.977 184.098 319.4C184.098 318.91 184.186 318.485 184.363 318.123C184.539 317.751 184.759 317.438 185.023 317.184C185.287 316.919 185.551 316.699 185.815 316.523C186.08 316.347 186.3 316.21 186.476 316.112L187.371 315.613C187.665 315.447 187.944 315.271 188.208 315.085C188.472 314.899 188.687 314.689 188.853 314.454C189.02 314.219 189.103 313.955 189.103 313.661C189.103 313.309 188.986 313.016 188.751 312.781C188.516 312.536 188.222 312.414 187.87 312.414C187.518 312.414 187.224 312.531 186.99 312.766C186.755 313.001 186.637 313.304 186.637 313.676C186.637 313.93 186.696 314.18 186.813 314.424C186.941 314.669 187.087 314.899 187.254 315.114C187.43 315.32 187.601 315.515 187.767 315.701L193.638 322.115H191.569L186.535 316.699C186.3 316.445 186.065 316.176 185.83 315.892C185.605 315.599 185.414 315.276 185.258 314.923C185.111 314.571 185.038 314.18 185.038 313.749C185.038 313.192 185.165 312.707 185.419 312.296C185.683 311.886 186.026 311.568 186.447 311.343C186.877 311.117 187.347 311.005 187.855 311.005C188.374 311.005 188.844 311.122 189.264 311.357C189.685 311.582 190.018 311.895 190.262 312.296C190.517 312.698 190.644 313.153 190.644 313.661C190.644 314.19 190.522 314.645 190.277 315.026C190.032 315.408 189.734 315.731 189.382 315.995C189.039 316.259 188.716 316.484 188.413 316.67L187.518 317.198C187.283 317.335 187.034 317.506 186.769 317.712C186.515 317.908 186.3 318.142 186.124 318.416C185.948 318.681 185.86 318.999 185.86 319.37C185.86 319.83 186.001 320.187 186.285 320.442C186.579 320.696 186.96 320.823 187.43 320.823C187.733 320.823 188.002 320.774 188.237 320.676C188.472 320.579 188.677 320.451 188.853 320.295C189.039 320.138 189.201 319.967 189.338 319.781C189.485 319.586 189.617 319.405 189.734 319.238L191.436 316.743H193.212L191.246 319.796C191.089 320.031 190.903 320.295 190.688 320.588C190.473 320.872 190.213 321.146 189.91 321.41C189.607 321.665 189.245 321.875 188.824 322.041C188.413 322.208 187.929 322.291 187.371 322.291ZM198.132 322.115V311.181H202.109C202.843 311.181 203.489 311.318 204.046 311.592C204.604 311.856 205.039 312.248 205.353 312.766C205.675 313.275 205.837 313.886 205.837 314.601C205.837 315.354 205.646 316 205.264 316.538C204.893 317.076 204.389 317.467 203.753 317.712L206.277 322.115H204.311L201.625 317.345L202.755 318.005H199.864V322.115H198.132ZM199.864 316.464H202.138C202.54 316.464 202.887 316.386 203.18 316.23C203.474 316.073 203.699 315.858 203.856 315.584C204.022 315.3 204.105 314.968 204.105 314.586C204.105 314.204 204.022 313.877 203.856 313.603C203.699 313.319 203.474 313.104 203.18 312.957C202.887 312.8 202.54 312.722 202.138 312.722H199.864V316.464ZM210.856 322.291C210.064 322.291 209.359 322.11 208.743 321.748C208.136 321.376 207.662 320.877 207.319 320.251C206.977 319.615 206.806 318.906 206.806 318.123C206.806 317.321 206.977 316.611 207.319 315.995C207.672 315.378 208.141 314.894 208.728 314.542C209.315 314.18 209.981 313.999 210.724 313.999C211.321 313.999 211.854 314.102 212.324 314.307C212.794 314.513 213.19 314.796 213.513 315.158C213.836 315.511 214.08 315.917 214.247 316.376C214.423 316.836 214.511 317.325 214.511 317.844C214.511 317.971 214.506 318.103 214.496 318.24C214.486 318.377 214.467 318.504 214.437 318.622H208.112V317.301H213.498L212.706 317.903C212.803 317.423 212.769 316.998 212.603 316.626C212.446 316.244 212.202 315.946 211.869 315.731C211.546 315.506 211.165 315.393 210.724 315.393C210.284 315.393 209.893 315.506 209.55 315.731C209.208 315.946 208.944 316.259 208.758 316.67C208.572 317.071 208.498 317.56 208.538 318.138C208.489 318.676 208.562 319.145 208.758 319.546C208.963 319.948 209.247 320.261 209.609 320.486C209.981 320.711 210.401 320.823 210.871 320.823C211.35 320.823 211.757 320.716 212.089 320.5C212.432 320.285 212.701 320.006 212.896 319.664L214.247 320.324C214.09 320.696 213.845 321.034 213.513 321.337C213.19 321.63 212.799 321.865 212.339 322.041C211.889 322.208 211.395 322.291 210.856 322.291ZM216.129 325.05V314.175H217.714V315.819L217.523 315.437C217.817 314.987 218.208 314.635 218.698 314.38C219.187 314.126 219.744 313.999 220.371 313.999C221.124 313.999 221.799 314.18 222.396 314.542C223.003 314.904 223.477 315.398 223.82 316.024C224.172 316.65 224.348 317.355 224.348 318.138C224.348 318.92 224.172 319.625 223.82 320.251C223.477 320.877 223.007 321.376 222.411 321.748C221.814 322.11 221.134 322.291 220.371 322.291C219.754 322.291 219.192 322.164 218.683 321.909C218.184 321.655 217.797 321.288 217.523 320.809L217.788 320.5V325.05H216.129ZM220.209 320.75C220.679 320.75 221.095 320.637 221.457 320.412C221.819 320.187 222.102 319.879 222.308 319.488C222.523 319.087 222.631 318.637 222.631 318.138C222.631 317.639 222.523 317.193 222.308 316.802C222.102 316.411 221.819 316.102 221.457 315.877C221.095 315.652 220.679 315.54 220.209 315.54C219.749 315.54 219.334 315.652 218.962 315.877C218.6 316.102 218.311 316.411 218.096 316.802C217.89 317.193 217.788 317.639 217.788 318.138C217.788 318.637 217.89 319.087 218.096 319.488C218.311 319.879 218.6 320.187 218.962 320.412C219.334 320.637 219.749 320.75 220.209 320.75ZM229.792 322.291C229.028 322.291 228.329 322.11 227.693 321.748C227.067 321.386 226.568 320.892 226.196 320.266C225.824 319.639 225.638 318.93 225.638 318.138C225.638 317.335 225.824 316.626 226.196 316.01C226.568 315.383 227.067 314.894 227.693 314.542C228.319 314.18 229.019 313.999 229.792 313.999C230.574 313.999 231.274 314.18 231.89 314.542C232.516 314.894 233.01 315.383 233.372 316.01C233.744 316.626 233.93 317.335 233.93 318.138C233.93 318.94 233.744 319.654 233.372 320.28C233.001 320.906 232.502 321.401 231.876 321.763C231.249 322.115 230.555 322.291 229.792 322.291ZM229.792 320.75C230.261 320.75 230.677 320.637 231.039 320.412C231.401 320.187 231.685 319.879 231.89 319.488C232.105 319.087 232.213 318.637 232.213 318.138C232.213 317.639 232.105 317.193 231.89 316.802C231.685 316.411 231.401 316.102 231.039 315.877C230.677 315.652 230.261 315.54 229.792 315.54C229.332 315.54 228.916 315.652 228.544 315.877C228.182 316.102 227.893 316.411 227.678 316.802C227.473 317.193 227.37 317.639 227.37 318.138C227.37 318.637 227.473 319.087 227.678 319.488C227.893 319.879 228.182 320.187 228.544 320.412C228.916 320.637 229.332 320.75 229.792 320.75ZM235.549 322.115V314.175H237.134V315.775L236.987 315.54C237.164 315.021 237.447 314.65 237.839 314.424C238.23 314.19 238.7 314.072 239.248 314.072H239.732V315.584H239.042C238.494 315.584 238.049 315.755 237.707 316.098C237.374 316.43 237.208 316.91 237.208 317.536V322.115H235.549ZM244.444 322.203C243.612 322.203 242.967 321.968 242.507 321.498C242.047 321.029 241.817 320.368 241.817 319.517V315.672H240.423V314.175H240.643C241.015 314.175 241.303 314.067 241.509 313.852C241.714 313.637 241.817 313.343 241.817 312.972V312.355H243.475V314.175H245.28V315.672H243.475V319.444C243.475 319.718 243.519 319.952 243.607 320.148C243.695 320.334 243.837 320.481 244.033 320.588C244.229 320.686 244.483 320.735 244.796 320.735C244.874 320.735 244.963 320.73 245.06 320.721C245.158 320.711 245.251 320.701 245.339 320.691V322.115C245.202 322.134 245.051 322.154 244.884 322.173C244.718 322.193 244.571 322.203 244.444 322.203ZM246.958 322.115V314.175H248.616V322.115H246.958ZM246.958 313.089V311.181H248.616V313.089H246.958ZM250.555 322.115V314.175H252.14V315.731L251.949 315.525C252.145 315.026 252.458 314.65 252.888 314.395C253.319 314.131 253.818 313.999 254.385 313.999C254.972 313.999 255.491 314.126 255.941 314.38C256.391 314.635 256.743 314.987 256.998 315.437C257.252 315.887 257.379 316.406 257.379 316.993V322.115H255.736V317.433C255.736 317.032 255.662 316.694 255.515 316.42C255.369 316.137 255.158 315.921 254.884 315.775C254.62 315.618 254.317 315.54 253.974 315.54C253.632 315.54 253.324 315.618 253.05 315.775C252.786 315.921 252.58 316.137 252.433 316.42C252.287 316.704 252.213 317.042 252.213 317.433V322.115H250.555ZM262.985 325.343C262.407 325.343 261.874 325.251 261.385 325.065C260.896 324.879 260.475 324.619 260.123 324.287C259.771 323.964 259.506 323.582 259.33 323.142L260.857 322.511C260.994 322.883 261.243 323.191 261.605 323.436C261.977 323.68 262.432 323.802 262.97 323.802C263.391 323.802 263.767 323.719 264.1 323.553C264.433 323.396 264.697 323.162 264.893 322.849C265.088 322.545 265.186 322.178 265.186 321.748V319.957L265.48 320.295C265.206 320.804 264.824 321.19 264.335 321.454C263.855 321.718 263.312 321.851 262.706 321.851C261.972 321.851 261.312 321.679 260.725 321.337C260.137 320.994 259.673 320.525 259.33 319.928C258.998 319.331 258.831 318.661 258.831 317.917C258.831 317.164 258.998 316.494 259.33 315.907C259.673 315.32 260.133 314.855 260.71 314.513C261.287 314.17 261.948 313.999 262.691 313.999C263.298 313.999 263.836 314.131 264.305 314.395C264.785 314.65 265.176 315.021 265.48 315.511L265.259 315.921V314.175H266.83V321.748C266.83 322.433 266.663 323.044 266.331 323.582C266.008 324.13 265.558 324.561 264.981 324.874C264.403 325.187 263.738 325.343 262.985 325.343ZM262.897 320.31C263.337 320.31 263.728 320.207 264.071 320.001C264.413 319.786 264.682 319.502 264.878 319.15C265.083 318.788 265.186 318.382 265.186 317.932C265.186 317.482 265.083 317.076 264.878 316.714C264.672 316.352 264.398 316.068 264.056 315.863C263.714 315.647 263.327 315.54 262.897 315.54C262.447 315.54 262.045 315.647 261.693 315.863C261.341 316.068 261.062 316.352 260.857 316.714C260.661 317.066 260.563 317.472 260.563 317.932C260.563 318.372 260.661 318.773 260.857 319.136C261.062 319.498 261.341 319.786 261.693 320.001C262.045 320.207 262.447 320.31 262.897 320.31Z" fill="#535353"/>
<circle cx="45.6858" cy="316.118" r="9.95875" fill="#F0F0F0"/>
<path d="M45.6858 306.159C46.9936 306.159 48.2886 306.417 49.4969 306.917C50.7051 307.418 51.803 308.151 52.7277 309.076C53.6525 310.001 54.386 311.099 54.8865 312.307C55.387 313.515 55.6446 314.81 55.6446 316.118C55.6446 317.426 55.387 318.721 54.8865 319.929C54.386 321.137 53.6525 322.235 52.7277 323.16C51.8029 324.085 50.7051 324.818 49.4969 325.319C48.2886 325.819 46.9936 326.077 45.6858 326.077L45.6858 316.118L45.6858 306.159Z" fill="#135B40"/>
<rect x="32" y="529" width="243" height="75" rx="10.4829" fill="white"/>
<mask id="mask2_7_2163" style="mask-type:alpha" maskUnits="userSpaceOnUse" x="90" y="529" width="184" height="75">
<rect x="90" y="529.353" width="183.956" height="74.1603" rx="10.4829" fill="white"/>
</mask>
<g mask="url(#mask2_7_2163)">
<path d="M227.008 572.765C193.372 566.414 172.127 550.64 159.463 534.621C171.362 536.415 185.223 537.357 201.325 537.124C288.123 535.866 302.485 594.605 298.816 624.132C299.864 611.727 286.97 584.087 227.008 572.765Z" fill="white"/>
<path d="M143.669 500.958C146.464 520.176 167.046 561.444 227.008 572.765C286.97 584.087 299.864 611.727 298.816 624.132C302.485 594.605 288.123 535.866 201.325 537.124C114.526 538.381 92.8267 505.5 92.8267 488.902" stroke="url(#paint4_linear_7_2163)" stroke-opacity="0.1" stroke-width="1.04829"/>
</g>
<path d="M94.0359 564L90.1614 553.066H92.0253L95.1953 562.4H94.8284L97.9838 553.066H99.8476L95.9732 564H94.0359ZM103.969 564.176C103.177 564.176 102.472 563.995 101.856 563.633C101.249 563.261 100.775 562.762 100.432 562.136C100.09 561.5 99.9186 560.791 99.9186 560.008C99.9186 559.206 100.09 558.496 100.432 557.88C100.784 557.264 101.254 556.779 101.841 556.427C102.428 556.065 103.094 555.884 103.837 555.884C104.434 555.884 104.967 555.987 105.437 556.192C105.906 556.398 106.303 556.682 106.626 557.044C106.948 557.396 107.193 557.802 107.359 558.262C107.535 558.722 107.624 559.211 107.624 559.729C107.624 559.856 107.619 559.989 107.609 560.126C107.599 560.262 107.58 560.39 107.55 560.507H101.225V559.186H106.611L105.818 559.788C105.916 559.309 105.882 558.883 105.716 558.511C105.559 558.13 105.315 557.831 104.982 557.616C104.659 557.391 104.277 557.278 103.837 557.278C103.397 557.278 103.005 557.391 102.663 557.616C102.321 557.831 102.056 558.144 101.871 558.555C101.685 558.956 101.611 559.446 101.65 560.023C101.601 560.561 101.675 561.031 101.871 561.432C102.076 561.833 102.36 562.146 102.722 562.371C103.094 562.596 103.514 562.709 103.984 562.709C104.463 562.709 104.869 562.601 105.202 562.386C105.544 562.17 105.813 561.892 106.009 561.549L107.359 562.21C107.203 562.581 106.958 562.919 106.626 563.222C106.303 563.516 105.911 563.751 105.451 563.927C105.001 564.093 104.507 564.176 103.969 564.176ZM109.242 564V556.06H110.827V557.66L110.68 557.425C110.856 556.907 111.14 556.535 111.532 556.31C111.923 556.075 112.392 555.958 112.94 555.958H113.425V557.469H112.735C112.187 557.469 111.742 557.64 111.399 557.983C111.067 558.315 110.9 558.795 110.9 559.421V564H109.242ZM114.559 564V556.06H116.218V564H114.559ZM114.559 554.974V553.066H116.218V554.974H114.559ZM119.052 564V557.557H117.584V556.06H119.052V555.649C119.052 555.052 119.174 554.554 119.419 554.152C119.663 553.741 120.001 553.428 120.431 553.213C120.872 552.998 121.376 552.89 121.943 552.89C122.051 552.89 122.173 552.9 122.31 552.92C122.447 552.929 122.559 552.944 122.647 552.964V554.402C122.569 554.382 122.481 554.373 122.383 554.373C122.285 554.363 122.207 554.358 122.148 554.358C121.708 554.358 121.356 554.461 121.092 554.666C120.828 554.862 120.696 555.189 120.696 555.649V556.06H124.497V557.557H120.696V564H119.052ZM123.719 564V556.06H125.363V564H123.719ZM130.886 564.176C130.093 564.176 129.389 563.995 128.773 563.633C128.166 563.261 127.682 562.762 127.32 562.136C126.967 561.51 126.791 560.801 126.791 560.008C126.791 559.225 126.967 558.521 127.32 557.895C127.672 557.269 128.156 556.779 128.773 556.427C129.389 556.065 130.093 555.884 130.886 555.884C131.424 555.884 131.928 555.982 132.398 556.178C132.867 556.364 133.273 556.623 133.616 556.955C133.968 557.288 134.227 557.675 134.393 558.115L132.941 558.79C132.774 558.379 132.505 558.051 132.133 557.807C131.771 557.552 131.356 557.425 130.886 557.425C130.436 557.425 130.03 557.538 129.668 557.763C129.316 557.978 129.037 558.286 128.831 558.687C128.626 559.079 128.523 559.524 128.523 560.023C128.523 560.522 128.626 560.972 128.831 561.373C129.037 561.764 129.316 562.073 129.668 562.298C130.03 562.523 130.436 562.635 130.886 562.635C131.365 562.635 131.781 562.513 132.133 562.268C132.495 562.014 132.764 561.676 132.941 561.256L134.393 561.945C134.237 562.366 133.983 562.748 133.63 563.09C133.288 563.423 132.882 563.687 132.412 563.883C131.943 564.078 131.434 564.176 130.886 564.176ZM138.32 564.176C137.782 564.176 137.308 564.083 136.897 563.897C136.496 563.702 136.182 563.437 135.957 563.105C135.732 562.762 135.62 562.361 135.62 561.901C135.62 561.471 135.713 561.084 135.899 560.742C136.094 560.399 136.393 560.111 136.794 559.876C137.195 559.641 137.699 559.475 138.306 559.377L141.065 558.922V560.228L138.628 560.654C138.188 560.732 137.865 560.874 137.66 561.079C137.454 561.275 137.352 561.53 137.352 561.843C137.352 562.146 137.464 562.395 137.689 562.591C137.924 562.777 138.222 562.87 138.584 562.87C139.034 562.87 139.426 562.772 139.758 562.576C140.101 562.381 140.365 562.121 140.551 561.799C140.737 561.466 140.83 561.099 140.83 560.698V558.658C140.83 558.267 140.683 557.949 140.39 557.704C140.106 557.45 139.724 557.322 139.245 557.322C138.805 557.322 138.418 557.44 138.085 557.675C137.763 557.9 137.523 558.193 137.366 558.555L135.987 557.865C136.134 557.474 136.373 557.132 136.706 556.838C137.039 556.535 137.425 556.3 137.865 556.134C138.315 555.967 138.79 555.884 139.289 555.884C139.915 555.884 140.468 556.002 140.947 556.236C141.436 556.471 141.813 556.799 142.077 557.22C142.351 557.631 142.488 558.11 142.488 558.658V564H140.903V562.562L141.241 562.606C141.055 562.929 140.815 563.207 140.522 563.442C140.238 563.677 139.91 563.858 139.538 563.985C139.176 564.113 138.77 564.176 138.32 564.176ZM147.718 564.088C146.887 564.088 146.241 563.853 145.781 563.384C145.321 562.914 145.091 562.254 145.091 561.402V557.557H143.697V556.06H143.917C144.289 556.06 144.578 555.953 144.783 555.737C144.988 555.522 145.091 555.229 145.091 554.857V554.24H146.75V556.06H148.555V557.557H146.75V561.329C146.75 561.603 146.794 561.838 146.882 562.033C146.97 562.219 147.112 562.366 147.307 562.474C147.503 562.572 147.757 562.62 148.07 562.62C148.149 562.62 148.237 562.616 148.335 562.606C148.432 562.596 148.525 562.586 148.613 562.576V564C148.476 564.02 148.325 564.039 148.158 564.059C147.992 564.078 147.845 564.088 147.718 564.088ZM150.232 564V556.06H151.89V564H150.232ZM150.232 554.974V553.066H151.89V554.974H150.232ZM157.66 564.176C156.896 564.176 156.197 563.995 155.561 563.633C154.935 563.271 154.436 562.777 154.064 562.151C153.692 561.525 153.506 560.815 153.506 560.023C153.506 559.22 153.692 558.511 154.064 557.895C154.436 557.269 154.935 556.779 155.561 556.427C156.187 556.065 156.887 555.884 157.66 555.884C158.442 555.884 159.142 556.065 159.758 556.427C160.384 556.779 160.879 557.269 161.241 557.895C161.612 558.511 161.798 559.22 161.798 560.023C161.798 560.825 161.612 561.539 161.241 562.165C160.869 562.792 160.37 563.286 159.744 563.648C159.117 564 158.423 564.176 157.66 564.176ZM157.66 562.635C158.129 562.635 158.545 562.523 158.907 562.298C159.269 562.073 159.553 561.764 159.758 561.373C159.974 560.972 160.081 560.522 160.081 560.023C160.081 559.524 159.974 559.079 159.758 558.687C159.553 558.296 159.269 557.988 158.907 557.763C158.545 557.538 158.129 557.425 157.66 557.425C157.2 557.425 156.784 557.538 156.412 557.763C156.05 557.988 155.762 558.296 155.546 558.687C155.341 559.079 155.238 559.524 155.238 560.023C155.238 560.522 155.341 560.972 155.546 561.373C155.762 561.764 156.05 562.073 156.412 562.298C156.784 562.523 157.2 562.635 157.66 562.635ZM163.417 564V556.06H165.002V557.616L164.812 557.41C165.007 556.911 165.32 556.535 165.751 556.28C166.181 556.016 166.68 555.884 167.248 555.884C167.835 555.884 168.353 556.011 168.803 556.266C169.254 556.52 169.606 556.872 169.86 557.322C170.115 557.772 170.242 558.291 170.242 558.878V564H168.598V559.318C168.598 558.917 168.525 558.58 168.378 558.306C168.231 558.022 168.021 557.807 167.747 557.66C167.483 557.503 167.179 557.425 166.837 557.425C166.494 557.425 166.186 557.503 165.912 557.66C165.648 557.807 165.443 558.022 165.296 558.306C165.149 558.589 165.076 558.927 165.076 559.318V564H163.417ZM177.913 564.176C177.268 564.176 176.7 564.059 176.211 563.824C175.722 563.579 175.335 563.242 175.052 562.811C174.778 562.371 174.641 561.862 174.641 561.285C174.641 560.796 174.729 560.37 174.905 560.008C175.081 559.636 175.301 559.323 175.565 559.069C175.829 558.805 176.094 558.585 176.358 558.408C176.622 558.232 176.842 558.095 177.018 557.997L177.913 557.499C178.207 557.332 178.486 557.156 178.75 556.97C179.014 556.784 179.229 556.574 179.396 556.339C179.562 556.104 179.645 555.84 179.645 555.547C179.645 555.194 179.528 554.901 179.293 554.666C179.058 554.421 178.765 554.299 178.412 554.299C178.06 554.299 177.767 554.417 177.532 554.651C177.297 554.886 177.18 555.189 177.18 555.561C177.18 555.816 177.238 556.065 177.356 556.31C177.483 556.554 177.63 556.784 177.796 557C177.972 557.205 178.143 557.401 178.31 557.587L184.18 564H182.111L177.077 558.585C176.842 558.33 176.607 558.061 176.373 557.777C176.147 557.484 175.957 557.161 175.8 556.809C175.653 556.457 175.58 556.065 175.58 555.635C175.58 555.077 175.707 554.593 175.962 554.182C176.226 553.771 176.568 553.453 176.989 553.228C177.419 553.003 177.889 552.89 178.398 552.89C178.916 552.89 179.386 553.008 179.807 553.242C180.227 553.467 180.56 553.781 180.805 554.182C181.059 554.583 181.186 555.038 181.186 555.547C181.186 556.075 181.064 556.53 180.819 556.911C180.575 557.293 180.276 557.616 179.924 557.88C179.582 558.144 179.259 558.369 178.955 558.555L178.06 559.084C177.825 559.22 177.576 559.392 177.312 559.597C177.057 559.793 176.842 560.028 176.666 560.302C176.49 560.566 176.402 560.884 176.402 561.256C176.402 561.715 176.544 562.073 176.827 562.327C177.121 562.581 177.503 562.709 177.972 562.709C178.276 562.709 178.545 562.66 178.779 562.562C179.014 562.464 179.22 562.337 179.396 562.18C179.582 562.024 179.743 561.852 179.88 561.667C180.027 561.471 180.159 561.29 180.276 561.123L181.979 558.629H183.755L181.788 561.681C181.631 561.916 181.446 562.18 181.23 562.474C181.015 562.757 180.756 563.031 180.452 563.296C180.149 563.55 179.787 563.76 179.366 563.927C178.955 564.093 178.471 564.176 177.913 564.176ZM191.58 564L187.706 553.066H189.57L192.74 562.4H192.373L195.528 553.066H197.392L193.517 564H191.58ZM200.307 564.176C199.768 564.176 199.294 564.083 198.883 563.897C198.482 563.702 198.169 563.437 197.944 563.105C197.719 562.762 197.606 562.361 197.606 561.901C197.606 561.471 197.699 561.084 197.885 560.742C198.081 560.399 198.379 560.111 198.78 559.876C199.181 559.641 199.685 559.475 200.292 559.377L203.051 558.922V560.228L200.615 560.654C200.174 560.732 199.852 560.874 199.646 561.079C199.441 561.275 199.338 561.53 199.338 561.843C199.338 562.146 199.45 562.395 199.675 562.591C199.91 562.777 200.209 562.87 200.571 562.87C201.021 562.87 201.412 562.772 201.745 562.576C202.087 562.381 202.351 562.121 202.537 561.799C202.723 561.466 202.816 561.099 202.816 560.698V558.658C202.816 558.267 202.669 557.949 202.376 557.704C202.092 557.45 201.711 557.322 201.231 557.322C200.791 557.322 200.404 557.44 200.072 557.675C199.749 557.9 199.509 558.193 199.353 558.555L197.973 557.865C198.12 557.474 198.359 557.132 198.692 556.838C199.025 556.535 199.411 556.3 199.852 556.134C200.302 555.967 200.776 555.884 201.275 555.884C201.901 555.884 202.454 556.002 202.934 556.236C203.423 556.471 203.799 556.799 204.064 557.22C204.338 557.631 204.475 558.11 204.475 558.658V564H202.89V562.562L203.227 562.606C203.041 562.929 202.801 563.207 202.508 563.442C202.224 563.677 201.896 563.858 201.525 563.985C201.163 564.113 200.757 564.176 200.307 564.176ZM206.414 564V552.89H208.072V564H206.414ZM210.011 564V556.06H211.669V564H210.011ZM210.011 554.974V553.066H211.669V554.974H210.011ZM217.277 564.176C216.514 564.176 215.829 563.995 215.223 563.633C214.626 563.261 214.151 562.762 213.799 562.136C213.457 561.51 213.285 560.806 213.285 560.023C213.285 559.24 213.462 558.536 213.814 557.909C214.166 557.283 214.641 556.789 215.237 556.427C215.834 556.065 216.509 555.884 217.263 555.884C217.899 555.884 218.461 556.011 218.95 556.266C219.44 556.52 219.826 556.872 220.11 557.322L219.86 557.704V552.89H221.504V564H219.934V562.386L220.124 562.694C219.851 563.173 219.459 563.54 218.95 563.795C218.442 564.049 217.884 564.176 217.277 564.176ZM217.439 562.635C217.899 562.635 218.31 562.523 218.672 562.298C219.043 562.073 219.332 561.764 219.537 561.373C219.753 560.972 219.86 560.522 219.86 560.023C219.86 559.524 219.753 559.079 219.537 558.687C219.332 558.296 219.043 557.988 218.672 557.763C218.31 557.538 217.899 557.425 217.439 557.425C216.979 557.425 216.563 557.538 216.191 557.763C215.819 557.988 215.531 558.296 215.325 558.687C215.12 559.079 215.017 559.524 215.017 560.023C215.017 560.522 215.12 560.972 215.325 561.373C215.531 561.764 215.815 562.073 216.177 562.298C216.548 562.523 216.969 562.635 217.439 562.635ZM225.818 564.176C225.28 564.176 224.805 564.083 224.394 563.897C223.993 563.702 223.68 563.437 223.455 563.105C223.23 562.762 223.117 562.361 223.117 561.901C223.117 561.471 223.21 561.084 223.396 560.742C223.592 560.399 223.89 560.111 224.291 559.876C224.692 559.641 225.196 559.475 225.803 559.377L228.562 558.922V560.228L226.126 560.654C225.686 560.732 225.363 560.874 225.157 561.079C224.952 561.275 224.849 561.53 224.849 561.843C224.849 562.146 224.962 562.395 225.187 562.591C225.421 562.777 225.72 562.87 226.082 562.87C226.532 562.87 226.923 562.772 227.256 562.576C227.598 562.381 227.863 562.121 228.048 561.799C228.234 561.466 228.327 561.099 228.327 560.698V558.658C228.327 558.267 228.18 557.949 227.887 557.704C227.603 557.45 227.222 557.322 226.742 557.322C226.302 557.322 225.915 557.44 225.583 557.675C225.26 557.9 225.02 558.193 224.864 558.555L223.484 557.865C223.631 557.474 223.871 557.132 224.203 556.838C224.536 556.535 224.922 556.3 225.363 556.134C225.813 555.967 226.287 555.884 226.786 555.884C227.412 555.884 227.965 556.002 228.445 556.236C228.934 556.471 229.311 556.799 229.575 557.22C229.849 557.631 229.986 558.11 229.986 558.658V564H228.401V562.562L228.738 562.606C228.552 562.929 228.313 563.207 228.019 563.442C227.735 563.677 227.408 563.858 227.036 563.985C226.674 564.113 226.268 564.176 225.818 564.176ZM235.216 564.088C234.384 564.088 233.738 563.853 233.278 563.384C232.819 562.914 232.589 562.254 232.589 561.402V557.557H231.194V556.06H231.414C231.786 556.06 232.075 555.953 232.28 555.737C232.486 555.522 232.589 555.229 232.589 554.857V554.24H234.247V556.06H236.052V557.557H234.247V561.329C234.247 561.603 234.291 561.838 234.379 562.033C234.467 562.219 234.609 562.366 234.805 562.474C235 562.572 235.255 562.62 235.568 562.62C235.646 562.62 235.734 562.616 235.832 562.606C235.93 562.596 236.023 562.586 236.111 562.576V564C235.974 564.02 235.822 564.039 235.656 564.059C235.49 564.078 235.343 564.088 235.216 564.088ZM237.729 564V556.06H239.388V564H237.729ZM237.729 554.974V553.066H239.388V554.974H237.729ZM245.157 564.176C244.394 564.176 243.694 563.995 243.058 563.633C242.432 563.271 241.933 562.777 241.561 562.151C241.19 561.525 241.004 560.815 241.004 560.023C241.004 559.22 241.19 558.511 241.561 557.895C241.933 557.269 242.432 556.779 243.058 556.427C243.685 556.065 244.384 555.884 245.157 555.884C245.94 555.884 246.639 556.065 247.256 556.427C247.882 556.779 248.376 557.269 248.738 557.895C249.11 558.511 249.296 559.22 249.296 560.023C249.296 560.825 249.11 561.539 248.738 562.165C248.366 562.792 247.867 563.286 247.241 563.648C246.615 564 245.92 564.176 245.157 564.176ZM245.157 562.635C245.627 562.635 246.042 562.523 246.404 562.298C246.767 562.073 247.05 561.764 247.256 561.373C247.471 560.972 247.579 560.522 247.579 560.023C247.579 559.524 247.471 559.079 247.256 558.687C247.05 558.296 246.767 557.988 246.404 557.763C246.042 557.538 245.627 557.425 245.157 557.425C244.697 557.425 244.281 557.538 243.91 557.763C243.548 557.988 243.259 558.296 243.044 558.687C242.838 559.079 242.735 559.524 242.735 560.023C242.735 560.522 242.838 560.972 243.044 561.373C243.259 561.764 243.548 562.073 243.91 562.298C244.281 562.523 244.697 562.635 245.157 562.635ZM250.915 564V556.06H252.5V557.616L252.309 557.41C252.505 556.911 252.818 556.535 253.248 556.28C253.679 556.016 254.178 555.884 254.745 555.884C255.332 555.884 255.851 556.011 256.301 556.266C256.751 556.52 257.103 556.872 257.358 557.322C257.612 557.772 257.739 558.291 257.739 558.878V564H256.095V559.318C256.095 558.917 256.022 558.58 255.875 558.306C255.728 558.022 255.518 557.807 255.244 557.66C254.98 557.503 254.677 557.425 254.334 557.425C253.992 557.425 253.684 557.503 253.41 557.66C253.146 557.807 252.94 558.022 252.793 558.306C252.647 558.589 252.573 558.927 252.573 559.318V564H250.915ZM93.3021 584.348C92.4998 583.409 91.8932 582.382 91.4823 581.266C91.0714 580.151 90.8659 578.962 90.8659 577.7C90.8659 576.428 91.0714 575.234 91.4823 574.119C91.8932 573.004 92.4998 571.986 93.3021 571.066H94.6963C94.0017 572.094 93.4733 573.165 93.1113 574.28C92.7591 575.386 92.583 576.526 92.583 577.7C92.583 578.864 92.7591 580.009 93.1113 581.134C93.4733 582.249 94.0017 583.321 94.6963 584.348H93.3021ZM96.2753 582V571.066H100.252C100.986 571.066 101.632 571.203 102.19 571.477C102.757 571.741 103.197 572.133 103.511 572.651C103.824 573.16 103.98 573.772 103.98 574.486C103.98 575.19 103.819 575.797 103.496 576.306C103.183 576.814 102.747 577.206 102.19 577.48C101.632 577.754 100.986 577.891 100.252 577.891H98.0071V582H96.2753ZM98.0071 576.35H100.297C100.688 576.35 101.03 576.271 101.324 576.115C101.617 575.958 101.847 575.743 102.014 575.469C102.18 575.185 102.263 574.853 102.263 574.471C102.263 574.09 102.18 573.762 102.014 573.488C101.847 573.204 101.617 572.989 101.324 572.842C101.03 572.686 100.688 572.607 100.297 572.607H98.0071V576.35ZM105.367 582V580.753L108.361 577.553C108.948 576.927 109.408 576.423 109.74 576.042C110.083 575.65 110.327 575.308 110.474 575.014C110.631 574.721 110.709 574.412 110.709 574.09C110.709 573.561 110.548 573.155 110.225 572.871C109.902 572.578 109.486 572.431 108.977 572.431C108.449 572.431 107.994 572.583 107.612 572.886C107.231 573.18 106.967 573.61 106.82 574.178L105.293 573.737C105.411 573.16 105.646 572.661 105.998 572.24C106.35 571.81 106.781 571.477 107.289 571.242C107.808 571.008 108.366 570.89 108.963 570.89C109.657 570.89 110.264 571.022 110.782 571.286C111.301 571.541 111.702 571.898 111.986 572.358C112.279 572.818 112.426 573.351 112.426 573.958C112.426 574.359 112.348 574.75 112.191 575.132C112.044 575.503 111.815 575.9 111.501 576.32C111.188 576.731 110.787 577.196 110.298 577.715L107.656 580.532H112.632V582H105.367ZM114.534 582V571.066H118.512C119.245 571.066 119.891 571.203 120.449 571.477C121.016 571.741 121.457 572.133 121.77 572.651C122.083 573.16 122.239 573.772 122.239 574.486C122.239 575.19 122.078 575.797 121.755 576.306C121.442 576.814 121.007 577.206 120.449 577.48C119.891 577.754 119.245 577.891 118.512 577.891H116.266V582H114.534ZM116.266 576.35H118.556C118.947 576.35 119.289 576.271 119.583 576.115C119.876 575.958 120.106 575.743 120.273 575.469C120.439 575.185 120.522 574.853 120.522 574.471C120.522 574.09 120.439 573.762 120.273 573.488C120.106 573.204 119.876 572.989 119.583 572.842C119.289 572.686 118.947 572.607 118.556 572.607H116.266V576.35ZM129.494 582L125.619 571.066H127.483L130.653 580.4H130.286L133.441 571.066H135.305L131.431 582H129.494ZM138.22 582.176C137.682 582.176 137.207 582.083 136.796 581.897C136.395 581.702 136.082 581.437 135.857 581.105C135.632 580.762 135.52 580.361 135.52 579.901C135.52 579.471 135.612 579.084 135.798 578.742C135.994 578.399 136.292 578.111 136.694 577.876C137.095 577.641 137.599 577.475 138.205 577.377L140.964 576.922V578.228L138.528 578.654C138.088 578.732 137.765 578.874 137.559 579.079C137.354 579.275 137.251 579.53 137.251 579.843C137.251 580.146 137.364 580.395 137.589 580.591C137.824 580.777 138.122 580.87 138.484 580.87C138.934 580.87 139.326 580.772 139.658 580.576C140.001 580.381 140.265 580.121 140.451 579.799C140.637 579.466 140.73 579.099 140.73 578.698V576.658C140.73 576.267 140.583 575.949 140.289 575.704C140.006 575.45 139.624 575.322 139.145 575.322C138.704 575.322 138.318 575.44 137.985 575.675C137.662 575.9 137.423 576.193 137.266 576.555L135.886 575.865C136.033 575.474 136.273 575.132 136.606 574.838C136.938 574.535 137.325 574.3 137.765 574.134C138.215 573.967 138.69 573.884 139.189 573.884C139.815 573.884 140.368 574.002 140.847 574.236C141.336 574.471 141.713 574.799 141.977 575.22C142.251 575.631 142.388 576.11 142.388 576.658V582H140.803V580.562L141.14 580.606C140.955 580.929 140.715 581.207 140.421 581.442C140.138 581.677 139.81 581.858 139.438 581.985C139.076 582.113 138.67 582.176 138.22 582.176ZM144.327 582V570.89H145.985V582H144.327ZM147.924 582V574.06H149.583V582H147.924ZM147.924 572.974V571.066H149.583V572.974H147.924ZM155.191 582.176C154.428 582.176 153.743 581.995 153.136 581.633C152.539 581.261 152.065 580.762 151.712 580.136C151.37 579.51 151.199 578.806 151.199 578.023C151.199 577.24 151.375 576.536 151.727 575.909C152.079 575.283 152.554 574.789 153.151 574.427C153.748 574.065 154.423 573.884 155.176 573.884C155.812 573.884 156.375 574.011 156.864 574.266C157.353 574.52 157.739 574.872 158.023 575.322L157.774 575.704V570.89H159.417V582H157.847V580.386L158.038 580.694C157.764 581.173 157.373 581.54 156.864 581.795C156.355 582.049 155.797 582.176 155.191 582.176ZM155.352 580.635C155.812 580.635 156.223 580.523 156.585 580.298C156.957 580.073 157.245 579.764 157.451 579.373C157.666 578.972 157.774 578.522 157.774 578.023C157.774 577.524 157.666 577.079 157.451 576.687C157.245 576.296 156.957 575.988 156.585 575.763C156.223 575.538 155.812 575.425 155.352 575.425C154.892 575.425 154.476 575.538 154.105 575.763C153.733 575.988 153.444 576.296 153.239 576.687C153.033 577.079 152.931 577.524 152.931 578.023C152.931 578.522 153.033 578.972 153.239 579.373C153.444 579.764 153.728 580.073 154.09 580.298C154.462 580.523 154.883 580.635 155.352 580.635ZM163.731 582.176C163.193 582.176 162.718 582.083 162.307 581.897C161.906 581.702 161.593 581.437 161.368 581.105C161.143 580.762 161.031 580.361 161.031 579.901C161.031 579.471 161.124 579.084 161.309 578.742C161.505 578.399 161.804 578.111 162.205 577.876C162.606 577.641 163.11 577.475 163.716 577.377L166.475 576.922V578.228L164.039 578.654C163.599 578.732 163.276 578.874 163.071 579.079C162.865 579.275 162.762 579.53 162.762 579.843C162.762 580.146 162.875 580.395 163.1 580.591C163.335 580.777 163.633 580.87 163.995 580.87C164.445 580.87 164.837 580.772 165.169 580.576C165.512 580.381 165.776 580.121 165.962 579.799C166.148 579.466 166.241 579.099 166.241 578.698V576.658C166.241 576.267 166.094 575.949 165.8 575.704C165.517 575.45 165.135 575.322 164.656 575.322C164.215 575.322 163.829 575.44 163.496 575.675C163.173 575.9 162.934 576.193 162.777 576.555L161.398 575.865C161.544 575.474 161.784 575.132 162.117 574.838C162.449 574.535 162.836 574.3 163.276 574.134C163.726 573.967 164.201 573.884 164.7 573.884C165.326 573.884 165.879 574.002 166.358 574.236C166.847 574.471 167.224 574.799 167.488 575.22C167.762 575.631 167.899 576.11 167.899 576.658V582H166.314V580.562L166.652 580.606C166.466 580.929 166.226 581.207 165.932 581.442C165.649 581.677 165.321 581.858 164.949 581.985C164.587 582.113 164.181 582.176 163.731 582.176ZM173.129 582.088C172.297 582.088 171.652 581.853 171.192 581.384C170.732 580.914 170.502 580.254 170.502 579.402V575.557H169.108V574.06H169.328C169.7 574.06 169.988 573.953 170.194 573.737C170.399 573.522 170.502 573.229 170.502 572.857V572.24H172.16V574.06H173.966V575.557H172.16V579.329C172.16 579.603 172.204 579.838 172.292 580.033C172.381 580.219 172.522 580.366 172.718 580.474C172.914 580.572 173.168 580.62 173.481 580.62C173.559 580.62 173.648 580.616 173.745 580.606C173.843 580.596 173.936 580.586 174.024 580.576V582C173.887 582.02 173.736 582.039 173.569 582.059C173.403 582.078 173.256 582.088 173.129 582.088ZM175.643 582V574.06H177.301V582H175.643ZM175.643 572.974V571.066H177.301V572.974H175.643ZM183.07 582.176C182.307 582.176 181.608 581.995 180.972 581.633C180.346 581.271 179.847 580.777 179.475 580.151C179.103 579.525 178.917 578.815 178.917 578.023C178.917 577.22 179.103 576.511 179.475 575.895C179.847 575.269 180.346 574.779 180.972 574.427C181.598 574.065 182.297 573.884 183.07 573.884C183.853 573.884 184.553 574.065 185.169 574.427C185.795 574.779 186.289 575.269 186.651 575.895C187.023 576.511 187.209 577.22 187.209 578.023C187.209 578.825 187.023 579.539 186.651 580.165C186.28 580.792 185.781 581.286 185.154 581.648C184.528 582 183.834 582.176 183.07 582.176ZM183.07 580.635C183.54 580.635 183.956 580.523 184.318 580.298C184.68 580.073 184.964 579.764 185.169 579.373C185.384 578.972 185.492 578.522 185.492 578.023C185.492 577.524 185.384 577.079 185.169 576.687C184.964 576.296 184.68 575.988 184.318 575.763C183.956 575.538 183.54 575.425 183.07 575.425C182.611 575.425 182.195 575.538 181.823 575.763C181.461 575.988 181.172 576.296 180.957 576.687C180.752 577.079 180.649 577.524 180.649 578.023C180.649 578.522 180.752 578.972 180.957 579.373C181.172 579.764 181.461 580.073 181.823 580.298C182.195 580.523 182.611 580.635 183.07 580.635ZM188.828 582V574.06H190.413V575.616L190.222 575.41C190.418 574.911 190.731 574.535 191.162 574.28C191.592 574.016 192.091 573.884 192.659 573.884C193.246 573.884 193.764 574.011 194.214 574.266C194.664 574.52 195.017 574.872 195.271 575.322C195.525 575.772 195.653 576.291 195.653 576.878V582H194.009V577.318C194.009 576.917 193.935 576.58 193.789 576.306C193.642 576.022 193.432 575.807 193.158 575.66C192.893 575.503 192.59 575.425 192.248 575.425C191.905 575.425 191.597 575.503 191.323 575.66C191.059 575.807 190.853 576.022 190.707 576.306C190.56 576.589 190.487 576.927 190.487 577.318V582H188.828ZM196.914 584.348C197.618 583.321 198.147 582.249 198.499 581.134C198.851 580.009 199.027 578.864 199.027 577.7C199.027 576.526 198.851 575.386 198.499 574.28C198.147 573.165 197.618 572.094 196.914 571.066H198.308C199.12 571.986 199.732 573.004 200.142 574.119C200.553 575.234 200.759 576.428 200.759 577.7C200.759 578.962 200.553 580.151 200.142 581.266C199.732 582.382 199.12 583.409 198.308 584.348H196.914Z" fill="#535353"/>
<circle cx="64.7952" cy="565.971" r="9.95875" fill="#F0F0F0"/>
<path d="M64.7952 556.012C66.7648 556.012 68.6903 556.596 70.328 557.691C71.9657 558.785 73.2421 560.34 73.9959 562.16C74.7496 563.98 74.9468 565.982 74.5626 567.914C74.1783 569.846 73.2298 571.62 71.8371 573.013C70.4443 574.406 68.6698 575.354 66.738 575.738C64.8062 576.123 62.8039 575.925 60.9841 575.172C59.1644 574.418 57.6091 573.141 56.5148 571.504C55.4205 569.866 54.8364 567.941 54.8364 565.971L64.7952 565.971L64.7952 556.012Z" fill="#135B40"/>
<rect x="17" y="403" width="272.563" height="74.1603" rx="10.4829" fill="white"/>
<mask id="mask3_7_2163" style="mask-type:alpha" maskUnits="userSpaceOnUse" x="107" y="403" width="183" height="75">
<rect x="107" y="403" width="182.993" height="74.1603" rx="10.4829" fill="white"/>
</mask>
<g mask="url(#mask3_7_2163)">
<path d="M241.181 443.772C207.545 450.123 186.3 465.897 173.637 481.916C185.535 480.122 199.396 479.18 215.498 479.414C302.296 480.672 316.658 421.932 312.989 392.406C314.037 404.81 301.143 432.45 241.181 443.772Z" fill="white"/>
<path d="M157.842 515.58C160.637 496.361 181.219 455.093 241.181 443.772C301.143 432.45 314.037 404.81 312.989 392.406C316.658 421.932 302.296 480.672 215.498 479.414C128.699 478.156 107 511.037 107 527.635" stroke="url(#paint5_linear_7_2163)" stroke-opacity="0.1" stroke-width="1.04829"/>
</g>
<path d="M79.1301 444.968V434.034H83.1073C83.8411 434.034 84.4868 434.171 85.0445 434.445C85.6022 434.709 86.0376 435.101 86.3507 435.619C86.6736 436.128 86.835 436.739 86.835 437.454C86.835 438.207 86.6442 438.853 86.2626 439.391C85.8908 439.929 85.387 440.32 84.751 440.565L87.2753 444.968H85.3087L82.623 440.198L83.753 440.858H80.8618V444.968H79.1301ZM80.8618 439.317H83.1366C83.5378 439.317 83.8851 439.239 84.1786 439.083C84.4721 438.926 84.6972 438.711 84.8537 438.437C85.02 438.153 85.1032 437.821 85.1032 437.439C85.1032 437.057 85.02 436.73 84.8537 436.456C84.6972 436.172 84.4721 435.957 84.1786 435.81C83.8851 435.653 83.5378 435.575 83.1366 435.575H80.8618V439.317ZM91.8545 445.144C91.062 445.144 90.3576 444.963 89.7412 444.601C89.1346 444.229 88.6601 443.73 88.3176 443.104C87.9752 442.468 87.804 441.759 87.804 440.976C87.804 440.174 87.9752 439.464 88.3176 438.848C88.6698 438.231 89.1395 437.747 89.7265 437.395C90.3136 437.033 90.9789 436.852 91.7225 436.852C92.3193 436.852 92.8525 436.955 93.3222 437.16C93.7918 437.366 94.188 437.649 94.5109 438.011C94.8338 438.364 95.0784 438.77 95.2447 439.229C95.4208 439.689 95.5089 440.178 95.5089 440.697C95.5089 440.824 95.504 440.956 95.4942 441.093C95.4844 441.23 95.4649 441.357 95.4355 441.475H89.1101V440.154H94.4962L93.7037 440.756C93.8016 440.276 93.7673 439.851 93.601 439.479C93.4445 439.097 93.1998 438.799 92.8672 438.584C92.5443 438.359 92.1627 438.246 91.7225 438.246C91.2822 438.246 90.8908 438.359 90.5484 438.584C90.2059 438.799 89.9418 439.112 89.7559 439.523C89.57 439.924 89.4966 440.413 89.5357 440.991C89.4868 441.529 89.5602 441.998 89.7559 442.399C89.9613 442.801 90.2451 443.114 90.6071 443.339C90.9789 443.564 91.3996 443.676 91.8692 443.676C92.3486 443.676 92.7547 443.569 93.0873 443.353C93.4298 443.138 93.6988 442.859 93.8945 442.517L95.2447 443.177C95.0882 443.549 94.8436 443.887 94.5109 444.19C94.188 444.483 93.7967 444.718 93.3368 444.894C92.8868 445.061 92.3927 445.144 91.8545 445.144ZM97.1274 444.968V433.858H98.7858V444.968H97.1274ZM104.452 445.144C103.66 445.144 102.955 444.963 102.339 444.601C101.732 444.229 101.258 443.73 100.916 443.104C100.573 442.468 100.402 441.759 100.402 440.976C100.402 440.174 100.573 439.464 100.916 438.848C101.268 438.231 101.737 437.747 102.324 437.395C102.911 437.033 103.577 436.852 104.32 436.852C104.917 436.852 105.45 436.955 105.92 437.16C106.39 437.366 106.786 437.649 107.109 438.011C107.432 438.364 107.676 438.77 107.843 439.229C108.019 439.689 108.107 440.178 108.107 440.697C108.107 440.824 108.102 440.956 108.092 441.093C108.082 441.23 108.063 441.357 108.033 441.475H101.708V440.154H107.094L106.302 440.756C106.399 440.276 106.365 439.851 106.199 439.479C106.042 439.097 105.798 438.799 105.465 438.584C105.142 438.359 104.761 438.246 104.32 438.246C103.88 438.246 103.489 438.359 103.146 438.584C102.804 438.799 102.54 439.112 102.354 439.523C102.168 439.924 102.094 440.413 102.134 440.991C102.085 441.529 102.158 441.998 102.354 442.399C102.559 442.801 102.843 443.114 103.205 443.339C103.577 443.564 103.997 443.676 104.467 443.676C104.947 443.676 105.353 443.569 105.685 443.353C106.028 443.138 106.297 442.859 106.492 442.517L107.843 443.177C107.686 443.549 107.441 443.887 107.109 444.19C106.786 444.483 106.395 444.718 105.935 444.894C105.485 445.061 104.991 445.144 104.452 445.144ZM112.031 445.144C111.493 445.144 111.018 445.051 110.608 444.865C110.206 444.669 109.893 444.405 109.668 444.073C109.443 443.73 109.331 443.329 109.331 442.869C109.331 442.439 109.424 442.052 109.61 441.71C109.805 441.367 110.104 441.079 110.505 440.844C110.906 440.609 111.41 440.443 112.016 440.345L114.776 439.89V441.196L112.339 441.622C111.899 441.7 111.576 441.842 111.371 442.047C111.165 442.243 111.063 442.497 111.063 442.81C111.063 443.114 111.175 443.363 111.4 443.559C111.635 443.745 111.933 443.838 112.295 443.838C112.745 443.838 113.137 443.74 113.469 443.544C113.812 443.349 114.076 443.089 114.262 442.766C114.448 442.434 114.541 442.067 114.541 441.666V439.626C114.541 439.234 114.394 438.916 114.1 438.672C113.817 438.417 113.435 438.29 112.956 438.29C112.515 438.29 112.129 438.408 111.796 438.642C111.473 438.867 111.234 439.161 111.077 439.523L109.698 438.833C109.844 438.442 110.084 438.099 110.417 437.806C110.749 437.503 111.136 437.268 111.576 437.101C112.026 436.935 112.501 436.852 113 436.852C113.626 436.852 114.179 436.969 114.658 437.204C115.147 437.439 115.524 437.767 115.788 438.187C116.062 438.598 116.199 439.078 116.199 439.626V444.968H114.614V443.53L114.952 443.574C114.766 443.896 114.526 444.175 114.233 444.41C113.949 444.645 113.621 444.826 113.249 444.953C112.887 445.08 112.481 445.144 112.031 445.144ZM121.073 445.144C120.261 445.144 119.547 444.943 118.931 444.542C118.324 444.141 117.899 443.603 117.654 442.928L118.931 442.326C119.146 442.776 119.439 443.133 119.811 443.397C120.193 443.662 120.614 443.794 121.073 443.794C121.465 443.794 121.783 443.706 122.027 443.53C122.272 443.353 122.394 443.114 122.394 442.81C122.394 442.615 122.34 442.458 122.233 442.341C122.125 442.214 121.988 442.111 121.822 442.033C121.665 441.954 121.504 441.896 121.338 441.856L120.09 441.504C119.405 441.309 118.892 441.015 118.549 440.624C118.216 440.223 118.05 439.758 118.05 439.229C118.05 438.75 118.172 438.334 118.417 437.982C118.662 437.62 118.999 437.341 119.43 437.145C119.86 436.95 120.345 436.852 120.883 436.852C121.607 436.852 122.252 437.033 122.82 437.395C123.387 437.747 123.789 438.241 124.023 438.877L122.747 439.479C122.59 439.097 122.34 438.794 121.998 438.569C121.665 438.344 121.289 438.231 120.868 438.231C120.506 438.231 120.217 438.32 120.002 438.496C119.787 438.662 119.679 438.882 119.679 439.156C119.679 439.342 119.728 439.498 119.826 439.626C119.924 439.743 120.051 439.841 120.208 439.919C120.364 439.988 120.526 440.046 120.692 440.095L121.983 440.477C122.639 440.663 123.143 440.956 123.495 441.357C123.847 441.749 124.023 442.218 124.023 442.766C124.023 443.236 123.896 443.652 123.642 444.014C123.397 444.366 123.055 444.645 122.614 444.85C122.174 445.046 121.66 445.144 121.073 445.144ZM125.648 444.968V437.028H127.307V444.968H125.648ZM125.648 435.942V434.034H127.307V435.942H125.648ZM129.246 444.968V437.028H130.831V438.584L130.64 438.378C130.835 437.879 131.149 437.503 131.579 437.248C132.01 436.984 132.509 436.852 133.076 436.852C133.663 436.852 134.182 436.979 134.632 437.233C135.082 437.488 135.434 437.84 135.688 438.29C135.943 438.74 136.07 439.259 136.07 439.846V444.968H134.426V440.286C134.426 439.885 134.353 439.547 134.206 439.273C134.059 438.99 133.849 438.774 133.575 438.628C133.311 438.471 133.008 438.393 132.665 438.393C132.323 438.393 132.014 438.471 131.741 438.628C131.476 438.774 131.271 438.99 131.124 439.273C130.977 439.557 130.904 439.895 130.904 440.286V444.968H129.246ZM141.675 448.197C141.098 448.197 140.565 448.104 140.076 447.918C139.586 447.732 139.166 447.472 138.813 447.14C138.461 446.817 138.197 446.435 138.021 445.995L139.547 445.364C139.684 445.736 139.934 446.044 140.296 446.289C140.668 446.533 141.122 446.656 141.661 446.656C142.081 446.656 142.458 446.572 142.791 446.406C143.123 446.249 143.388 446.015 143.583 445.702C143.779 445.398 143.877 445.031 143.877 444.601V442.81L144.17 443.148C143.896 443.657 143.515 444.043 143.025 444.307C142.546 444.572 142.003 444.704 141.396 444.704C140.663 444.704 140.002 444.532 139.415 444.19C138.828 443.848 138.363 443.378 138.021 442.781C137.688 442.184 137.522 441.514 137.522 440.77C137.522 440.017 137.688 439.347 138.021 438.76C138.363 438.173 138.823 437.708 139.401 437.366C139.978 437.023 140.638 436.852 141.382 436.852C141.988 436.852 142.527 436.984 142.996 437.248C143.476 437.503 143.867 437.874 144.17 438.364L143.95 438.774V437.028H145.52V444.601C145.52 445.286 145.354 445.897 145.021 446.435C144.699 446.983 144.248 447.414 143.671 447.727C143.094 448.04 142.429 448.197 141.675 448.197ZM141.587 443.163C142.028 443.163 142.419 443.06 142.761 442.854C143.104 442.639 143.373 442.355 143.569 442.003C143.774 441.641 143.877 441.235 143.877 440.785C143.877 440.335 143.774 439.929 143.569 439.567C143.363 439.205 143.089 438.921 142.747 438.716C142.404 438.501 142.018 438.393 141.587 438.393C141.137 438.393 140.736 438.501 140.384 438.716C140.032 438.921 139.753 439.205 139.547 439.567C139.352 439.919 139.254 440.325 139.254 440.785C139.254 441.225 139.352 441.627 139.547 441.989C139.753 442.351 140.032 442.639 140.384 442.854C140.736 443.06 141.137 443.163 141.587 443.163ZM153.858 445.144C153.094 445.144 152.395 444.963 151.759 444.601C151.133 444.239 150.634 443.745 150.262 443.119C149.89 442.492 149.704 441.783 149.704 440.991C149.704 440.188 149.89 439.479 150.262 438.863C150.634 438.236 151.133 437.747 151.759 437.395C152.385 437.033 153.085 436.852 153.858 436.852C154.64 436.852 155.34 437.033 155.956 437.395C156.582 437.747 157.077 438.236 157.439 438.863C157.81 439.479 157.996 440.188 157.996 440.991C157.996 441.793 157.81 442.507 157.439 443.133C157.067 443.759 156.568 444.254 155.942 444.616C155.315 444.968 154.621 445.144 153.858 445.144ZM153.858 443.603C154.327 443.603 154.743 443.49 155.105 443.265C155.467 443.04 155.751 442.732 155.956 442.341C156.171 441.94 156.279 441.49 156.279 440.991C156.279 440.492 156.171 440.046 155.956 439.655C155.751 439.264 155.467 438.955 155.105 438.73C154.743 438.505 154.327 438.393 153.858 438.393C153.398 438.393 152.982 438.505 152.61 438.73C152.248 438.955 151.959 439.264 151.744 439.655C151.539 440.046 151.436 440.492 151.436 440.991C151.436 441.49 151.539 441.94 151.744 442.341C151.959 442.732 152.248 443.04 152.61 443.265C152.982 443.49 153.398 443.603 153.858 443.603ZM160.296 444.968V438.525H158.828V437.028H160.296V436.617C160.296 436.02 160.418 435.521 160.662 435.12C160.907 434.709 161.245 434.396 161.675 434.181C162.115 433.966 162.619 433.858 163.187 433.858C163.294 433.858 163.417 433.868 163.554 433.887C163.691 433.897 163.803 433.912 163.891 433.931V435.37C163.813 435.35 163.725 435.34 163.627 435.34C163.529 435.33 163.451 435.326 163.392 435.326C162.952 435.326 162.6 435.428 162.336 435.634C162.071 435.829 161.939 436.157 161.939 436.617V437.028H163.759V438.525H161.939V444.968H160.296ZM173.125 445.144C172.352 445.144 171.633 445.002 170.967 444.718C170.312 444.435 169.739 444.043 169.25 443.544C168.771 443.035 168.394 442.439 168.12 441.754C167.846 441.069 167.709 440.315 167.709 439.494C167.709 438.682 167.841 437.933 168.105 437.248C168.379 436.553 168.761 435.957 169.25 435.458C169.739 434.949 170.312 434.558 170.967 434.284C171.623 434 172.342 433.858 173.125 433.858C173.898 433.858 174.587 433.99 175.194 434.254C175.81 434.518 176.329 434.866 176.75 435.296C177.17 435.717 177.474 436.177 177.659 436.676L176.104 437.41C175.869 436.823 175.492 436.348 174.974 435.986C174.465 435.614 173.849 435.428 173.125 435.428C172.401 435.428 171.76 435.6 171.202 435.942C170.644 436.284 170.209 436.759 169.896 437.366C169.593 437.972 169.441 438.682 169.441 439.494C169.441 440.306 169.593 441.02 169.896 441.636C170.209 442.243 170.644 442.717 171.202 443.06C171.76 443.393 172.401 443.559 173.125 443.559C173.849 443.559 174.465 443.378 174.974 443.016C175.492 442.654 175.869 442.179 176.104 441.592L177.659 442.326C177.474 442.815 177.17 443.275 176.75 443.706C176.329 444.136 175.81 444.483 175.194 444.748C174.587 445.012 173.898 445.144 173.125 445.144ZM182.863 445.144C182.071 445.144 181.366 444.963 180.75 444.601C180.143 444.229 179.669 443.73 179.326 443.104C178.984 442.468 178.813 441.759 178.813 440.976C178.813 440.174 178.984 439.464 179.326 438.848C179.679 438.231 180.148 437.747 180.735 437.395C181.322 437.033 181.988 436.852 182.731 436.852C183.328 436.852 183.861 436.955 184.331 437.16C184.801 437.366 185.197 437.649 185.52 438.011C185.843 438.364 186.087 438.77 186.253 439.229C186.43 439.689 186.518 440.178 186.518 440.697C186.518 440.824 186.513 440.956 186.503 441.093C186.493 441.23 186.474 441.357 186.444 441.475H180.119V440.154H185.505L184.712 440.756C184.81 440.276 184.776 439.851 184.61 439.479C184.453 439.097 184.209 438.799 183.876 438.584C183.553 438.359 183.172 438.246 182.731 438.246C182.291 438.246 181.9 438.359 181.557 438.584C181.215 438.799 180.951 439.112 180.765 439.523C180.579 439.924 180.505 440.413 180.544 440.991C180.496 441.529 180.569 441.998 180.765 442.399C180.97 442.801 181.254 443.114 181.616 443.339C181.988 443.564 182.408 443.676 182.878 443.676C183.357 443.676 183.763 443.569 184.096 443.353C184.439 443.138 184.708 442.859 184.903 442.517L186.253 443.177C186.097 443.549 185.852 443.887 185.52 444.19C185.197 444.483 184.805 444.718 184.346 444.894C183.896 445.061 183.401 445.144 182.863 445.144ZM188.136 444.968V437.028H189.721V438.628L189.574 438.393C189.751 437.874 190.034 437.503 190.426 437.278C190.817 437.043 191.287 436.925 191.835 436.925H192.319V438.437H191.629C191.081 438.437 190.636 438.608 190.294 438.951C189.961 439.283 189.795 439.763 189.795 440.389V444.968H188.136ZM197.031 445.056C196.199 445.056 195.553 444.821 195.094 444.351C194.634 443.882 194.404 443.221 194.404 442.37V438.525H193.01V437.028H193.23C193.602 437.028 193.89 436.92 194.096 436.705C194.301 436.49 194.404 436.196 194.404 435.825V435.208H196.062V437.028H197.867V438.525H196.062V442.297C196.062 442.571 196.106 442.806 196.194 443.001C196.282 443.187 196.424 443.334 196.62 443.441C196.816 443.539 197.07 443.588 197.383 443.588C197.461 443.588 197.549 443.583 197.647 443.574C197.745 443.564 197.838 443.554 197.926 443.544V444.968C197.789 444.987 197.637 445.007 197.471 445.026C197.305 445.046 197.158 445.056 197.031 445.056ZM199.544 444.968V437.028H201.203V444.968H199.544ZM199.544 435.942V434.034H201.203V435.942H199.544ZM204.037 444.968V438.525H202.569V437.028H204.037V436.617C204.037 436.02 204.159 435.521 204.404 435.12C204.649 434.709 204.986 434.396 205.417 434.181C205.857 433.966 206.361 433.858 206.928 433.858C207.036 433.858 207.158 433.868 207.295 433.887C207.432 433.897 207.545 433.912 207.633 433.931V435.37C207.554 435.35 207.466 435.34 207.369 435.34C207.271 435.33 207.192 435.326 207.134 435.326C206.693 435.326 206.341 435.428 206.077 435.634C205.813 435.829 205.681 436.157 205.681 436.617V437.028H209.482V438.525H205.681V444.968H204.037ZM208.704 444.968V437.028H210.348V444.968H208.704ZM215.871 445.144C215.079 445.144 214.374 444.963 213.758 444.601C213.151 444.229 212.667 443.73 212.305 443.104C211.953 442.478 211.777 441.768 211.777 440.976C211.777 440.193 211.953 439.489 212.305 438.863C212.657 438.236 213.141 437.747 213.758 437.395C214.374 437.033 215.079 436.852 215.871 436.852C216.409 436.852 216.913 436.95 217.383 437.145C217.852 437.331 218.258 437.591 218.601 437.923C218.953 438.256 219.212 438.642 219.379 439.083L217.926 439.758C217.759 439.347 217.49 439.019 217.119 438.774C216.757 438.52 216.341 438.393 215.871 438.393C215.421 438.393 215.015 438.505 214.653 438.73C214.301 438.946 214.022 439.254 213.817 439.655C213.611 440.046 213.508 440.492 213.508 440.991C213.508 441.49 213.611 441.94 213.817 442.341C214.022 442.732 214.301 443.04 214.653 443.265C215.015 443.49 215.421 443.603 215.871 443.603C216.351 443.603 216.766 443.481 217.119 443.236C217.481 442.982 217.75 442.644 217.926 442.223L219.379 442.913C219.222 443.334 218.968 443.715 218.616 444.058C218.273 444.391 217.867 444.655 217.397 444.85C216.928 445.046 216.419 445.144 215.871 445.144ZM223.305 445.144C222.767 445.144 222.293 445.051 221.882 444.865C221.481 444.669 221.168 444.405 220.943 444.073C220.718 443.73 220.605 443.329 220.605 442.869C220.605 442.439 220.698 442.052 220.884 441.71C221.08 441.367 221.378 441.079 221.779 440.844C222.18 440.609 222.684 440.443 223.291 440.345L226.05 439.89V441.196L223.614 441.622C223.173 441.7 222.851 441.842 222.645 442.047C222.44 442.243 222.337 442.497 222.337 442.81C222.337 443.114 222.449 443.363 222.674 443.559C222.909 443.745 223.208 443.838 223.57 443.838C224.02 443.838 224.411 443.74 224.744 443.544C225.086 443.349 225.35 443.089 225.536 442.766C225.722 442.434 225.815 442.067 225.815 441.666V439.626C225.815 439.234 225.668 438.916 225.375 438.672C225.091 438.417 224.71 438.29 224.23 438.29C223.79 438.29 223.403 438.408 223.071 438.642C222.748 438.867 222.508 439.161 222.352 439.523L220.972 438.833C221.119 438.442 221.358 438.099 221.691 437.806C222.024 437.503 222.41 437.268 222.851 437.101C223.301 436.935 223.775 436.852 224.274 436.852C224.9 436.852 225.453 436.969 225.933 437.204C226.422 437.439 226.798 437.767 227.063 438.187C227.337 438.598 227.473 439.078 227.473 439.626V444.968H225.888V443.53L226.226 443.574C226.04 443.896 225.8 444.175 225.507 444.41C225.223 444.645 224.895 444.826 224.524 444.953C224.162 445.08 223.756 445.144 223.305 445.144ZM232.703 445.056C231.872 445.056 231.226 444.821 230.766 444.351C230.306 443.882 230.076 443.221 230.076 442.37V438.525H228.682V437.028H228.902C229.274 437.028 229.563 436.92 229.768 436.705C229.974 436.49 230.076 436.196 230.076 435.825V435.208H231.735V437.028H233.54V438.525H231.735V442.297C231.735 442.571 231.779 442.806 231.867 443.001C231.955 443.187 232.097 443.334 232.293 443.441C232.488 443.539 232.743 443.588 233.056 443.588C233.134 443.588 233.222 443.583 233.32 443.574C233.418 443.564 233.511 443.554 233.599 443.544V444.968C233.462 444.987 233.31 445.007 233.144 445.026C232.977 445.046 232.831 445.056 232.703 445.056ZM235.217 444.968V437.028H236.875V444.968H235.217ZM235.217 435.942V434.034H236.875V435.942H235.217ZM242.645 445.144C241.882 445.144 241.182 444.963 240.546 444.601C239.92 444.239 239.421 443.745 239.049 443.119C238.677 442.492 238.492 441.783 238.492 440.991C238.492 440.188 238.677 439.479 239.049 438.863C239.421 438.236 239.92 437.747 240.546 437.395C241.172 437.033 241.872 436.852 242.645 436.852C243.428 436.852 244.127 437.033 244.744 437.395C245.37 437.747 245.864 438.236 246.226 438.863C246.598 439.479 246.784 440.188 246.784 440.991C246.784 441.793 246.598 442.507 246.226 443.133C245.854 443.759 245.355 444.254 244.729 444.616C244.103 444.968 243.408 445.144 242.645 445.144ZM242.645 443.603C243.115 443.603 243.53 443.49 243.892 443.265C244.254 443.04 244.538 442.732 244.744 442.341C244.959 441.94 245.066 441.49 245.066 440.991C245.066 440.492 244.959 440.046 244.744 439.655C244.538 439.264 244.254 438.955 243.892 438.73C243.53 438.505 243.115 438.393 242.645 438.393C242.185 438.393 241.769 438.505 241.397 438.73C241.035 438.955 240.747 439.264 240.532 439.655C240.326 440.046 240.223 440.492 240.223 440.991C240.223 441.49 240.326 441.94 240.532 442.341C240.747 442.732 241.035 443.04 241.397 443.265C241.769 443.49 242.185 443.603 242.645 443.603ZM248.403 444.968V437.028H249.988V438.584L249.797 438.378C249.992 437.879 250.306 437.503 250.736 437.248C251.167 436.984 251.666 436.852 252.233 436.852C252.82 436.852 253.339 436.979 253.789 437.233C254.239 437.488 254.591 437.84 254.845 438.29C255.1 438.74 255.227 439.259 255.227 439.846V444.968H253.583V440.286C253.583 439.885 253.51 439.547 253.363 439.273C253.216 438.99 253.006 438.774 252.732 438.628C252.468 438.471 252.165 438.393 251.822 438.393C251.48 438.393 251.171 438.471 250.898 438.628C250.633 438.774 250.428 438.99 250.281 439.273C250.134 439.557 250.061 439.895 250.061 440.286V444.968H248.403Z" fill="#535353"/>
<circle cx="50.0955" cy="439.618" r="9.95875" fill="#135B40"/>
<path d="M152.149 281.851C152.619 282.321 153.381 282.321 153.851 281.851L161.513 274.19C161.983 273.72 161.983 272.957 161.513 272.487C161.043 272.017 160.28 272.017 159.81 272.487L153 279.297L146.19 272.487C145.72 272.017 144.957 272.017 144.487 272.487C144.017 272.957 144.017 273.72 144.487 274.19L152.149 281.851ZM154.204 228C154.204 227.335 153.665 226.796 153 226.796C152.335 226.796 151.796 227.335 151.796 228L154.204 228ZM154.204 281L154.204 228L151.796 228L151.796 281L154.204 281Z" fill="url(#paint6_linear_7_2163)"/>
<path d="M152.149 403.851C152.619 404.321 153.381 404.321 153.851 403.851L161.513 396.19C161.983 395.72 161.983 394.957 161.513 394.487C161.043 394.017 160.28 394.017 159.81 394.487L153 401.297L146.19 394.487C145.72 394.017 144.957 394.017 144.487 394.487C144.017 394.957 144.017 395.72 144.487 396.19L152.149 403.851ZM154.204 351.634C154.204 350.969 153.665 350.43 153 350.43C152.335 350.43 151.796 350.969 151.796 351.634L154.204 351.634ZM154.204 403L154.204 351.634L151.796 351.634L151.796 403L154.204 403Z" fill="url(#paint7_linear_7_2163)"/>
<path d="M152.149 529.851C152.619 530.321 153.381 530.321 153.851 529.851L161.513 522.19C161.983 521.72 161.983 520.957 161.513 520.487C161.043 520.017 160.28 520.017 159.81 520.487L153 527.297L146.19 520.487C145.72 520.017 144.957 520.017 144.487 520.487C144.017 520.957 144.017 521.72 144.487 522.19L152.149 529.851ZM154.204 477.634C154.204 476.969 153.665 476.43 153 476.43C152.335 476.43 151.796 476.969 151.796 477.634L154.204 477.634ZM154.204 529L154.204 477.634L151.796 477.634L151.796 529L154.204 529Z" fill="url(#paint8_linear_7_2163)"/>
<defs>
<linearGradient id="paint0_linear_7_2163" x1="309.642" y1="159.501" x2="240.105" y2="28.2761" gradientUnits="userSpaceOnUse">
<stop stop-color="#FAFAFA"/>
<stop offset="1" stop-color="#FAFAFA" stop-opacity="0"/>
</linearGradient>
<linearGradient id="paint1_linear_7_2163" x1="2.34475" y1="159.186" x2="72.9543" y2="30.5225" gradientUnits="userSpaceOnUse">
<stop stop-color="#FAFAFA"/>
<stop offset="1" stop-color="#FAFAFA" stop-opacity="0"/>
</linearGradient>
<linearGradient id="paint2_linear_7_2163" x1="293.774" y1="132.305" x2="177.076" y2="339.9" gradientUnits="userSpaceOnUse">
<stop stop-color="#061A2E"/>
<stop offset="1" stop-color="#061A2E" stop-opacity="0"/>
</linearGradient>
<linearGradient id="paint3_linear_7_2163" x1="332.419" y1="394.732" x2="215.721" y2="187.136" gradientUnits="userSpaceOnUse">
<stop stop-color="#061A2E"/>
<stop offset="1" stop-color="#061A2E" stop-opacity="0"/>
</linearGradient>
<linearGradient id="paint4_linear_7_2163" x1="325.601" y1="623.823" x2="208.903" y2="416.228" gradientUnits="userSpaceOnUse">
<stop stop-color="#061A2E"/>
<stop offset="1" stop-color="#061A2E" stop-opacity="0"/>
</linearGradient>
<linearGradient id="paint5_linear_7_2163" x1="339.774" y1="392.714" x2="223.076" y2="600.31" gradientUnits="userSpaceOnUse">
<stop stop-color="#061A2E"/>
<stop offset="1" stop-color="#061A2E" stop-opacity="0"/>
</linearGradient>
<linearGradient id="paint6_linear_7_2163" x1="153.5" y1="226.394" x2="153.5" y2="284.365" gradientUnits="userSpaceOnUse">
<stop offset="0.0001" stop-color="#061A2E" stop-opacity="0"/>
<stop offset="1" stop-color="white"/>
</linearGradient>
<linearGradient id="paint7_linear_7_2163" x1="153.5" y1="350.077" x2="153.5" y2="406.261" gradientUnits="userSpaceOnUse">
<stop offset="0.0001" stop-color="#061A2E" stop-opacity="0"/>
<stop offset="1" stop-color="white"/>
</linearGradient>
<linearGradient id="paint8_linear_7_2163" x1="153.5" y1="476.077" x2="153.5" y2="532.261" gradientUnits="userSpaceOnUse">
<stop offset="0.0001" stop-color="#061A2E" stop-opacity="0"/>
<stop offset="1" stop-color="white"/>
</linearGradient>
</defs>
</svg>
