<svg width="359" height="19" viewBox="0 0 359 19" fill="none" xmlns="http://www.w3.org/2000/svg">
<path d="M38.36 16.18C37.57 16.18 36.835 16.035 36.155 15.745C35.485 15.455 34.9 15.055 34.4 14.545C33.91 14.025 33.525 13.415 33.245 12.715C32.965 12.015 32.825 11.245 32.825 10.405C32.825 9.575 32.96 8.81 33.23 8.11C33.51 7.4 33.9 6.79 34.4 6.28C34.9 5.76 35.485 5.36 36.155 5.08C36.825 4.79 37.56 4.645 38.36 4.645C39.15 4.645 39.855 4.78 40.475 5.05C41.105 5.32 41.635 5.675 42.065 6.115C42.495 6.545 42.805 7.015 42.995 7.525L41.405 8.275C41.165 7.675 40.78 7.19 40.25 6.82C39.73 6.44 39.1 6.25 38.36 6.25C37.62 6.25 36.965 6.425 36.395 6.775C35.825 7.125 35.38 7.61 35.06 8.23C34.75 8.85 34.595 9.575 34.595 10.405C34.595 11.235 34.75 11.965 35.06 12.595C35.38 13.215 35.825 13.7 36.395 14.05C36.965 14.39 37.62 14.56 38.36 14.56C39.1 14.56 39.73 14.375 40.25 14.005C40.78 13.635 41.165 13.15 41.405 12.55L42.995 13.3C42.805 13.8 42.495 14.27 42.065 14.71C41.635 15.15 41.105 15.505 40.475 15.775C39.855 16.045 39.15 16.18 38.36 16.18ZM47.8152 16V4.825H55.1802V6.4H49.5852V9.61H54.8802V11.185H49.5852V14.425H55.1802V16H47.8152ZM59.8239 16V4.825H61.4739L65.6739 10.645H64.8489L68.9739 4.825H70.6239V16H68.8689V6.91L69.5289 7.09L65.3139 12.85H65.1339L61.0089 7.09L61.5939 6.91V16H59.8239ZM75.9343 16V4.825H83.2993V6.4H77.7043V9.61H82.9993V11.185H77.7043V14.425H83.2993V16H75.9343ZM87.9431 16V4.825H89.3681L95.6381 13.48L94.9631 13.585V4.825H96.7181V16H95.2931L89.0681 7.285L89.7131 7.165V16H87.9431ZM104.012 16V6.4H101.042V4.825H108.692V6.4H105.767V16H104.012ZM117.647 16L121.577 4.825H123.767L127.697 16H125.807L124.952 13.495H120.407L119.537 16H117.647ZM120.917 11.92H124.412L122.432 6.07H122.927L120.917 11.92ZM132.023 16V4.825H133.448L139.718 13.48L139.043 13.585V4.825H140.798V16H139.373L133.148 7.285L133.793 7.165V16H132.023ZM146.112 16V4.825H149.772C150.932 4.825 151.937 5.06 152.787 5.53C153.647 5.99 154.312 6.64 154.782 7.48C155.252 8.32 155.487 9.295 155.487 10.405C155.487 11.505 155.252 12.48 154.782 13.33C154.312 14.17 153.647 14.825 152.787 15.295C151.937 15.765 150.932 16 149.772 16H146.112ZM147.882 14.425H149.802C150.592 14.425 151.277 14.26 151.857 13.93C152.447 13.6 152.902 13.135 153.222 12.535C153.542 11.935 153.702 11.225 153.702 10.405C153.702 9.585 153.537 8.88 153.207 8.29C152.887 7.69 152.437 7.225 151.857 6.895C151.277 6.565 150.592 6.4 149.802 6.4H147.882V14.425ZM169.767 16.18C169.067 16.18 168.417 16.05 167.817 15.79C167.217 15.52 166.707 15.155 166.287 14.695C165.867 14.235 165.557 13.705 165.357 13.105L166.857 12.475C167.127 13.165 167.522 13.695 168.042 14.065C168.562 14.435 169.162 14.62 169.842 14.62C170.242 14.62 170.592 14.56 170.892 14.44C171.192 14.31 171.422 14.13 171.582 13.9C171.752 13.67 171.837 13.405 171.837 13.105C171.837 12.695 171.722 12.37 171.492 12.13C171.262 11.89 170.922 11.7 170.472 11.56L168.372 10.9C167.532 10.64 166.892 10.245 166.452 9.715C166.012 9.175 165.792 8.545 165.792 7.825C165.792 7.195 165.947 6.645 166.257 6.175C166.567 5.695 166.992 5.32 167.532 5.05C168.082 4.78 168.707 4.645 169.407 4.645C170.077 4.645 170.687 4.765 171.237 5.005C171.787 5.235 172.257 5.555 172.647 5.965C173.047 6.375 173.337 6.85 173.517 7.39L172.047 8.035C171.827 7.445 171.482 6.99 171.012 6.67C170.552 6.35 170.017 6.19 169.407 6.19C169.037 6.19 168.712 6.255 168.432 6.385C168.152 6.505 167.932 6.685 167.772 6.925C167.622 7.155 167.547 7.425 167.547 7.735C167.547 8.095 167.662 8.415 167.892 8.695C168.122 8.975 168.472 9.185 168.942 9.325L170.892 9.94C171.782 10.21 172.452 10.6 172.902 11.11C173.352 11.61 173.577 12.235 173.577 12.985C173.577 13.605 173.412 14.155 173.082 14.635C172.762 15.115 172.317 15.495 171.747 15.775C171.177 16.045 170.517 16.18 169.767 16.18ZM180.544 16V6.4H177.574V4.825H185.224V6.4H182.299V16H180.544ZM189.548 16V4.825H196.913V6.4H191.318V9.61H196.613V11.185H191.318V14.425H196.913V16H189.548ZM201.556 16V4.825H208.921V6.4H203.326V9.61H208.621V11.185H203.326V14.425H208.921V16H201.556ZM213.565 16V4.825H215.335V14.425H220.165V16H213.565ZM230.273 16V4.825H234.338C235.088 4.825 235.748 4.965 236.318 5.245C236.898 5.515 237.348 5.915 237.668 6.445C237.988 6.965 238.148 7.59 238.148 8.32C238.148 9.04 237.983 9.66 237.653 10.18C237.333 10.7 236.888 11.1 236.318 11.38C235.748 11.66 235.088 11.8 234.338 11.8H232.043V16H230.273ZM232.043 10.225H234.383C234.783 10.225 235.133 10.145 235.433 9.985C235.733 9.825 235.968 9.605 236.138 9.325C236.308 9.035 236.393 8.695 236.393 8.305C236.393 7.915 236.308 7.58 236.138 7.3C235.968 7.01 235.733 6.79 235.433 6.64C235.133 6.48 234.783 6.4 234.383 6.4H232.043V10.225ZM242.97 16V4.825H247.035C247.785 4.825 248.445 4.965 249.015 5.245C249.585 5.515 250.03 5.915 250.35 6.445C250.68 6.965 250.845 7.59 250.845 8.32C250.845 9.09 250.65 9.75 250.26 10.3C249.88 10.85 249.365 11.25 248.715 11.5L251.295 16H249.285L246.54 11.125L247.695 11.8H244.74V16H242.97ZM244.74 10.225H247.065C247.475 10.225 247.83 10.145 248.13 9.985C248.43 9.825 248.66 9.605 248.82 9.325C248.99 9.035 249.075 8.695 249.075 8.305C249.075 7.915 248.99 7.58 248.82 7.3C248.66 7.01 248.43 6.79 248.13 6.64C247.83 6.48 247.475 6.4 247.065 6.4H244.74V10.225ZM261.215 16.18C260.405 16.18 259.65 16.035 258.95 15.745C258.26 15.455 257.65 15.05 257.12 14.53C256.6 14.01 256.19 13.4 255.89 12.7C255.6 12 255.455 11.235 255.455 10.405C255.455 9.575 255.6 8.81 255.89 8.11C256.19 7.4 256.6 6.79 257.12 6.28C257.64 5.76 258.25 5.36 258.95 5.08C259.65 4.79 260.405 4.645 261.215 4.645C262.035 4.645 262.79 4.79 263.48 5.08C264.18 5.36 264.79 5.76 265.31 6.28C265.84 6.8 266.25 7.41 266.54 8.11C266.83 8.81 266.975 9.575 266.975 10.405C266.975 11.235 266.825 12 266.525 12.7C266.235 13.4 265.83 14.01 265.31 14.53C264.79 15.05 264.18 15.455 263.48 15.745C262.78 16.035 262.025 16.18 261.215 16.18ZM261.215 14.56C261.795 14.56 262.325 14.455 262.805 14.245C263.295 14.035 263.72 13.745 264.08 13.375C264.44 12.995 264.72 12.555 264.92 12.055C265.12 11.545 265.22 10.995 265.22 10.405C265.22 9.815 265.12 9.27 264.92 8.77C264.72 8.27 264.44 7.83 264.08 7.45C263.72 7.07 263.295 6.775 262.805 6.565C262.325 6.355 261.795 6.25 261.215 6.25C260.635 6.25 260.1 6.355 259.61 6.565C259.13 6.775 258.71 7.07 258.35 7.45C257.99 7.83 257.71 8.27 257.51 8.77C257.32 9.27 257.225 9.815 257.225 10.405C257.225 10.995 257.32 11.545 257.51 12.055C257.71 12.555 257.99 12.995 258.35 13.375C258.71 13.745 259.135 14.035 259.625 14.245C260.115 14.455 260.645 14.56 261.215 14.56ZM271.954 16V4.825H275.614C276.774 4.825 277.779 5.06 278.629 5.53C279.489 5.99 280.154 6.64 280.624 7.48C281.094 8.32 281.329 9.295 281.329 10.405C281.329 11.505 281.094 12.48 280.624 13.33C280.154 14.17 279.489 14.825 278.629 15.295C277.779 15.765 276.774 16 275.614 16H271.954ZM273.724 14.425H275.644C276.434 14.425 277.119 14.26 277.699 13.93C278.289 13.6 278.744 13.135 279.064 12.535C279.384 11.935 279.544 11.225 279.544 10.405C279.544 9.585 279.379 8.88 279.049 8.29C278.729 7.69 278.279 7.225 277.699 6.895C277.119 6.565 276.434 6.4 275.644 6.4H273.724V14.425ZM290.257 16.18C289.427 16.18 288.687 16.005 288.037 15.655C287.397 15.305 286.892 14.825 286.522 14.215C286.162 13.605 285.982 12.91 285.982 12.13V4.825H287.752V12.055C287.752 12.545 287.857 12.98 288.067 13.36C288.287 13.74 288.582 14.035 288.952 14.245C289.332 14.455 289.767 14.56 290.257 14.56C290.757 14.56 291.192 14.455 291.562 14.245C291.942 14.035 292.237 13.74 292.447 13.36C292.667 12.98 292.777 12.545 292.777 12.055V4.825H294.532V12.13C294.532 12.91 294.352 13.605 293.992 14.215C293.632 14.825 293.127 15.305 292.477 15.655C291.837 16.005 291.097 16.18 290.257 16.18ZM304.956 16.18C304.166 16.18 303.431 16.035 302.751 15.745C302.081 15.455 301.496 15.055 300.996 14.545C300.506 14.025 300.121 13.415 299.841 12.715C299.561 12.015 299.421 11.245 299.421 10.405C299.421 9.575 299.556 8.81 299.826 8.11C300.106 7.4 300.496 6.79 300.996 6.28C301.496 5.76 302.081 5.36 302.751 5.08C303.421 4.79 304.156 4.645 304.956 4.645C305.746 4.645 306.451 4.78 307.071 5.05C307.701 5.32 308.231 5.675 308.661 6.115C309.091 6.545 309.401 7.015 309.591 7.525L308.001 8.275C307.761 7.675 307.376 7.19 306.846 6.82C306.326 6.44 305.696 6.25 304.956 6.25C304.216 6.25 303.561 6.425 302.991 6.775C302.421 7.125 301.976 7.61 301.656 8.23C301.346 8.85 301.191 9.575 301.191 10.405C301.191 11.235 301.346 11.965 301.656 12.595C301.976 13.215 302.421 13.7 302.991 14.05C303.561 14.39 304.216 14.56 304.956 14.56C305.696 14.56 306.326 14.375 306.846 14.005C307.376 13.635 307.761 13.15 308.001 12.55L309.591 13.3C309.401 13.8 309.091 14.27 308.661 14.71C308.231 15.15 307.701 15.505 307.071 15.775C306.451 16.045 305.746 16.18 304.956 16.18ZM316.391 16V6.4H313.421V4.825H321.071V6.4H318.146V16H316.391ZM325.394 16V4.825H327.164V16H325.394ZM337.911 16.18C337.101 16.18 336.346 16.035 335.646 15.745C334.956 15.455 334.346 15.05 333.816 14.53C333.296 14.01 332.886 13.4 332.586 12.7C332.296 12 332.151 11.235 332.151 10.405C332.151 9.575 332.296 8.81 332.586 8.11C332.886 7.4 333.296 6.79 333.816 6.28C334.336 5.76 334.946 5.36 335.646 5.08C336.346 4.79 337.101 4.645 337.911 4.645C338.731 4.645 339.486 4.79 340.176 5.08C340.876 5.36 341.486 5.76 342.006 6.28C342.536 6.8 342.946 7.41 343.236 8.11C343.526 8.81 343.671 9.575 343.671 10.405C343.671 11.235 343.521 12 343.221 12.7C342.931 13.4 342.526 14.01 342.006 14.53C341.486 15.05 340.876 15.455 340.176 15.745C339.476 16.035 338.721 16.18 337.911 16.18ZM337.911 14.56C338.491 14.56 339.021 14.455 339.501 14.245C339.991 14.035 340.416 13.745 340.776 13.375C341.136 12.995 341.416 12.555 341.616 12.055C341.816 11.545 341.916 10.995 341.916 10.405C341.916 9.815 341.816 9.27 341.616 8.77C341.416 8.27 341.136 7.83 340.776 7.45C340.416 7.07 339.991 6.775 339.501 6.565C339.021 6.355 338.491 6.25 337.911 6.25C337.331 6.25 336.796 6.355 336.306 6.565C335.826 6.775 335.406 7.07 335.046 7.45C334.686 7.83 334.406 8.27 334.206 8.77C334.016 9.27 333.921 9.815 333.921 10.405C333.921 10.995 334.016 11.545 334.206 12.055C334.406 12.555 334.686 12.995 335.046 13.375C335.406 13.745 335.831 14.035 336.321 14.245C336.811 14.455 337.341 14.56 337.911 14.56ZM348.65 16V4.825H350.075L356.345 13.48L355.67 13.585V4.825H357.425V16H356L349.775 7.285L350.42 7.165V16H348.65Z" fill="#F2F4E8"/>
<path d="M5 13V13.01M15 15C15 15.5304 15.2107 16.0391 15.5858 16.4142C15.9609 16.7893 16.4696 17 17 17C17.5304 17 18.0391 16.7893 18.4142 16.4142C18.7893 16.0391 19 15.5304 19 15C19 14.4696 18.7893 13.9609 18.4142 13.5858C18.0391 13.2107 17.5304 13 17 13C16.4696 13 15.9609 13.2107 15.5858 13.5858C15.2107 13.9609 15 14.4696 15 15ZM15 15H8.5M1 13C1 14.0609 1.42143 15.0783 2.17157 15.8284C2.92172 16.5786 3.93913 17 5 17C6.06087 17 7.07828 16.5786 7.82843 15.8284C8.57857 15.0783 9 14.0609 9 13C9 11.9391 8.57857 10.9217 7.82843 10.1716C7.07828 9.42143 6.06087 9 5 9C3.93913 9 2.92172 9.42143 2.17157 10.1716C1.42143 10.9217 1 11.9391 1 13Z" stroke="#F2F4E8" stroke-linecap="round" stroke-linejoin="round"/>
<path d="M18 13.2V9C18 8.73478 17.8946 8.48043 17.7071 8.29289C17.5196 8.10536 17.2652 8 17 8H11L9 3H3V9.5" stroke="#F2F4E8" stroke-linecap="round" stroke-linejoin="round"/>
<path d="M16 3H15C14.7348 3 14.4804 3.10536 14.2929 3.29289C14.1054 3.48043 14 3.73478 14 4V8" stroke="#F2F4E8" stroke-linecap="round" stroke-linejoin="round"/>
</svg>
