<svg width="231" height="20" viewBox="0 0 231 20" fill="none" xmlns="http://www.w3.org/2000/svg">
<path d="M30.155 16V4.825H34.22C34.97 4.825 35.63 4.965 36.2 5.245C36.78 5.515 37.23 5.915 37.55 6.445C37.87 6.965 38.03 7.59 38.03 8.32C38.03 9.04 37.865 9.66 37.535 10.18C37.215 10.7 36.77 11.1 36.2 11.38C35.63 11.66 34.97 11.8 34.22 11.8H31.925V16H30.155ZM31.925 10.225H34.265C34.665 10.225 35.015 10.145 35.315 9.985C35.615 9.825 35.85 9.605 36.02 9.325C36.19 9.035 36.275 8.695 36.275 8.305C36.275 7.915 36.19 7.58 36.02 7.3C35.85 7.01 35.615 6.79 35.315 6.64C35.015 6.48 34.665 6.4 34.265 6.4H31.925V10.225ZM48.2823 16.18C47.4723 16.18 46.7173 16.035 46.0173 15.745C45.3273 15.455 44.7173 15.05 44.1873 14.53C43.6673 14.01 43.2573 13.4 42.9573 12.7C42.6673 12 42.5223 11.235 42.5223 10.405C42.5223 9.575 42.6673 8.81 42.9573 8.11C43.2573 7.4 43.6673 6.79 44.1873 6.28C44.7073 5.76 45.3173 5.36 46.0173 5.08C46.7173 4.79 47.4723 4.645 48.2823 4.645C49.1023 4.645 49.8573 4.79 50.5473 5.08C51.2473 5.36 51.8573 5.76 52.3773 6.28C52.9073 6.8 53.3173 7.41 53.6073 8.11C53.8973 8.81 54.0423 9.575 54.0423 10.405C54.0423 11.235 53.8923 12 53.5923 12.7C53.3023 13.4 52.8973 14.01 52.3773 14.53C51.8573 15.05 51.2473 15.455 50.5473 15.745C49.8473 16.035 49.0923 16.18 48.2823 16.18ZM48.2823 14.56C48.8623 14.56 49.3923 14.455 49.8723 14.245C50.3623 14.035 50.7873 13.745 51.1473 13.375C51.5073 12.995 51.7873 12.555 51.9873 12.055C52.1873 11.545 52.2873 10.995 52.2873 10.405C52.2873 9.815 52.1873 9.27 51.9873 8.77C51.7873 8.27 51.5073 7.83 51.1473 7.45C50.7873 7.07 50.3623 6.775 49.8723 6.565C49.3923 6.355 48.8623 6.25 48.2823 6.25C47.7023 6.25 47.1673 6.355 46.6773 6.565C46.1973 6.775 45.7773 7.07 45.4173 7.45C45.0573 7.83 44.7773 8.27 44.5773 8.77C44.3873 9.27 44.2923 9.815 44.2923 10.405C44.2923 10.995 44.3873 11.545 44.5773 12.055C44.7773 12.555 45.0573 12.995 45.4173 13.375C45.7773 13.745 46.2023 14.035 46.6923 14.245C47.1823 14.455 47.7123 14.56 48.2823 14.56ZM60.8132 16L57.7382 4.825H59.6132L62.1032 14.5H61.6382L64.2182 4.825H66.0632L68.6432 14.5H68.1632L70.6682 4.825H72.5282L69.4682 16H67.4732L64.8782 6.475H65.4032L62.7932 16H60.8132ZM76.8454 16V4.825H84.2104V6.4H78.6154V9.61H83.9104V11.185H78.6154V14.425H84.2104V16H76.8454ZM88.8542 16V4.825H92.9192C93.6692 4.825 94.3292 4.965 94.8992 5.245C95.4692 5.515 95.9142 5.915 96.2342 6.445C96.5642 6.965 96.7292 7.59 96.7292 8.32C96.7292 9.09 96.5342 9.75 96.1442 10.3C95.7642 10.85 95.2492 11.25 94.5992 11.5L97.1792 16H95.1692L92.4242 11.125L93.5792 11.8H90.6242V16H88.8542ZM90.6242 10.225H92.9492C93.3592 10.225 93.7142 10.145 94.0142 9.985C94.3142 9.825 94.5442 9.605 94.7042 9.325C94.8742 9.035 94.9592 8.695 94.9592 8.305C94.9592 7.915 94.8742 7.58 94.7042 7.3C94.5442 7.01 94.3142 6.79 94.0142 6.64C93.7142 6.48 93.3592 6.4 92.9492 6.4H90.6242V10.225ZM112.526 16.18C111.736 16.18 111.001 16.035 110.321 15.745C109.651 15.455 109.061 15.055 108.551 14.545C108.051 14.025 107.661 13.415 107.381 12.715C107.101 12.015 106.961 11.245 106.961 10.405C106.961 9.575 107.096 8.81 107.366 8.11C107.646 7.4 108.036 6.79 108.536 6.28C109.036 5.76 109.621 5.36 110.291 5.08C110.961 4.79 111.696 4.645 112.496 4.645C113.286 4.645 113.991 4.78 114.611 5.05C115.241 5.32 115.771 5.675 116.201 6.115C116.631 6.545 116.941 7.015 117.131 7.525L115.556 8.29C115.326 7.68 114.946 7.19 114.416 6.82C113.886 6.44 113.246 6.25 112.496 6.25C111.756 6.25 111.101 6.425 110.531 6.775C109.961 7.125 109.516 7.61 109.196 8.23C108.886 8.85 108.731 9.575 108.731 10.405C108.731 11.235 108.891 11.965 109.211 12.595C109.541 13.215 109.991 13.7 110.561 14.05C111.131 14.39 111.786 14.56 112.526 14.56C113.146 14.56 113.711 14.435 114.221 14.185C114.741 13.925 115.156 13.565 115.466 13.105C115.776 12.635 115.931 12.09 115.931 11.47V10.705L116.726 11.425H112.496V9.925H117.686V10.975C117.686 11.795 117.546 12.53 117.266 13.18C116.986 13.82 116.606 14.365 116.126 14.815C115.646 15.265 115.096 15.605 114.476 15.835C113.856 16.065 113.206 16.18 112.526 16.18ZM122.493 16V4.825H129.858V6.4H124.263V9.61H129.558V11.185H124.263V14.425H129.858V16H122.493ZM134.502 16V4.825H135.927L142.197 13.48L141.522 13.585V4.825H143.277V16H141.852L135.627 7.285L136.272 7.165V16H134.502ZM148.591 16V4.825H155.956V6.4H150.361V9.61H155.656V11.185H150.361V14.425H155.956V16H148.591ZM160.599 16V4.825H164.664C165.414 4.825 166.074 4.965 166.644 5.245C167.214 5.515 167.659 5.915 167.979 6.445C168.309 6.965 168.474 7.59 168.474 8.32C168.474 9.09 168.279 9.75 167.889 10.3C167.509 10.85 166.994 11.25 166.344 11.5L168.924 16H166.914L164.169 11.125L165.324 11.8H162.369V16H160.599ZM162.369 10.225H164.694C165.104 10.225 165.459 10.145 165.759 9.985C166.059 9.825 166.289 9.605 166.449 9.325C166.619 9.035 166.704 8.695 166.704 8.305C166.704 7.915 166.619 7.58 166.449 7.3C166.289 7.01 166.059 6.79 165.759 6.64C165.459 6.48 165.104 6.4 164.694 6.4H162.369V10.225ZM172.424 16L176.354 4.825H178.544L182.474 16H180.584L179.729 13.495H175.184L174.314 16H172.424ZM175.694 11.92H179.189L177.209 6.07H177.704L175.694 11.92ZM188.032 16V6.4H185.062V4.825H192.712V6.4H189.787V16H188.032ZM197.036 16V4.825H198.806V16H197.036ZM209.553 16.18C208.743 16.18 207.988 16.035 207.288 15.745C206.598 15.455 205.988 15.05 205.458 14.53C204.938 14.01 204.528 13.4 204.228 12.7C203.938 12 203.793 11.235 203.793 10.405C203.793 9.575 203.938 8.81 204.228 8.11C204.528 7.4 204.938 6.79 205.458 6.28C205.978 5.76 206.588 5.36 207.288 5.08C207.988 4.79 208.743 4.645 209.553 4.645C210.373 4.645 211.128 4.79 211.818 5.08C212.518 5.36 213.128 5.76 213.648 6.28C214.178 6.8 214.588 7.41 214.878 8.11C215.168 8.81 215.313 9.575 215.313 10.405C215.313 11.235 215.163 12 214.863 12.7C214.573 13.4 214.168 14.01 213.648 14.53C213.128 15.05 212.518 15.455 211.818 15.745C211.118 16.035 210.363 16.18 209.553 16.18ZM209.553 14.56C210.133 14.56 210.663 14.455 211.143 14.245C211.633 14.035 212.058 13.745 212.418 13.375C212.778 12.995 213.058 12.555 213.258 12.055C213.458 11.545 213.558 10.995 213.558 10.405C213.558 9.815 213.458 9.27 213.258 8.77C213.058 8.27 212.778 7.83 212.418 7.45C212.058 7.07 211.633 6.775 211.143 6.565C210.663 6.355 210.133 6.25 209.553 6.25C208.973 6.25 208.438 6.355 207.948 6.565C207.468 6.775 207.048 7.07 206.688 7.45C206.328 7.83 206.048 8.27 205.848 8.77C205.658 9.27 205.563 9.815 205.563 10.405C205.563 10.995 205.658 11.545 205.848 12.055C206.048 12.555 206.328 12.995 206.688 13.375C207.048 13.745 207.473 14.035 207.963 14.245C208.453 14.455 208.983 14.56 209.553 14.56ZM220.292 16V4.825H221.717L227.987 13.48L227.312 13.585V4.825H229.067V16H227.642L221.417 7.285L222.062 7.165V16H220.292Z" fill="#F2F4E8"/>
<path d="M8.625 17.25C8.87917 17.25 9.12292 17.351 9.30264 17.5307C9.48237 17.7104 9.58333 17.9542 9.58333 18.2083C9.58333 18.4625 9.48237 18.7063 9.30264 18.886C9.12292 19.0657 8.87917 19.1667 8.625 19.1667H6.70833C6.45417 19.1667 6.21041 19.0657 6.03069 18.886C5.85097 18.7063 5.75 18.4625 5.75 18.2083C5.75 17.9542 5.85097 17.7104 6.03069 17.5307C6.21041 17.351 6.45417 17.25 6.70833 17.25H8.625ZM7.66667 0C11.8929 0 15.3333 3.39537 15.3333 7.60246C15.3333 10.4832 13.8747 12.582 12.6692 13.8259L12.397 14.0971L12.1383 14.3386L11.8967 14.5494L11.5805 14.8082L11.2662 15.042C11.0783 15.1742 10.9403 15.3573 10.8196 15.5547L10.6806 15.7953L10.5455 16.0367C10.3155 16.4316 10.0491 16.7708 9.48079 16.7708H5.85254C5.28425 16.7708 5.01783 16.4316 4.78879 16.0367L4.58467 15.6745C4.44571 15.432 4.29238 15.2011 4.06717 15.042L3.84483 14.8781L3.65413 14.7296L3.43658 14.5494L3.19508 14.3386L2.93633 14.0971L2.66321 13.8259C1.45858 12.582 0 10.4832 0 7.60246C0 3.39537 3.44042 0 7.66667 0ZM7.66667 1.91667C4.48212 1.91667 1.91667 4.47062 1.91667 7.60246C1.91667 10.1171 3.38579 11.9092 4.40163 12.8455L4.63642 13.0544L4.84725 13.2288L5.106 13.4282L5.175 13.478C5.47687 13.6907 5.70112 13.9869 5.90525 14.2964L6.26271 14.8542H9.07062L9.42808 14.2964C9.63221 13.9869 9.85646 13.6907 10.1583 13.478L10.3912 13.3036L10.5886 13.1455L10.8119 12.9538C11.8277 12.052 13.4167 10.2177 13.4167 7.60246C13.4167 4.47062 10.8512 1.91667 7.66667 1.91667ZM7.94746 4.11413C8.11992 3.94225 8.35133 3.84246 8.5947 3.83503C8.83807 3.8276 9.07514 3.91308 9.25777 4.07411C9.44039 4.23515 9.55488 4.45965 9.57797 4.70204C9.60106 4.94442 9.53102 5.18651 9.38208 5.37912L9.30254 5.46921L8.06342 6.70833L9.29583 7.94075C9.64467 8.28958 9.6715 8.83871 9.37633 9.21821L9.29583 9.30925L7.38587 11.2192C7.21342 11.3911 6.982 11.4909 6.73863 11.4983C6.49526 11.5057 6.25819 11.4203 6.07557 11.2592C5.89294 11.0982 5.77846 10.8737 5.75537 10.6313C5.73228 10.3889 5.80231 10.1468 5.95125 9.95421L6.03079 9.86413L7.26992 8.625L6.0375 7.39258C5.87087 7.22595 5.77076 7.00425 5.75594 6.76906C5.74112 6.53387 5.81261 6.30136 5.957 6.11512L6.0375 6.02408L7.94746 4.11413Z" fill="#F2F4E8"/>
</svg>
