<svg width="46" height="46" viewBox="0 0 46 46" fill="none" xmlns="http://www.w3.org/2000/svg">
<circle cx="23" cy="23" r="22" fill="#FAFAFA" stroke="#2BAB7B" stroke-width="2"/>
<path d="M25.9333 33.2667H25.2C25.2 33.4029 25.2379 33.5364 25.3095 33.6522C25.3811 33.7681 25.4836 33.8617 25.6054 33.9226C25.7272 33.9835 25.8636 34.0093 25.9992 33.997C26.1348 33.9848 26.2644 33.935 26.3733 33.8533L25.9333 33.2667ZM28.8667 31.0667L29.3067 30.48C29.1797 30.3848 29.0253 30.3333 28.8667 30.3333C28.708 30.3333 28.5536 30.3848 28.4267 30.48L28.8667 31.0667ZM31.8 33.2667L31.36 33.8533C31.469 33.935 31.5985 33.9848 31.7341 33.997C31.8698 34.0093 32.0061 33.9835 32.128 33.9226C32.2498 33.8617 32.3522 33.7681 32.4238 33.6522C32.4954 33.5364 32.5333 33.4029 32.5333 33.2667H31.8ZM28.8667 28.1333C27.8942 28.1333 26.9616 27.747 26.2739 27.0594C25.5863 26.3718 25.2 25.4391 25.2 24.4667H23.7333C23.7333 25.8281 24.2742 27.1338 25.2369 28.0965C26.1995 29.0592 27.5052 29.6 28.8667 29.6V28.1333ZM32.5333 24.4667C32.5333 25.4391 32.147 26.3718 31.4594 27.0594C30.7718 27.747 29.8391 28.1333 28.8667 28.1333V29.6C30.2281 29.6 31.5338 29.0592 32.4965 28.0965C33.4592 27.1338 34 25.8281 34 24.4667H32.5333ZM28.8667 20.8C29.8391 20.8 30.7718 21.1863 31.4594 21.8739C32.147 22.5616 32.5333 23.4942 32.5333 24.4667H34C34 23.1052 33.4592 21.7995 32.4965 20.8369C31.5338 19.8742 30.2281 19.3333 28.8667 19.3333V20.8ZM28.8667 19.3333C27.5052 19.3333 26.1995 19.8742 25.2369 20.8369C24.2742 21.7995 23.7333 23.1052 23.7333 24.4667H25.2C25.2 23.4942 25.5863 22.5616 26.2739 21.8739C26.9616 21.1863 27.8942 20.8 28.8667 20.8V19.3333ZM25.2 27.4V33.2667H26.6667V27.4H25.2ZM26.3733 33.8533L29.3067 31.6533L28.4267 30.48L25.4933 32.68L26.3733 33.8533ZM28.4267 31.6533L31.36 33.8533L32.24 32.68L29.3067 30.48L28.4267 31.6533ZM32.5333 33.2667V27.4H31.0667V33.2667H32.5333ZM34 19.3333V14.2H32.5333V19.3333H34ZM31.8 12H14.2V13.4667H31.8V12ZM12 14.2V31.8H13.4667V14.2H12ZM14.2 34H23.7333V32.5333H14.2V34ZM12 31.8C12 32.3835 12.2318 32.9431 12.6444 33.3556C13.0569 33.7682 13.6165 34 14.2 34V32.5333C14.0055 32.5333 13.819 32.4561 13.6815 32.3185C13.5439 32.181 13.4667 31.9945 13.4667 31.8H12ZM14.2 12C13.6165 12 13.0569 12.2318 12.6444 12.6444C12.2318 13.0569 12 13.6165 12 14.2H13.4667C13.4667 14.0055 13.5439 13.819 13.6815 13.6815C13.819 13.5439 14.0055 13.4667 14.2 13.4667V12ZM34 14.2C34 13.6165 33.7682 13.0569 33.3556 12.6444C32.9431 12.2318 32.3835 12 31.8 12V13.4667C31.9945 13.4667 32.181 13.5439 32.3185 13.6815C32.4561 13.819 32.5333 14.0055 32.5333 14.2H34ZM16.4 19.3333H23.7333V17.8667H16.4V19.3333ZM16.4 23.7333H20.8V22.2667H16.4V23.7333Z" fill="#2BAB7B"/>
</svg>
