<svg width="46" height="46" viewBox="0 0 46 46" fill="none" xmlns="http://www.w3.org/2000/svg">
<circle cx="23" cy="23" r="22" fill="#FAFAFA" stroke="#2BAB7B" stroke-width="2"/>
<path d="M16.175 28H31V19.9C31.3833 19.8167 31.7417 19.704 32.075 19.562C32.4083 19.4207 32.7167 19.2333 33 19V28C33 28.55 32.8043 29.021 32.413 29.413C32.021 29.8043 31.55 30 31 30H17L13 34V16C13 15.45 13.196 14.979 13.588 14.587C13.9793 14.1957 14.45 14 15 14H25.1C25.0333 14.3333 25 14.6667 25 15C25 15.3333 25.0333 15.6667 25.1 16H15V29.175L16.175 28ZM17 26H25V24H17V26ZM17 23H29V21H17V23ZM17 20H29V19.9C28.3833 19.7667 27.8207 19.5373 27.312 19.212C26.804 18.8873 26.3667 18.4833 26 18H17V20ZM30 18C29.1667 18 28.4583 17.7083 27.875 17.125C27.2917 16.5417 27 15.8333 27 15C27 14.1667 27.2917 13.4583 27.875 12.875C28.4583 12.2917 29.1667 12 30 12C30.8333 12 31.5417 12.2917 32.125 12.875C32.7083 13.4583 33 14.1667 33 15C33 15.8333 32.7083 16.5417 32.125 17.125C31.5417 17.7083 30.8333 18 30 18Z" fill="#2BAB7B"/>
</svg>
