<svg width="168" height="19" viewBox="0 0 168 19" fill="none" xmlns="http://www.w3.org/2000/svg">
<path d="M34.165 16L38.095 4.825H40.285L44.215 16H42.325L41.47 13.495H36.925L36.055 16H34.165ZM37.435 11.92H40.93L38.95 6.07H39.445L37.435 11.92ZM53.3216 16.18C52.5316 16.18 51.7966 16.035 51.1166 15.745C50.4466 15.455 49.8566 15.055 49.3466 14.545C48.8466 14.025 48.4566 13.415 48.1766 12.715C47.8966 12.015 47.7566 11.245 47.7566 10.405C47.7566 9.575 47.8916 8.81 48.1616 8.11C48.4416 7.4 48.8316 6.79 49.3316 6.28C49.8316 5.76 50.4166 5.36 51.0866 5.08C51.7566 4.79 52.4916 4.645 53.2916 4.645C54.0816 4.645 54.7866 4.78 55.4066 5.05C56.0366 5.32 56.5666 5.675 56.9966 6.115C57.4266 6.545 57.7366 7.015 57.9266 7.525L56.3516 8.29C56.1216 7.68 55.7416 7.19 55.2116 6.82C54.6816 6.44 54.0416 6.25 53.2916 6.25C52.5516 6.25 51.8966 6.425 51.3266 6.775C50.7566 7.125 50.3116 7.61 49.9916 8.23C49.6816 8.85 49.5266 9.575 49.5266 10.405C49.5266 11.235 49.6866 11.965 50.0066 12.595C50.3366 13.215 50.7866 13.7 51.3566 14.05C51.9266 14.39 52.5816 14.56 53.3216 14.56C53.9416 14.56 54.5066 14.435 55.0166 14.185C55.5366 13.925 55.9516 13.565 56.2616 13.105C56.5716 12.635 56.7266 12.09 56.7266 11.47V10.705L57.5216 11.425H53.2916V9.925H58.4816V10.975C58.4816 11.795 58.3416 12.53 58.0616 13.18C57.7816 13.82 57.4016 14.365 56.9216 14.815C56.4416 15.265 55.8916 15.605 55.2716 15.835C54.6516 16.065 54.0016 16.18 53.3216 16.18ZM63.2888 16V4.825H67.3538C68.1038 4.825 68.7638 4.965 69.3338 5.245C69.9038 5.515 70.3488 5.915 70.6688 6.445C70.9988 6.965 71.1638 7.59 71.1638 8.32C71.1638 9.09 70.9688 9.75 70.5788 10.3C70.1988 10.85 69.6838 11.25 69.0338 11.5L71.6138 16H69.6038L66.8588 11.125L68.0138 11.8H65.0588V16H63.2888ZM65.0588 10.225H67.3838C67.7938 10.225 68.1488 10.145 68.4488 9.985C68.7488 9.825 68.9788 9.605 69.1388 9.325C69.3088 9.035 69.3938 8.695 69.3938 8.305C69.3938 7.915 69.3088 7.58 69.1388 7.3C68.9788 7.01 68.7488 6.79 68.4488 6.64C68.1488 6.48 67.7938 6.4 67.3838 6.4H65.0588V10.225ZM76.1032 16V4.825H77.8732V16H76.1032ZM88.3952 16.18C87.6052 16.18 86.8702 16.035 86.1902 15.745C85.5202 15.455 84.9352 15.055 84.4352 14.545C83.9452 14.025 83.5602 13.415 83.2802 12.715C83.0002 12.015 82.8602 11.245 82.8602 10.405C82.8602 9.575 82.9952 8.81 83.2652 8.11C83.5452 7.4 83.9352 6.79 84.4352 6.28C84.9352 5.76 85.5202 5.36 86.1902 5.08C86.8602 4.79 87.5952 4.645 88.3952 4.645C89.1852 4.645 89.8902 4.78 90.5102 5.05C91.1402 5.32 91.6702 5.675 92.1002 6.115C92.5302 6.545 92.8402 7.015 93.0302 7.525L91.4402 8.275C91.2002 7.675 90.8152 7.19 90.2852 6.82C89.7652 6.44 89.1352 6.25 88.3952 6.25C87.6552 6.25 87.0002 6.425 86.4302 6.775C85.8602 7.125 85.4152 7.61 85.0952 8.23C84.7852 8.85 84.6302 9.575 84.6302 10.405C84.6302 11.235 84.7852 11.965 85.0952 12.595C85.4152 13.215 85.8602 13.7 86.4302 14.05C87.0002 14.39 87.6552 14.56 88.3952 14.56C89.1352 14.56 89.7652 14.375 90.2852 14.005C90.8152 13.635 91.2002 13.15 91.4402 12.55L93.0302 13.3C92.8402 13.8 92.5302 14.27 92.1002 14.71C91.6702 15.15 91.1402 15.505 90.5102 15.775C89.8902 16.045 89.1852 16.18 88.3952 16.18ZM102.035 16.18C101.205 16.18 100.465 16.005 99.8153 15.655C99.1753 15.305 98.6703 14.825 98.3003 14.215C97.9403 13.605 97.7603 12.91 97.7603 12.13V4.825H99.5303V12.055C99.5303 12.545 99.6353 12.98 99.8453 13.36C100.065 13.74 100.36 14.035 100.73 14.245C101.11 14.455 101.545 14.56 102.035 14.56C102.535 14.56 102.97 14.455 103.34 14.245C103.72 14.035 104.015 13.74 104.225 13.36C104.445 12.98 104.555 12.545 104.555 12.055V4.825H106.31V12.13C106.31 12.91 106.13 13.605 105.77 14.215C105.41 14.825 104.905 15.305 104.255 15.655C103.615 16.005 102.875 16.18 102.035 16.18ZM111.529 16V4.825H113.299V14.425H118.129V16H111.529ZM123.701 16V6.4H120.731V4.825H128.381V6.4H125.456V16H123.701ZM136.89 16.18C136.06 16.18 135.32 16.005 134.67 15.655C134.03 15.305 133.525 14.825 133.155 14.215C132.795 13.605 132.615 12.91 132.615 12.13V4.825H134.385V12.055C134.385 12.545 134.49 12.98 134.7 13.36C134.92 13.74 135.215 14.035 135.585 14.245C135.965 14.455 136.4 14.56 136.89 14.56C137.39 14.56 137.825 14.455 138.195 14.245C138.575 14.035 138.87 13.74 139.08 13.36C139.3 12.98 139.41 12.545 139.41 12.055V4.825H141.165V12.13C141.165 12.91 140.985 13.605 140.625 14.215C140.265 14.825 139.76 15.305 139.11 15.655C138.47 16.005 137.73 16.18 136.89 16.18ZM146.384 16V4.825H150.449C151.199 4.825 151.859 4.965 152.429 5.245C152.999 5.515 153.444 5.915 153.764 6.445C154.094 6.965 154.259 7.59 154.259 8.32C154.259 9.09 154.064 9.75 153.674 10.3C153.294 10.85 152.779 11.25 152.129 11.5L154.709 16H152.699L149.954 11.125L151.109 11.8H148.154V16H146.384ZM148.154 10.225H150.479C150.889 10.225 151.244 10.145 151.544 9.985C151.844 9.825 152.074 9.605 152.234 9.325C152.404 9.035 152.489 8.695 152.489 8.305C152.489 7.915 152.404 7.58 152.234 7.3C152.074 7.01 151.844 6.79 151.544 6.64C151.244 6.48 150.889 6.4 150.479 6.4H148.154V10.225ZM159.198 16V4.825H166.563V6.4H160.968V9.61H166.263V11.185H160.968V14.425H166.563V16H159.198Z" fill="#F2F4E8"/>
<path d="M1 7C1 9.65216 2.05357 12.1957 3.92893 14.0711C5.8043 15.9464 8.34784 17 11 17C13.6522 17 16.1957 15.9464 18.0711 14.0711C19.9464 12.1957 21 9.65216 21 7" stroke="white" stroke-linecap="round" stroke-linejoin="round"/>
<path d="M21 7C18.3478 7 15.8043 8.05357 13.9289 9.92893C12.0536 11.8043 11 14.3478 11 17C11 15.6868 10.7413 14.3864 10.2388 13.1732C9.73625 11.9599 8.99965 10.8575 8.07107 9.92893C7.14248 9.00035 6.04009 8.26375 4.82683 7.7612C3.61358 7.25866 2.31322 7 1 7" stroke="white" stroke-linecap="round" stroke-linejoin="round"/>
<path d="M13.99 9.5C14.0595 8.10848 13.8284 6.71832 13.3124 5.42412C12.7965 4.12992 12.0078 2.96205 11 2C9.99222 2.96205 9.20352 4.12992 8.68757 5.42412C8.17161 6.71832 7.94051 8.10848 8.01 9.5" stroke="white" stroke-linecap="round" stroke-linejoin="round"/>
</svg>
