<svg width="1042" height="412" viewBox="0 0 1042 412" fill="none" xmlns="http://www.w3.org/2000/svg">
<path d="M518 42V106.926C518 127.913 535.013 144.926 556 144.926H1018.93C1031.12 144.926 1041 154.809 1041 167V167" stroke="url(#paint0_linear_6_2154)"/>
<path d="M518 45V110.29C518 131.277 500.987 148.29 480 148.29H19.7099C9.3767 148.29 1 156.667 1 167V167" stroke="url(#paint1_linear_6_2154)"/>
<rect x="29" y="209" width="393" height="73" rx="10.8843" fill="white"/>
<mask id="mask0_6_2154" style="mask-type:alpha" maskUnits="userSpaceOnUse" x="231" y="209" width="191" height="73">
<rect x="231" y="209" width="191" height="73" rx="10.8843" fill="white"/>
</mask>
<g mask="url(#mask0_6_2154)">
<path d="M370.319 235.333C335.395 241.927 313.337 258.305 300.188 274.938C312.542 273.075 326.934 272.097 343.653 272.34C433.775 273.646 448.686 212.657 444.877 182C445.965 194.88 432.577 223.578 370.319 235.333Z" fill="white"/>
<path d="M283.789 309.891C286.691 289.936 308.061 247.088 370.319 235.333C432.577 223.578 445.965 194.88 444.877 182C448.686 212.657 433.775 273.646 343.653 272.34C253.531 271.034 231 305.174 231 322.408" stroke="url(#paint2_linear_6_2154)" stroke-opacity="0.1" stroke-width="1.08843"/>
</g>
<path d="M89.1676 249L93.16 237.648H95.3847L99.3771 249H97.4571L96.5885 246.455H91.9714L91.0876 249H89.1676ZM92.4895 244.855H96.04L94.0285 238.912H94.5314L92.4895 244.855ZM100.556 252.048V240.756H102.202V242.463L102.004 242.067C102.309 241.599 102.715 241.234 103.223 240.97C103.731 240.705 104.31 240.573 104.96 240.573C105.742 240.573 106.443 240.761 107.063 241.137C107.693 241.513 108.185 242.026 108.541 242.676C108.907 243.326 109.09 244.058 109.09 244.87C109.09 245.683 108.907 246.415 108.541 247.065C108.185 247.715 107.698 248.233 107.078 248.619C106.458 248.995 105.752 249.183 104.96 249.183C104.32 249.183 103.736 249.051 103.208 248.787C102.69 248.523 102.288 248.142 102.004 247.644L102.278 247.324V252.048H100.556ZM104.792 247.583C105.28 247.583 105.712 247.466 106.088 247.232C106.464 246.999 106.758 246.679 106.971 246.272C107.195 245.856 107.307 245.389 107.307 244.87C107.307 244.352 107.195 243.89 106.971 243.484C106.758 243.077 106.464 242.757 106.088 242.524C105.712 242.29 105.28 242.173 104.792 242.173C104.315 242.173 103.883 242.29 103.497 242.524C103.121 242.757 102.822 243.077 102.598 243.484C102.385 243.89 102.278 244.352 102.278 244.87C102.278 245.389 102.385 245.856 102.598 246.272C102.822 246.679 103.121 246.999 103.497 247.232C103.883 247.466 104.315 247.583 104.792 247.583ZM110.765 252.048V240.756H112.41V242.463L112.212 242.067C112.517 241.599 112.923 241.234 113.431 240.97C113.939 240.705 114.518 240.573 115.168 240.573C115.951 240.573 116.652 240.761 117.271 241.137C117.901 241.513 118.394 242.026 118.749 242.676C119.115 243.326 119.298 244.058 119.298 244.87C119.298 245.683 119.115 246.415 118.749 247.065C118.394 247.715 117.906 248.233 117.286 248.619C116.667 248.995 115.961 249.183 115.168 249.183C114.528 249.183 113.944 249.051 113.416 248.787C112.898 248.523 112.497 248.142 112.212 247.644L112.486 247.324V252.048H110.765ZM115.001 247.583C115.488 247.583 115.92 247.466 116.296 247.232C116.672 246.999 116.966 246.679 117.18 246.272C117.403 245.856 117.515 245.389 117.515 244.87C117.515 244.352 117.403 243.89 117.18 243.484C116.966 243.077 116.672 242.757 116.296 242.524C115.92 242.29 115.488 242.173 115.001 242.173C114.523 242.173 114.092 242.29 113.705 242.524C113.33 242.757 113.03 243.077 112.806 243.484C112.593 243.89 112.486 244.352 112.486 244.87C112.486 245.389 112.593 245.856 112.806 246.272C113.03 246.679 113.33 246.999 113.705 247.232C114.092 247.466 114.523 247.583 115.001 247.583ZM120.973 249V237.465H122.695V249H120.973ZM124.708 249V240.756H126.43V249H124.708ZM124.708 239.629V237.648H126.43V239.629H124.708ZM132.359 249.183C131.536 249.183 130.805 248.995 130.165 248.619C129.535 248.233 129.032 247.715 128.656 247.065C128.291 246.415 128.108 245.678 128.108 244.855C128.108 244.043 128.291 243.311 128.656 242.661C129.022 242.011 129.525 241.503 130.165 241.137C130.805 240.761 131.536 240.573 132.359 240.573C132.918 240.573 133.441 240.675 133.929 240.878C134.416 241.071 134.838 241.34 135.193 241.686C135.559 242.031 135.828 242.432 136.001 242.89L134.493 243.59C134.32 243.164 134.04 242.824 133.654 242.57C133.279 242.305 132.847 242.173 132.359 242.173C131.892 242.173 131.47 242.29 131.094 242.524C130.729 242.747 130.439 243.067 130.226 243.484C130.013 243.89 129.906 244.352 129.906 244.87C129.906 245.389 130.013 245.856 130.226 246.272C130.439 246.679 130.729 246.999 131.094 247.232C131.47 247.466 131.892 247.583 132.359 247.583C132.857 247.583 133.289 247.456 133.654 247.202C134.03 246.938 134.31 246.587 134.493 246.15L136.001 246.867C135.839 247.303 135.574 247.7 135.209 248.055C134.853 248.401 134.432 248.675 133.944 248.878C133.456 249.081 132.928 249.183 132.359 249.183ZM140.078 249.183C139.52 249.183 139.027 249.086 138.6 248.893C138.184 248.69 137.859 248.416 137.625 248.07C137.391 247.715 137.274 247.298 137.274 246.821C137.274 246.374 137.371 245.973 137.564 245.617C137.767 245.262 138.077 244.962 138.493 244.718C138.91 244.474 139.433 244.302 140.063 244.2L142.928 243.728V245.084L140.398 245.526C139.941 245.607 139.606 245.754 139.393 245.968C139.179 246.171 139.073 246.435 139.073 246.76C139.073 247.075 139.189 247.334 139.423 247.537C139.667 247.73 139.977 247.827 140.353 247.827C140.82 247.827 141.226 247.725 141.572 247.522C141.927 247.319 142.201 247.05 142.394 246.714C142.587 246.369 142.684 245.988 142.684 245.571V243.453C142.684 243.047 142.532 242.717 142.227 242.463C141.932 242.199 141.536 242.067 141.038 242.067C140.581 242.067 140.18 242.189 139.834 242.432C139.499 242.666 139.25 242.971 139.088 243.347L137.655 242.631C137.808 242.224 138.057 241.869 138.402 241.564C138.747 241.249 139.149 241.005 139.606 240.832C140.073 240.66 140.566 240.573 141.084 240.573C141.734 240.573 142.308 240.695 142.806 240.939C143.314 241.183 143.705 241.523 143.979 241.96C144.264 242.387 144.406 242.884 144.406 243.453V249H142.76V247.507L143.111 247.552C142.918 247.888 142.669 248.177 142.364 248.421C142.069 248.665 141.729 248.853 141.343 248.985C140.967 249.117 140.546 249.183 140.078 249.183ZM149.836 249.091C148.973 249.091 148.302 248.848 147.825 248.36C147.347 247.872 147.108 247.187 147.108 246.303V242.311H145.661V240.756H145.889C146.275 240.756 146.575 240.644 146.788 240.421C147.002 240.197 147.108 239.893 147.108 239.507V238.867H148.83V240.756H150.705V242.311H148.83V246.227C148.83 246.511 148.876 246.755 148.967 246.958C149.059 247.151 149.206 247.303 149.409 247.415C149.613 247.517 149.877 247.568 150.202 247.568C150.283 247.568 150.374 247.563 150.476 247.552C150.578 247.542 150.674 247.532 150.766 247.522V249C150.623 249.02 150.466 249.041 150.293 249.061C150.12 249.081 149.968 249.091 149.836 249.091ZM152.446 249V240.756H154.168V249H152.446ZM152.446 239.629V237.648H154.168V239.629H152.446ZM160.158 249.183C159.366 249.183 158.639 248.995 157.979 248.619C157.329 248.243 156.811 247.73 156.425 247.08C156.039 246.43 155.846 245.693 155.846 244.87C155.846 244.037 156.039 243.301 156.425 242.661C156.811 242.011 157.329 241.503 157.979 241.137C158.629 240.761 159.356 240.573 160.158 240.573C160.971 240.573 161.697 240.761 162.337 241.137C162.987 241.503 163.5 242.011 163.876 242.661C164.262 243.301 164.455 244.037 164.455 244.87C164.455 245.704 164.262 246.445 163.876 247.095C163.49 247.745 162.972 248.258 162.322 248.634C161.672 249 160.951 249.183 160.158 249.183ZM160.158 247.583C160.646 247.583 161.078 247.466 161.453 247.232C161.829 246.999 162.124 246.679 162.337 246.272C162.561 245.856 162.672 245.389 162.672 244.87C162.672 244.352 162.561 243.89 162.337 243.484C162.124 243.077 161.829 242.757 161.453 242.524C161.078 242.29 160.646 242.173 160.158 242.173C159.681 242.173 159.249 242.29 158.863 242.524C158.487 242.757 158.187 243.077 157.964 243.484C157.751 243.89 157.644 244.352 157.644 244.87C157.644 245.389 157.751 245.856 157.964 246.272C158.187 246.679 158.487 246.999 158.863 247.232C159.249 247.466 159.681 247.583 160.158 247.583ZM166.136 249V240.756H167.782V242.371L167.584 242.158C167.787 241.64 168.112 241.249 168.559 240.985C169.006 240.711 169.524 240.573 170.113 240.573C170.723 240.573 171.261 240.705 171.729 240.97C172.196 241.234 172.562 241.599 172.826 242.067C173.09 242.534 173.222 243.072 173.222 243.682V249H171.515V244.139C171.515 243.723 171.439 243.372 171.287 243.088C171.134 242.793 170.916 242.57 170.632 242.417C170.357 242.255 170.042 242.173 169.687 242.173C169.331 242.173 169.011 242.255 168.727 242.417C168.453 242.57 168.239 242.793 168.087 243.088C167.934 243.382 167.858 243.733 167.858 244.139V249H166.136Z" fill="#535353"/>
<circle cx="63.045" cy="245.462" r="10.3401" fill="#F0F0F0"/>
<path d="M63.045 235.122C64.4029 235.122 65.7475 235.39 67.002 235.909C68.2565 236.429 69.3964 237.19 70.3566 238.151C71.3168 239.111 72.0784 240.251 72.598 241.505C73.1177 242.76 73.3851 244.104 73.3851 245.462L63.045 245.462L63.045 235.122Z" fill="#135B40"/>
<rect x="458" y="209" width="393" height="73" rx="10.8843" fill="white"/>
<mask id="mask1_6_2154" style="mask-type:alpha" maskUnits="userSpaceOnUse" x="660" y="209" width="191" height="73">
<rect x="660" y="209" width="191" height="73" rx="10.8843" fill="white"/>
</mask>
<g mask="url(#mask1_6_2154)">
<path d="M783.965 251.217C774.708 248.329 766.708 243.415 759.786 237.09C760.405 237.084 761.027 237.077 761.653 237.067C851.775 235.761 866.686 296.75 862.877 327.407C863.965 314.527 843.285 269.72 783.965 251.217Z" fill="white"/>
<path d="M713.762 107C716.664 126.955 723.481 232.35 783.965 251.217C843.285 269.72 863.965 314.527 862.877 327.407C866.686 296.75 851.775 235.761 761.653 237.067C671.531 238.374 649 204.233 649 187" stroke="url(#paint3_linear_6_2154)" stroke-opacity="0.1" stroke-width="1.08843"/>
</g>
<path d="M520.173 249V237.648H523.891C525.07 237.648 526.091 237.886 526.954 238.364C527.828 238.831 528.503 239.491 528.981 240.345C529.458 241.198 529.697 242.189 529.697 243.316C529.697 244.434 529.458 245.424 528.981 246.288C528.503 247.141 527.828 247.806 526.954 248.284C526.091 248.761 525.07 249 523.891 249H520.173ZM521.971 247.4H523.922C524.724 247.4 525.42 247.232 526.009 246.897C526.609 246.562 527.071 246.09 527.396 245.48C527.721 244.87 527.884 244.149 527.884 243.316C527.884 242.483 527.716 241.767 527.381 241.168C527.056 240.558 526.599 240.086 526.009 239.751C525.42 239.415 524.724 239.248 523.922 239.248H521.971V247.4ZM533.694 249.183C533.136 249.183 532.643 249.086 532.216 248.893C531.8 248.69 531.475 248.416 531.241 248.07C531.007 247.715 530.891 247.298 530.891 246.821C530.891 246.374 530.987 245.973 531.18 245.617C531.383 245.262 531.693 244.962 532.11 244.718C532.526 244.474 533.049 244.302 533.679 244.2L536.544 243.728V245.084L534.014 245.526C533.557 245.607 533.222 245.754 533.009 245.968C532.795 246.171 532.689 246.435 532.689 246.76C532.689 247.075 532.806 247.334 533.039 247.537C533.283 247.73 533.593 247.827 533.969 247.827C534.436 247.827 534.842 247.725 535.188 247.522C535.543 247.319 535.818 247.05 536.011 246.714C536.204 246.369 536.3 245.988 536.3 245.571V243.453C536.3 243.047 536.148 242.717 535.843 242.463C535.548 242.199 535.152 242.067 534.654 242.067C534.197 242.067 533.796 242.189 533.451 242.432C533.115 242.666 532.867 242.971 532.704 243.347L531.272 242.631C531.424 242.224 531.673 241.869 532.018 241.564C532.364 241.249 532.765 241.005 533.222 240.832C533.689 240.66 534.182 240.573 534.7 240.573C535.35 240.573 535.924 240.695 536.422 240.939C536.93 241.183 537.321 241.523 537.595 241.96C537.88 242.387 538.022 242.884 538.022 243.453V249H536.376V247.507L536.727 247.552C536.534 247.888 536.285 248.177 535.98 248.421C535.686 248.665 535.345 248.853 534.959 248.985C534.583 249.117 534.162 249.183 533.694 249.183ZM543.452 249.091C542.589 249.091 541.918 248.848 541.441 248.36C540.963 247.872 540.725 247.187 540.725 246.303V242.311H539.277V240.756H539.506C539.892 240.756 540.191 240.644 540.405 240.421C540.618 240.197 540.725 239.893 540.725 239.507V238.867H542.447V240.756H544.321V242.311H542.447V246.227C542.447 246.511 542.492 246.755 542.584 246.958C542.675 247.151 542.822 247.303 543.026 247.415C543.229 247.517 543.493 247.568 543.818 247.568C543.899 247.568 543.991 247.563 544.092 247.552C544.194 247.542 544.29 247.532 544.382 247.522V249C544.24 249.02 544.082 249.041 543.909 249.061C543.737 249.081 543.584 249.091 543.452 249.091ZM548.456 249.183C547.898 249.183 547.405 249.086 546.978 248.893C546.562 248.69 546.237 248.416 546.003 248.07C545.769 247.715 545.653 247.298 545.653 246.821C545.653 246.374 545.749 245.973 545.942 245.617C546.145 245.262 546.455 244.962 546.872 244.718C547.288 244.474 547.811 244.302 548.441 244.2L551.306 243.728V245.084L548.776 245.526C548.319 245.607 547.984 245.754 547.771 245.968C547.557 246.171 547.451 246.435 547.451 246.76C547.451 247.075 547.567 247.334 547.801 247.537C548.045 247.73 548.355 247.827 548.731 247.827C549.198 247.827 549.604 247.725 549.95 247.522C550.305 247.319 550.579 247.05 550.772 246.714C550.965 246.369 551.062 245.988 551.062 245.571V243.453C551.062 243.047 550.91 242.717 550.605 242.463C550.31 242.199 549.914 242.067 549.416 242.067C548.959 242.067 548.558 242.189 548.212 242.432C547.877 242.666 547.628 242.971 547.466 243.347L546.033 242.631C546.186 242.224 546.435 241.869 546.78 241.564C547.126 241.249 547.527 241.005 547.984 240.832C548.451 240.66 548.944 240.573 549.462 240.573C550.112 240.573 550.686 240.695 551.184 240.939C551.692 241.183 552.083 241.523 552.357 241.96C552.642 242.387 552.784 242.884 552.784 243.453V249H551.138V247.507L551.489 247.552C551.296 247.888 551.047 248.177 550.742 248.421C550.447 248.665 550.107 248.853 549.721 248.985C549.345 249.117 548.924 249.183 548.456 249.183ZM562.916 249.183C562.114 249.183 561.367 249.036 560.676 248.741C559.995 248.446 559.401 248.04 558.893 247.522C558.396 246.994 558.004 246.374 557.72 245.663C557.436 244.952 557.293 244.17 557.293 243.316C557.293 242.473 557.43 241.696 557.705 240.985C557.989 240.264 558.385 239.644 558.893 239.126C559.401 238.598 559.995 238.191 560.676 237.907C561.357 237.612 562.103 237.465 562.916 237.465C563.719 237.465 564.435 237.602 565.065 237.876C565.705 238.151 566.243 238.511 566.68 238.958C567.117 239.395 567.432 239.872 567.625 240.391L566.009 241.152C565.766 240.543 565.375 240.05 564.836 239.674C564.308 239.288 563.668 239.095 562.916 239.095C562.164 239.095 561.499 239.273 560.92 239.629C560.341 239.984 559.889 240.477 559.564 241.107C559.249 241.737 559.091 242.473 559.091 243.316C559.091 244.159 559.249 244.901 559.564 245.541C559.889 246.171 560.341 246.664 560.92 247.019C561.499 247.364 562.164 247.537 562.916 247.537C563.668 247.537 564.308 247.349 564.836 246.973C565.375 246.597 565.766 246.105 566.009 245.495L567.625 246.257C567.432 246.765 567.117 247.243 566.68 247.69C566.243 248.137 565.705 248.497 565.065 248.771C564.435 249.046 563.719 249.183 562.916 249.183ZM573.134 249.183C572.342 249.183 571.616 248.995 570.955 248.619C570.305 248.243 569.787 247.73 569.401 247.08C569.015 246.43 568.822 245.693 568.822 244.87C568.822 244.037 569.015 243.301 569.401 242.661C569.787 242.011 570.305 241.503 570.955 241.137C571.606 240.761 572.332 240.573 573.134 240.573C573.947 240.573 574.673 240.761 575.313 241.137C575.964 241.503 576.477 242.011 576.852 242.661C577.239 243.301 577.432 244.037 577.432 244.87C577.432 245.704 577.239 246.445 576.852 247.095C576.466 247.745 575.948 248.258 575.298 248.634C574.648 249 573.927 249.183 573.134 249.183ZM573.134 247.583C573.622 247.583 574.054 247.466 574.43 247.232C574.806 246.999 575.1 246.679 575.313 246.272C575.537 245.856 575.649 245.389 575.649 244.87C575.649 244.352 575.537 243.89 575.313 243.484C575.1 243.077 574.806 242.757 574.43 242.524C574.054 242.29 573.622 242.173 573.134 242.173C572.657 242.173 572.225 242.29 571.839 242.524C571.463 242.757 571.164 243.077 570.94 243.484C570.727 243.89 570.62 244.352 570.62 244.87C570.62 245.389 570.727 245.856 570.94 246.272C571.164 246.679 571.463 246.999 571.839 247.232C572.225 247.466 572.657 247.583 573.134 247.583ZM579.113 249V237.465H580.834V249H579.113ZM582.848 249V237.465H584.57V249H582.848ZM590.453 249.183C589.63 249.183 588.899 248.995 588.259 248.619C587.629 248.233 587.136 247.715 586.781 247.065C586.425 246.404 586.248 245.668 586.248 244.855C586.248 244.022 586.425 243.286 586.781 242.646C587.147 242.006 587.634 241.503 588.244 241.137C588.853 240.761 589.544 240.573 590.316 240.573C590.936 240.573 591.489 240.68 591.977 240.893C592.465 241.107 592.876 241.401 593.211 241.777C593.547 242.143 593.801 242.564 593.973 243.042C594.156 243.519 594.248 244.027 594.248 244.566C594.248 244.698 594.242 244.835 594.232 244.977C594.222 245.119 594.202 245.251 594.171 245.373H587.604V244.002H593.196L592.373 244.627C592.475 244.129 592.439 243.687 592.267 243.301C592.104 242.905 591.85 242.595 591.505 242.371C591.169 242.138 590.773 242.021 590.316 242.021C589.859 242.021 589.453 242.138 589.097 242.371C588.742 242.595 588.467 242.92 588.274 243.347C588.081 243.763 588.005 244.271 588.046 244.87C587.995 245.429 588.071 245.917 588.274 246.333C588.488 246.75 588.782 247.075 589.158 247.309C589.544 247.542 589.981 247.659 590.469 247.659C590.966 247.659 591.388 247.547 591.733 247.324C592.089 247.1 592.368 246.811 592.571 246.455L593.973 247.141C593.811 247.527 593.557 247.877 593.211 248.192C592.876 248.497 592.47 248.741 591.992 248.924C591.525 249.097 591.012 249.183 590.453 249.183ZM599.844 249.183C599.021 249.183 598.29 248.995 597.65 248.619C597.02 248.233 596.517 247.715 596.141 247.065C595.776 246.415 595.593 245.678 595.593 244.855C595.593 244.043 595.776 243.311 596.141 242.661C596.507 242.011 597.01 241.503 597.65 241.137C598.29 240.761 599.021 240.573 599.844 240.573C600.403 240.573 600.926 240.675 601.414 240.878C601.901 241.071 602.323 241.34 602.678 241.686C603.044 242.031 603.313 242.432 603.486 242.89L601.978 243.59C601.805 243.164 601.525 242.824 601.139 242.57C600.764 242.305 600.332 242.173 599.844 242.173C599.377 242.173 598.955 242.29 598.579 242.524C598.214 242.747 597.924 243.067 597.711 243.484C597.498 243.89 597.391 244.352 597.391 244.87C597.391 245.389 597.498 245.856 597.711 246.272C597.924 246.679 598.214 246.999 598.579 247.232C598.955 247.466 599.377 247.583 599.844 247.583C600.342 247.583 600.774 247.456 601.139 247.202C601.515 246.938 601.795 246.587 601.978 246.15L603.486 246.867C603.324 247.303 603.059 247.7 602.694 248.055C602.338 248.401 601.917 248.675 601.429 248.878C600.941 249.081 600.413 249.183 599.844 249.183ZM608.735 249.091C607.871 249.091 607.201 248.848 606.723 248.36C606.246 247.872 606.007 247.187 606.007 246.303V242.311H604.56V240.756H604.788C605.174 240.756 605.474 240.644 605.687 240.421C605.9 240.197 606.007 239.893 606.007 239.507V238.867H607.729V240.756H609.603V242.311H607.729V246.227C607.729 246.511 607.775 246.755 607.866 246.958C607.958 247.151 608.105 247.303 608.308 247.415C608.511 247.517 608.775 247.568 609.1 247.568C609.182 247.568 609.273 247.563 609.375 247.552C609.476 247.542 609.573 247.532 609.664 247.522V249C609.522 249.02 609.365 249.041 609.192 249.061C609.019 249.081 608.867 249.091 608.735 249.091ZM611.345 249V240.756H613.066V249H611.345ZM611.345 239.629V237.648H613.066V239.629H611.345ZM619.057 249.183C618.264 249.183 617.538 248.995 616.878 248.619C616.228 248.243 615.71 247.73 615.324 247.08C614.937 246.43 614.744 245.693 614.744 244.87C614.744 244.037 614.937 243.301 615.324 242.661C615.71 242.011 616.228 241.503 616.878 241.137C617.528 240.761 618.254 240.573 619.057 240.573C619.87 240.573 620.596 240.761 621.236 241.137C621.886 241.503 622.399 242.011 622.775 242.661C623.161 243.301 623.354 244.037 623.354 244.87C623.354 245.704 623.161 246.445 622.775 247.095C622.389 247.745 621.871 248.258 621.221 248.634C620.57 249 619.849 249.183 619.057 249.183ZM619.057 247.583C619.544 247.583 619.976 247.466 620.352 247.232C620.728 246.999 621.023 246.679 621.236 246.272C621.459 245.856 621.571 245.389 621.571 244.87C621.571 244.352 621.459 243.89 621.236 243.484C621.023 243.077 620.728 242.757 620.352 242.524C619.976 242.29 619.544 242.173 619.057 242.173C618.579 242.173 618.148 242.29 617.762 242.524C617.386 242.757 617.086 243.077 616.863 243.484C616.649 243.89 616.543 244.352 616.543 244.87C616.543 245.389 616.649 245.856 616.863 246.272C617.086 246.679 617.386 246.999 617.762 247.232C618.148 247.466 618.579 247.583 619.057 247.583ZM625.035 249V240.756H626.681V242.371L626.483 242.158C626.686 241.64 627.011 241.249 627.458 240.985C627.905 240.711 628.423 240.573 629.012 240.573C629.622 240.573 630.16 240.705 630.627 240.97C631.095 241.234 631.46 241.599 631.725 242.067C631.989 242.534 632.121 243.072 632.121 243.682V249H630.414V244.139C630.414 243.723 630.338 243.372 630.185 243.088C630.033 242.793 629.815 242.57 629.53 242.417C629.256 242.255 628.941 242.173 628.585 242.173C628.23 242.173 627.91 242.255 627.625 242.417C627.351 242.57 627.138 242.793 626.985 243.088C626.833 243.382 626.757 243.733 626.757 244.139V249H625.035ZM640.086 249.183C639.416 249.183 638.827 249.061 638.319 248.817C637.811 248.563 637.409 248.213 637.115 247.766C636.83 247.309 636.688 246.78 636.688 246.181C636.688 245.673 636.78 245.231 636.962 244.855C637.145 244.469 637.374 244.144 637.648 243.88C637.922 243.606 638.197 243.377 638.471 243.194C638.745 243.011 638.974 242.869 639.157 242.768L640.086 242.25C640.391 242.077 640.681 241.894 640.955 241.701C641.229 241.508 641.453 241.29 641.625 241.046C641.798 240.802 641.884 240.528 641.884 240.223C641.884 239.857 641.762 239.552 641.519 239.309C641.275 239.055 640.97 238.928 640.604 238.928C640.239 238.928 639.934 239.05 639.69 239.293C639.446 239.537 639.324 239.852 639.324 240.238C639.324 240.502 639.385 240.761 639.507 241.015C639.639 241.269 639.792 241.508 639.964 241.731C640.147 241.945 640.325 242.148 640.498 242.341L646.593 249H644.444L639.218 243.377C638.974 243.113 638.73 242.834 638.486 242.539C638.253 242.234 638.055 241.899 637.892 241.533C637.74 241.168 637.663 240.761 637.663 240.314C637.663 239.735 637.795 239.232 638.06 238.806C638.334 238.379 638.689 238.049 639.126 237.815C639.573 237.582 640.061 237.465 640.589 237.465C641.128 237.465 641.615 237.587 642.052 237.831C642.489 238.064 642.834 238.389 643.088 238.806C643.352 239.222 643.484 239.695 643.484 240.223C643.484 240.771 643.357 241.244 643.103 241.64C642.849 242.036 642.54 242.371 642.174 242.646C641.818 242.92 641.483 243.154 641.168 243.347L640.239 243.895C639.995 244.037 639.736 244.215 639.462 244.429C639.197 244.632 638.974 244.876 638.791 245.16C638.608 245.434 638.517 245.764 638.517 246.15C638.517 246.628 638.664 246.999 638.959 247.263C639.263 247.527 639.66 247.659 640.147 247.659C640.462 247.659 640.741 247.608 640.985 247.507C641.229 247.405 641.442 247.273 641.625 247.11C641.818 246.948 641.986 246.77 642.128 246.577C642.281 246.374 642.418 246.186 642.54 246.013L644.307 243.423H646.151L644.109 246.592C643.947 246.836 643.754 247.11 643.53 247.415C643.307 247.71 643.037 247.994 642.722 248.269C642.408 248.533 642.032 248.751 641.595 248.924C641.168 249.097 640.665 249.183 640.086 249.183ZM651.259 249V237.648H655.389C656.15 237.648 656.821 237.79 657.4 238.074C657.979 238.349 658.431 238.755 658.756 239.293C659.091 239.822 659.259 240.457 659.259 241.198C659.259 241.98 659.061 242.651 658.665 243.21C658.279 243.768 657.756 244.175 657.095 244.429L659.716 249H657.674L654.886 244.048L656.059 244.733H653.057V249H651.259ZM653.057 243.133H655.419C655.836 243.133 656.196 243.052 656.501 242.89C656.806 242.727 657.039 242.504 657.202 242.219C657.375 241.924 657.461 241.579 657.461 241.183C657.461 240.787 657.375 240.446 657.202 240.162C657.039 239.867 656.806 239.644 656.501 239.491C656.196 239.329 655.836 239.248 655.419 239.248H653.057V243.133ZM664.471 249.183C663.648 249.183 662.917 248.995 662.277 248.619C661.647 248.233 661.154 247.715 660.798 247.065C660.443 246.404 660.265 245.668 660.265 244.855C660.265 244.022 660.443 243.286 660.798 242.646C661.164 242.006 661.652 241.503 662.261 241.137C662.871 240.761 663.562 240.573 664.334 240.573C664.953 240.573 665.507 240.68 665.995 240.893C666.482 241.107 666.894 241.401 667.229 241.777C667.564 242.143 667.818 242.564 667.991 243.042C668.174 243.519 668.265 244.027 668.265 244.566C668.265 244.698 668.26 244.835 668.25 244.977C668.24 245.119 668.219 245.251 668.189 245.373H661.621V244.002H667.214L666.391 244.627C666.492 244.129 666.457 243.687 666.284 243.301C666.122 242.905 665.868 242.595 665.522 242.371C665.187 242.138 664.791 242.021 664.334 242.021C663.877 242.021 663.47 242.138 663.115 242.371C662.759 242.595 662.485 242.92 662.292 243.347C662.099 243.763 662.023 244.271 662.063 244.87C662.012 245.429 662.089 245.917 662.292 246.333C662.505 246.75 662.8 247.075 663.176 247.309C663.562 247.542 663.998 247.659 664.486 247.659C664.984 247.659 665.405 247.547 665.751 247.324C666.106 247.1 666.386 246.811 666.589 246.455L667.991 247.141C667.828 247.527 667.574 247.877 667.229 248.192C666.894 248.497 666.487 248.741 666.01 248.924C665.543 249.097 665.03 249.183 664.471 249.183ZM669.946 252.048V240.756H671.591V242.463L671.393 242.067C671.698 241.599 672.104 241.234 672.612 240.97C673.12 240.705 673.699 240.573 674.349 240.573C675.132 240.573 675.833 240.761 676.452 241.137C677.082 241.513 677.575 242.026 677.93 242.676C678.296 243.326 678.479 244.058 678.479 244.87C678.479 245.683 678.296 246.415 677.93 247.065C677.575 247.715 677.087 248.233 676.467 248.619C675.848 248.995 675.142 249.183 674.349 249.183C673.709 249.183 673.125 249.051 672.597 248.787C672.079 248.523 671.678 248.142 671.393 247.644L671.667 247.324V252.048H669.946ZM674.182 247.583C674.669 247.583 675.101 247.466 675.477 247.232C675.853 246.999 676.147 246.679 676.361 246.272C676.584 245.856 676.696 245.389 676.696 244.87C676.696 244.352 676.584 243.89 676.361 243.484C676.147 243.077 675.853 242.757 675.477 242.524C675.101 242.29 674.669 242.173 674.182 242.173C673.704 242.173 673.273 242.29 672.886 242.524C672.511 242.757 672.211 243.077 671.987 243.484C671.774 243.89 671.667 244.352 671.667 244.87C671.667 245.389 671.774 245.856 671.987 246.272C672.211 246.679 672.511 246.999 672.886 247.232C673.273 247.466 673.704 247.583 674.182 247.583ZM684.131 249.183C683.339 249.183 682.612 248.995 681.952 248.619C681.302 248.243 680.784 247.73 680.398 247.08C680.012 246.43 679.819 245.693 679.819 244.87C679.819 244.037 680.012 243.301 680.398 242.661C680.784 242.011 681.302 241.503 681.952 241.137C682.602 240.761 683.328 240.573 684.131 240.573C684.944 240.573 685.67 240.761 686.31 241.137C686.96 241.503 687.473 242.011 687.849 242.661C688.235 243.301 688.428 244.037 688.428 244.87C688.428 245.704 688.235 246.445 687.849 247.095C687.463 247.745 686.945 248.258 686.295 248.634C685.645 249 684.923 249.183 684.131 249.183ZM684.131 247.583C684.619 247.583 685.05 247.466 685.426 247.232C685.802 246.999 686.097 246.679 686.31 246.272C686.533 245.856 686.645 245.389 686.645 244.87C686.645 244.352 686.533 243.89 686.31 243.484C686.097 243.077 685.802 242.757 685.426 242.524C685.05 242.29 684.619 242.173 684.131 242.173C683.653 242.173 683.222 242.29 682.836 242.524C682.46 242.757 682.16 243.077 681.937 243.484C681.723 243.89 681.617 244.352 681.617 244.87C681.617 245.389 681.723 245.856 681.937 246.272C682.16 246.679 682.46 246.999 682.836 247.232C683.222 247.466 683.653 247.583 684.131 247.583ZM690.109 249V240.756H691.755V242.417L691.602 242.173C691.785 241.635 692.08 241.249 692.486 241.015C692.893 240.771 693.38 240.65 693.949 240.65H694.452V242.219H693.736C693.167 242.219 692.705 242.397 692.349 242.752C692.004 243.098 691.831 243.596 691.831 244.246V249H690.109ZM699.344 249.091C698.481 249.091 697.811 248.848 697.333 248.36C696.856 247.872 696.617 247.187 696.617 246.303V242.311H695.169V240.756H695.398C695.784 240.756 696.084 240.644 696.297 240.421C696.51 240.197 696.617 239.893 696.617 239.507V238.867H698.339V240.756H700.213V242.311H698.339V246.227C698.339 246.511 698.384 246.755 698.476 246.958C698.567 247.151 698.715 247.303 698.918 247.415C699.121 247.517 699.385 247.568 699.71 247.568C699.791 247.568 699.883 247.563 699.984 247.552C700.086 247.542 700.183 247.532 700.274 247.522V249C700.132 249.02 699.974 249.041 699.802 249.061C699.629 249.081 699.477 249.091 699.344 249.091ZM701.954 249V240.756H703.676V249H701.954ZM701.954 239.629V237.648H703.676V239.629H701.954ZM705.689 249V240.756H707.335V242.371L707.137 242.158C707.34 241.64 707.665 241.249 708.112 240.985C708.559 240.711 709.077 240.573 709.667 240.573C710.276 240.573 710.814 240.705 711.282 240.97C711.749 241.234 712.115 241.599 712.379 242.067C712.643 242.534 712.775 243.072 712.775 243.682V249H711.068V244.139C711.068 243.723 710.992 243.372 710.84 243.088C710.687 242.793 710.469 242.57 710.185 242.417C709.91 242.255 709.595 242.173 709.24 242.173C708.884 242.173 708.564 242.255 708.28 242.417C708.006 242.57 707.792 242.793 707.64 243.088C707.488 243.382 707.411 243.733 707.411 244.139V249H705.689ZM718.595 252.352C717.996 252.352 717.442 252.256 716.934 252.063C716.426 251.87 715.989 251.601 715.624 251.255C715.258 250.92 714.984 250.524 714.801 250.067L716.386 249.411C716.528 249.797 716.787 250.117 717.163 250.371C717.549 250.625 718.021 250.752 718.58 250.752C719.017 250.752 719.408 250.666 719.753 250.493C720.099 250.331 720.373 250.087 720.576 249.762C720.779 249.447 720.881 249.066 720.881 248.619V246.76L721.186 247.11C720.901 247.639 720.505 248.04 719.997 248.314C719.499 248.589 718.935 248.726 718.306 248.726C717.544 248.726 716.858 248.548 716.248 248.192C715.639 247.837 715.156 247.349 714.801 246.73C714.455 246.11 714.283 245.414 714.283 244.642C714.283 243.86 714.455 243.164 714.801 242.554C715.156 241.945 715.634 241.462 716.233 241.107C716.833 240.751 717.518 240.573 718.29 240.573C718.92 240.573 719.479 240.711 719.967 240.985C720.464 241.249 720.871 241.635 721.186 242.143L720.957 242.57V240.756H722.587V248.619C722.587 249.33 722.415 249.965 722.069 250.524C721.734 251.093 721.267 251.54 720.667 251.865C720.068 252.19 719.377 252.352 718.595 252.352ZM718.504 247.126C718.961 247.126 719.367 247.019 719.723 246.806C720.078 246.582 720.358 246.288 720.561 245.922C720.774 245.546 720.881 245.124 720.881 244.657C720.881 244.19 720.774 243.768 720.561 243.392C720.347 243.017 720.063 242.722 719.707 242.509C719.352 242.285 718.951 242.173 718.504 242.173C718.036 242.173 717.62 242.285 717.254 242.509C716.888 242.722 716.599 243.017 716.386 243.392C716.182 243.758 716.081 244.18 716.081 244.657C716.081 245.114 716.182 245.531 716.386 245.907C716.599 246.283 716.888 246.582 717.254 246.806C717.62 247.019 718.036 247.126 718.504 247.126Z" fill="#535353"/>
<rect x="226" y="335" width="393" height="77" rx="10.8843" fill="white"/>
<mask id="mask2_6_2154" style="mask-type:alpha" maskUnits="userSpaceOnUse" x="428" y="335" width="191" height="77">
<rect x="428" y="335" width="191" height="77" rx="10.8843" fill="white"/>
</mask>
<g mask="url(#mask2_6_2154)">
<path d="M570.254 380.075C535.329 373.481 513.272 357.102 500.123 340.47C512.477 342.333 526.869 343.31 543.587 343.068C633.709 341.762 648.621 402.75 644.811 433.408C645.9 420.528 632.512 391.83 570.254 380.075Z" fill="white"/>
<path d="M483.723 305.517C486.626 325.472 507.995 368.32 570.254 380.075C632.512 391.83 645.9 420.528 644.811 433.408C648.621 402.75 633.709 341.762 543.587 343.068C453.465 344.374 430.935 310.234 430.935 293" stroke="url(#paint4_linear_6_2154)" stroke-opacity="0.1" stroke-width="1.08843"/>
</g>
<path d="M296.19 378L292.168 366.648H294.103L297.394 376.339H297.013L300.289 366.648H302.225L298.202 378H296.19ZM306.504 378.183C305.681 378.183 304.95 377.995 304.31 377.619C303.68 377.233 303.187 376.715 302.832 376.065C302.476 375.404 302.298 374.668 302.298 373.855C302.298 373.022 302.476 372.286 302.832 371.646C303.197 371.006 303.685 370.503 304.295 370.137C304.904 369.761 305.595 369.573 306.367 369.573C306.987 369.573 307.54 369.68 308.028 369.893C308.516 370.107 308.927 370.401 309.262 370.777C309.597 371.143 309.851 371.564 310.024 372.042C310.207 372.519 310.298 373.027 310.298 373.566C310.298 373.698 310.293 373.835 310.283 373.977C310.273 374.119 310.253 374.251 310.222 374.373H303.655V373.002H309.247L308.424 373.627C308.526 373.129 308.49 372.687 308.317 372.301C308.155 371.905 307.901 371.595 307.556 371.371C307.22 371.138 306.824 371.021 306.367 371.021C305.91 371.021 305.503 371.138 305.148 371.371C304.792 371.595 304.518 371.92 304.325 372.347C304.132 372.763 304.056 373.271 304.096 373.87C304.046 374.429 304.122 374.917 304.325 375.333C304.538 375.75 304.833 376.075 305.209 376.309C305.595 376.542 306.032 376.659 306.519 376.659C307.017 376.659 307.439 376.547 307.784 376.324C308.14 376.1 308.419 375.811 308.622 375.455L310.024 376.141C309.862 376.527 309.608 376.877 309.262 377.192C308.927 377.497 308.521 377.741 308.043 377.924C307.576 378.097 307.063 378.183 306.504 378.183ZM311.979 378V369.756H313.625V371.417L313.472 371.173C313.655 370.635 313.95 370.249 314.356 370.015C314.762 369.771 315.25 369.65 315.819 369.65H316.322V371.219H315.605C315.037 371.219 314.574 371.397 314.219 371.752C313.873 372.098 313.701 372.596 313.701 373.246V378H311.979ZM317.5 378V369.756H319.222V378H317.5ZM317.5 368.629V366.648H319.222V368.629H317.5ZM322.164 378V371.311H320.64V369.756H322.164V369.33C322.164 368.71 322.291 368.192 322.545 367.775C322.799 367.349 323.15 367.024 323.597 366.8C324.054 366.577 324.577 366.465 325.166 366.465C325.278 366.465 325.405 366.475 325.547 366.495C325.689 366.505 325.806 366.521 325.898 366.541V368.034C325.816 368.014 325.725 368.004 325.623 368.004C325.522 367.994 325.44 367.989 325.379 367.989C324.922 367.989 324.557 368.095 324.282 368.309C324.008 368.512 323.871 368.852 323.871 369.33V369.756H327.818V371.311H323.871V378H322.164ZM327.01 378V369.756H328.717V378H327.01ZM334.451 378.183C333.629 378.183 332.897 377.995 332.257 377.619C331.627 377.233 331.125 376.715 330.749 376.065C330.383 375.415 330.2 374.678 330.2 373.855C330.2 373.043 330.383 372.311 330.749 371.661C331.114 371.011 331.617 370.503 332.257 370.137C332.897 369.761 333.629 369.573 334.451 369.573C335.01 369.573 335.533 369.675 336.021 369.878C336.509 370.071 336.93 370.34 337.286 370.686C337.651 371.031 337.921 371.432 338.093 371.89L336.585 372.59C336.412 372.164 336.133 371.824 335.747 371.57C335.371 371.305 334.939 371.173 334.451 371.173C333.984 371.173 333.563 371.29 333.187 371.524C332.821 371.747 332.531 372.067 332.318 372.484C332.105 372.89 331.998 373.352 331.998 373.87C331.998 374.389 332.105 374.856 332.318 375.272C332.531 375.679 332.821 375.999 333.187 376.232C333.563 376.466 333.984 376.583 334.451 376.583C334.949 376.583 335.381 376.456 335.747 376.202C336.123 375.938 336.402 375.587 336.585 375.15L338.093 375.867C337.931 376.303 337.667 376.7 337.301 377.055C336.945 377.401 336.524 377.675 336.036 377.878C335.549 378.081 335.02 378.183 334.451 378.183ZM342.17 378.183C341.612 378.183 341.119 378.086 340.692 377.893C340.276 377.69 339.951 377.416 339.717 377.07C339.484 376.715 339.367 376.298 339.367 375.821C339.367 375.374 339.463 374.973 339.656 374.617C339.859 374.262 340.169 373.962 340.586 373.718C341.002 373.474 341.525 373.302 342.155 373.2L345.02 372.728V374.084L342.49 374.526C342.033 374.607 341.698 374.754 341.485 374.968C341.271 375.171 341.165 375.435 341.165 375.76C341.165 376.075 341.282 376.334 341.515 376.537C341.759 376.73 342.069 376.827 342.445 376.827C342.912 376.827 343.318 376.725 343.664 376.522C344.019 376.319 344.294 376.05 344.487 375.714C344.68 375.369 344.776 374.988 344.776 374.571V372.453C344.776 372.047 344.624 371.717 344.319 371.463C344.024 371.199 343.628 371.067 343.13 371.067C342.673 371.067 342.272 371.189 341.927 371.432C341.591 371.666 341.343 371.971 341.18 372.347L339.748 371.631C339.9 371.224 340.149 370.869 340.494 370.564C340.84 370.249 341.241 370.005 341.698 369.832C342.165 369.66 342.658 369.573 343.176 369.573C343.826 369.573 344.4 369.695 344.898 369.939C345.406 370.183 345.797 370.523 346.071 370.96C346.356 371.387 346.498 371.884 346.498 372.453V378H344.852V376.507L345.203 376.552C345.01 376.888 344.761 377.177 344.456 377.421C344.162 377.665 343.821 377.853 343.435 377.985C343.059 378.117 342.638 378.183 342.17 378.183ZM351.928 378.091C351.065 378.091 350.394 377.848 349.917 377.36C349.439 376.872 349.201 376.187 349.201 375.303V371.311H347.753V369.756H347.982C348.368 369.756 348.667 369.644 348.881 369.421C349.094 369.197 349.201 368.893 349.201 368.507V367.867H350.923V369.756H352.797V371.311H350.923V375.227C350.923 375.511 350.968 375.755 351.06 375.958C351.151 376.151 351.298 376.303 351.502 376.415C351.705 376.517 351.969 376.568 352.294 376.568C352.375 376.568 352.467 376.563 352.568 376.552C352.67 376.542 352.766 376.532 352.858 376.522V378C352.716 378.02 352.558 378.041 352.385 378.061C352.213 378.081 352.06 378.091 351.928 378.091ZM354.538 378V369.756H356.26V378H354.538ZM354.538 368.629V366.648H356.26V368.629H354.538ZM362.25 378.183C361.458 378.183 360.732 377.995 360.071 377.619C359.421 377.243 358.903 376.73 358.517 376.08C358.131 375.43 357.938 374.693 357.938 373.87C357.938 373.037 358.131 372.301 358.517 371.661C358.903 371.011 359.421 370.503 360.071 370.137C360.722 369.761 361.448 369.573 362.25 369.573C363.063 369.573 363.789 369.761 364.429 370.137C365.08 370.503 365.593 371.011 365.968 371.661C366.355 372.301 366.548 373.037 366.548 373.87C366.548 374.704 366.355 375.445 365.968 376.095C365.582 376.745 365.064 377.258 364.414 377.634C363.764 378 363.043 378.183 362.25 378.183ZM362.25 376.583C362.738 376.583 363.17 376.466 363.546 376.232C363.922 375.999 364.216 375.679 364.429 375.272C364.653 374.856 364.765 374.389 364.765 373.87C364.765 373.352 364.653 372.89 364.429 372.484C364.216 372.077 363.922 371.757 363.546 371.524C363.17 371.29 362.738 371.173 362.25 371.173C361.773 371.173 361.341 371.29 360.955 371.524C360.579 371.757 360.28 372.077 360.056 372.484C359.843 372.89 359.736 373.352 359.736 373.87C359.736 374.389 359.843 374.856 360.056 375.272C360.28 375.679 360.579 375.999 360.955 376.232C361.341 376.466 361.773 376.583 362.25 376.583ZM368.229 378V369.756H369.874V371.371L369.676 371.158C369.879 370.64 370.204 370.249 370.651 369.985C371.098 369.711 371.617 369.573 372.206 369.573C372.815 369.573 373.354 369.705 373.821 369.97C374.288 370.234 374.654 370.599 374.918 371.067C375.182 371.534 375.314 372.072 375.314 372.682V378H373.608V373.139C373.608 372.723 373.531 372.372 373.379 372.088C373.227 371.793 373.008 371.57 372.724 371.417C372.45 371.255 372.135 371.173 371.779 371.173C371.424 371.173 371.104 371.255 370.819 371.417C370.545 371.57 370.331 371.793 370.179 372.088C370.027 372.382 369.951 372.733 369.951 373.139V378H368.229ZM383.28 378.183C382.609 378.183 382.02 378.061 381.512 377.817C381.004 377.563 380.603 377.213 380.308 376.766C380.024 376.309 379.882 375.78 379.882 375.181C379.882 374.673 379.973 374.231 380.156 373.855C380.339 373.469 380.567 373.144 380.842 372.88C381.116 372.606 381.39 372.377 381.665 372.194C381.939 372.011 382.167 371.869 382.35 371.768L383.28 371.25C383.585 371.077 383.874 370.894 384.148 370.701C384.423 370.508 384.646 370.29 384.819 370.046C384.992 369.802 385.078 369.528 385.078 369.223C385.078 368.857 384.956 368.552 384.712 368.309C384.468 368.055 384.164 367.928 383.798 367.928C383.432 367.928 383.127 368.05 382.884 368.293C382.64 368.537 382.518 368.852 382.518 369.238C382.518 369.502 382.579 369.761 382.701 370.015C382.833 370.269 382.985 370.508 383.158 370.731C383.341 370.945 383.519 371.148 383.691 371.341L389.786 378H387.638L382.411 372.377C382.167 372.113 381.924 371.834 381.68 371.539C381.446 371.234 381.248 370.899 381.086 370.533C380.933 370.168 380.857 369.761 380.857 369.314C380.857 368.735 380.989 368.232 381.253 367.806C381.527 367.379 381.883 367.049 382.32 366.815C382.767 366.582 383.254 366.465 383.783 366.465C384.321 366.465 384.809 366.587 385.246 366.831C385.682 367.064 386.028 367.389 386.282 367.806C386.546 368.222 386.678 368.695 386.678 369.223C386.678 369.771 386.551 370.244 386.297 370.64C386.043 371.036 385.733 371.371 385.367 371.646C385.012 371.92 384.677 372.154 384.362 372.347L383.432 372.895C383.188 373.037 382.929 373.215 382.655 373.429C382.391 373.632 382.167 373.876 381.985 374.16C381.802 374.434 381.71 374.764 381.71 375.15C381.71 375.628 381.858 375.999 382.152 376.263C382.457 376.527 382.853 376.659 383.341 376.659C383.656 376.659 383.935 376.608 384.179 376.507C384.423 376.405 384.636 376.273 384.819 376.11C385.012 375.948 385.18 375.77 385.322 375.577C385.474 375.374 385.611 375.186 385.733 375.013L387.501 372.423H389.345L387.303 375.592C387.14 375.836 386.947 376.11 386.724 376.415C386.5 376.71 386.231 376.994 385.916 377.269C385.601 377.533 385.225 377.751 384.788 377.924C384.362 378.097 383.859 378.183 383.28 378.183ZM397.47 378L393.447 366.648H395.382L398.674 376.339H398.293L401.569 366.648H403.504L399.481 378H397.47ZM406.53 378.183C405.972 378.183 405.479 378.086 405.052 377.893C404.636 377.69 404.311 377.416 404.077 377.07C403.843 376.715 403.727 376.298 403.727 375.821C403.727 375.374 403.823 374.973 404.016 374.617C404.219 374.262 404.529 373.962 404.946 373.718C405.362 373.474 405.885 373.302 406.515 373.2L409.38 372.728V374.084L406.85 374.526C406.393 374.607 406.058 374.754 405.845 374.968C405.631 375.171 405.525 375.435 405.525 375.76C405.525 376.075 405.641 376.334 405.875 376.537C406.119 376.73 406.429 376.827 406.805 376.827C407.272 376.827 407.678 376.725 408.024 376.522C408.379 376.319 408.654 376.05 408.847 375.714C409.04 375.369 409.136 374.988 409.136 374.571V372.453C409.136 372.047 408.984 371.717 408.679 371.463C408.384 371.199 407.988 371.067 407.49 371.067C407.033 371.067 406.632 371.189 406.287 371.432C405.951 371.666 405.702 371.971 405.54 372.347L404.107 371.631C404.26 371.224 404.509 370.869 404.854 370.564C405.2 370.249 405.601 370.005 406.058 369.832C406.525 369.66 407.018 369.573 407.536 369.573C408.186 369.573 408.76 369.695 409.258 369.939C409.766 370.183 410.157 370.523 410.431 370.96C410.716 371.387 410.858 371.884 410.858 372.453V378H409.212V376.507L409.563 376.552C409.37 376.888 409.121 377.177 408.816 377.421C408.521 377.665 408.181 377.853 407.795 377.985C407.419 378.117 406.998 378.183 406.53 378.183ZM412.871 378V366.465H414.593V378H412.871ZM416.606 378V369.756H418.328V378H416.606ZM416.606 368.629V366.648H418.328V368.629H416.606ZM424.151 378.183C423.359 378.183 422.647 377.995 422.018 377.619C421.398 377.233 420.905 376.715 420.54 376.065C420.184 375.415 420.006 374.683 420.006 373.87C420.006 373.058 420.189 372.326 420.555 371.676C420.921 371.026 421.413 370.513 422.033 370.137C422.653 369.761 423.354 369.573 424.136 369.573C424.796 369.573 425.38 369.705 425.888 369.97C426.396 370.234 426.797 370.599 427.092 371.067L426.833 371.463V366.465H428.54V378H426.909V376.324L427.107 376.644C426.823 377.142 426.416 377.523 425.888 377.787C425.36 378.051 424.781 378.183 424.151 378.183ZM424.319 376.583C424.796 376.583 425.223 376.466 425.599 376.232C425.985 375.999 426.284 375.679 426.498 375.272C426.721 374.856 426.833 374.389 426.833 373.87C426.833 373.352 426.721 372.89 426.498 372.484C426.284 372.077 425.985 371.757 425.599 371.524C425.223 371.29 424.796 371.173 424.319 371.173C423.841 371.173 423.409 371.29 423.023 371.524C422.637 371.757 422.338 372.077 422.124 372.484C421.911 372.89 421.804 373.352 421.804 373.87C421.804 374.389 421.911 374.856 422.124 375.272C422.338 375.679 422.632 375.999 423.008 376.232C423.394 376.466 423.831 376.583 424.319 376.583ZM433.018 378.183C432.46 378.183 431.967 378.086 431.54 377.893C431.124 377.69 430.799 377.416 430.565 377.07C430.331 376.715 430.215 376.298 430.215 375.821C430.215 375.374 430.311 374.973 430.504 374.617C430.707 374.262 431.017 373.962 431.434 373.718C431.85 373.474 432.373 373.302 433.003 373.2L435.868 372.728V374.084L433.338 374.526C432.881 374.607 432.546 374.754 432.333 374.968C432.119 375.171 432.013 375.435 432.013 375.76C432.013 376.075 432.129 376.334 432.363 376.537C432.607 376.73 432.917 376.827 433.293 376.827C433.76 376.827 434.166 376.725 434.512 376.522C434.867 376.319 435.141 376.05 435.335 375.714C435.528 375.369 435.624 374.988 435.624 374.571V372.453C435.624 372.047 435.472 371.717 435.167 371.463C434.872 371.199 434.476 371.067 433.978 371.067C433.521 371.067 433.12 371.189 432.775 371.432C432.439 371.666 432.19 371.971 432.028 372.347L430.595 371.631C430.748 371.224 430.997 370.869 431.342 370.564C431.688 370.249 432.089 370.005 432.546 369.832C433.013 369.66 433.506 369.573 434.024 369.573C434.674 369.573 435.248 369.695 435.746 369.939C436.254 370.183 436.645 370.523 436.919 370.96C437.204 371.387 437.346 371.884 437.346 372.453V378H435.7V376.507L436.051 376.552C435.858 376.888 435.609 377.177 435.304 377.421C435.009 377.665 434.669 377.853 434.283 377.985C433.907 378.117 433.486 378.183 433.018 378.183ZM442.776 378.091C441.913 378.091 441.242 377.848 440.765 377.36C440.287 376.872 440.049 376.187 440.049 375.303V371.311H438.601V369.756H438.829C439.216 369.756 439.515 369.644 439.729 369.421C439.942 369.197 440.049 368.893 440.049 368.507V367.867H441.77V369.756H443.645V371.311H441.77V375.227C441.77 375.511 441.816 375.755 441.908 375.958C441.999 376.151 442.146 376.303 442.349 376.415C442.553 376.517 442.817 376.568 443.142 376.568C443.223 376.568 443.315 376.563 443.416 376.552C443.518 376.542 443.614 376.532 443.706 376.522V378C443.563 378.02 443.406 378.041 443.233 378.061C443.061 378.081 442.908 378.091 442.776 378.091ZM445.386 378V369.756H447.108V378H445.386ZM445.386 368.629V366.648H447.108V368.629H445.386ZM453.098 378.183C452.306 378.183 451.58 377.995 450.919 377.619C450.269 377.243 449.751 376.73 449.365 376.08C448.979 375.43 448.786 374.693 448.786 373.87C448.786 373.037 448.979 372.301 449.365 371.661C449.751 371.011 450.269 370.503 450.919 370.137C451.569 369.761 452.296 369.573 453.098 369.573C453.911 369.573 454.637 369.761 455.277 370.137C455.927 370.503 456.44 371.011 456.816 371.661C457.202 372.301 457.395 373.037 457.395 373.87C457.395 374.704 457.202 375.445 456.816 376.095C456.43 376.745 455.912 377.258 455.262 377.634C454.612 378 453.891 378.183 453.098 378.183ZM453.098 376.583C453.586 376.583 454.018 376.466 454.393 376.232C454.769 375.999 455.064 375.679 455.277 375.272C455.501 374.856 455.613 374.389 455.613 373.87C455.613 373.352 455.501 372.89 455.277 372.484C455.064 372.077 454.769 371.757 454.393 371.524C454.018 371.29 453.586 371.173 453.098 371.173C452.621 371.173 452.189 371.29 451.803 371.524C451.427 371.757 451.127 372.077 450.904 372.484C450.691 372.89 450.584 373.352 450.584 373.87C450.584 374.389 450.691 374.856 450.904 375.272C451.127 375.679 451.427 375.999 451.803 376.232C452.189 376.466 452.621 376.583 453.098 376.583ZM459.076 378V369.756H460.722V371.371L460.524 371.158C460.727 370.64 461.052 370.249 461.499 369.985C461.946 369.711 462.464 369.573 463.054 369.573C463.663 369.573 464.201 369.705 464.669 369.97C465.136 370.234 465.502 370.599 465.766 371.067C466.03 371.534 466.162 372.072 466.162 372.682V378H464.455V373.139C464.455 372.723 464.379 372.372 464.227 372.088C464.074 371.793 463.856 371.57 463.572 371.417C463.297 371.255 462.982 371.173 462.627 371.173C462.271 371.173 461.951 371.255 461.667 371.417C461.393 371.57 461.179 371.793 461.027 372.088C460.875 372.382 460.798 372.733 460.798 373.139V378H459.076ZM473.091 380.438C472.258 379.463 471.629 378.396 471.202 377.238C470.775 376.08 470.562 374.846 470.562 373.535C470.562 372.215 470.775 370.975 471.202 369.817C471.629 368.659 472.258 367.603 473.091 366.648H474.539C473.818 367.714 473.269 368.827 472.893 369.985C472.528 371.133 472.345 372.316 472.345 373.535C472.345 374.744 472.528 375.933 472.893 377.101C473.269 378.259 473.818 379.371 474.539 380.438H473.091ZM476.178 378V366.648H480.308C481.07 366.648 481.74 366.79 482.319 367.074C482.909 367.349 483.366 367.755 483.691 368.293C484.016 368.822 484.178 369.457 484.178 370.198C484.178 370.93 484.011 371.559 483.676 372.088C483.351 372.616 482.898 373.022 482.319 373.307C481.74 373.591 481.07 373.733 480.308 373.733H477.977V378H476.178ZM477.977 372.133H480.354C480.76 372.133 481.116 372.052 481.42 371.89C481.725 371.727 481.964 371.504 482.137 371.219C482.309 370.924 482.396 370.579 482.396 370.183C482.396 369.787 482.309 369.446 482.137 369.162C481.964 368.867 481.725 368.644 481.42 368.491C481.116 368.329 480.76 368.248 480.354 368.248H477.977V372.133ZM485.618 378V376.705L488.727 373.383C489.336 372.733 489.814 372.21 490.159 371.813C490.515 371.407 490.769 371.051 490.921 370.747C491.084 370.442 491.165 370.122 491.165 369.787C491.165 369.238 490.997 368.817 490.662 368.522C490.327 368.217 489.895 368.065 489.367 368.065C488.818 368.065 488.346 368.222 487.95 368.537C487.553 368.842 487.279 369.289 487.127 369.878L485.542 369.421C485.664 368.822 485.908 368.304 486.273 367.867C486.639 367.42 487.086 367.074 487.614 366.831C488.153 366.587 488.732 366.465 489.352 366.465C490.073 366.465 490.703 366.602 491.241 366.876C491.779 367.14 492.196 367.511 492.491 367.989C492.795 368.466 492.948 369.02 492.948 369.65C492.948 370.066 492.866 370.472 492.704 370.869C492.552 371.255 492.313 371.666 491.988 372.103C491.663 372.53 491.246 373.012 490.738 373.55L487.995 376.476H493.161V378H485.618ZM495.137 378V366.648H499.266C500.028 366.648 500.699 366.79 501.278 367.074C501.867 367.349 502.324 367.755 502.649 368.293C502.974 368.822 503.137 369.457 503.137 370.198C503.137 370.93 502.969 371.559 502.634 372.088C502.309 372.616 501.857 373.022 501.278 373.307C500.699 373.591 500.028 373.733 499.266 373.733H496.935V378H495.137ZM496.935 372.133H499.312C499.718 372.133 500.074 372.052 500.379 371.89C500.683 371.727 500.922 371.504 501.095 371.219C501.268 370.924 501.354 370.579 501.354 370.183C501.354 369.787 501.268 369.446 501.095 369.162C500.922 368.867 500.683 368.644 500.379 368.491C500.074 368.329 499.718 368.248 499.312 368.248H496.935V372.133ZM510.669 378L506.646 366.648H508.581L511.873 376.339H511.492L514.768 366.648H516.703L512.68 378H510.669ZM519.729 378.183C519.171 378.183 518.678 378.086 518.251 377.893C517.835 377.69 517.51 377.416 517.276 377.07C517.042 376.715 516.925 376.298 516.925 375.821C516.925 375.374 517.022 374.973 517.215 374.617C517.418 374.262 517.728 373.962 518.145 373.718C518.561 373.474 519.084 373.302 519.714 373.2L522.579 372.728V374.084L520.049 374.526C519.592 374.607 519.257 374.754 519.044 374.968C518.83 375.171 518.724 375.435 518.724 375.76C518.724 376.075 518.84 376.334 519.074 376.537C519.318 376.73 519.628 376.827 520.004 376.827C520.471 376.827 520.877 376.725 521.223 376.522C521.578 376.319 521.852 376.05 522.045 375.714C522.238 375.369 522.335 374.988 522.335 374.571V372.453C522.335 372.047 522.183 371.717 521.878 371.463C521.583 371.199 521.187 371.067 520.689 371.067C520.232 371.067 519.831 371.189 519.485 371.432C519.15 371.666 518.901 371.971 518.739 372.347L517.306 371.631C517.459 371.224 517.708 370.869 518.053 370.564C518.398 370.249 518.8 370.005 519.257 369.832C519.724 369.66 520.217 369.573 520.735 369.573C521.385 369.573 521.959 369.695 522.457 369.939C522.965 370.183 523.356 370.523 523.63 370.96C523.915 371.387 524.057 371.884 524.057 372.453V378H522.411V376.507L522.762 376.552C522.569 376.888 522.32 377.177 522.015 377.421C521.72 377.665 521.38 377.853 520.994 377.985C520.618 378.117 520.197 378.183 519.729 378.183ZM526.07 378V366.465H527.792V378H526.07ZM529.805 378V369.756H531.527V378H529.805ZM529.805 368.629V366.648H531.527V368.629H529.805ZM537.35 378.183C536.558 378.183 535.846 377.995 535.217 377.619C534.597 377.233 534.104 376.715 533.738 376.065C533.383 375.415 533.205 374.683 533.205 373.87C533.205 373.058 533.388 372.326 533.754 371.676C534.119 371.026 534.612 370.513 535.232 370.137C535.851 369.761 536.552 369.573 537.335 369.573C537.995 369.573 538.579 369.705 539.087 369.97C539.595 370.234 539.996 370.599 540.291 371.067L540.032 371.463V366.465H541.738V378H540.108V376.324L540.306 376.644C540.022 377.142 539.615 377.523 539.087 377.787C538.559 378.051 537.98 378.183 537.35 378.183ZM537.518 376.583C537.995 376.583 538.422 376.466 538.797 376.232C539.184 375.999 539.483 375.679 539.697 375.272C539.92 374.856 540.032 374.389 540.032 373.87C540.032 373.352 539.92 372.89 539.697 372.484C539.483 372.077 539.184 371.757 538.797 371.524C538.422 371.29 537.995 371.173 537.518 371.173C537.04 371.173 536.608 371.29 536.222 371.524C535.836 371.757 535.537 372.077 535.323 372.484C535.11 372.89 535.003 373.352 535.003 373.87C535.003 374.389 535.11 374.856 535.323 375.272C535.537 375.679 535.831 375.999 536.207 376.232C536.593 376.466 537.03 376.583 537.518 376.583ZM546.217 378.183C545.659 378.183 545.166 378.086 544.739 377.893C544.323 377.69 543.998 377.416 543.764 377.07C543.53 376.715 543.413 376.298 543.413 375.821C543.413 375.374 543.51 374.973 543.703 374.617C543.906 374.262 544.216 373.962 544.632 373.718C545.049 373.474 545.572 373.302 546.202 373.2L549.067 372.728V374.084L546.537 374.526C546.08 374.607 545.745 374.754 545.532 374.968C545.318 375.171 545.212 375.435 545.212 375.76C545.212 376.075 545.328 376.334 545.562 376.537C545.806 376.73 546.116 376.827 546.492 376.827C546.959 376.827 547.365 376.725 547.711 376.522C548.066 376.319 548.34 376.05 548.533 375.714C548.726 375.369 548.823 374.988 548.823 374.571V372.453C548.823 372.047 548.671 371.717 548.366 371.463C548.071 371.199 547.675 371.067 547.177 371.067C546.72 371.067 546.319 371.189 545.973 371.432C545.638 371.666 545.389 371.971 545.227 372.347L543.794 371.631C543.947 371.224 544.196 370.869 544.541 370.564C544.886 370.249 545.288 370.005 545.745 369.832C546.212 369.66 546.705 369.573 547.223 369.573C547.873 369.573 548.447 369.695 548.945 369.939C549.453 370.183 549.844 370.523 550.118 370.96C550.403 371.387 550.545 371.884 550.545 372.453V378H548.899V376.507L549.25 376.552C549.057 376.888 548.808 377.177 548.503 377.421C548.208 377.665 547.868 377.853 547.482 377.985C547.106 378.117 546.685 378.183 546.217 378.183ZM555.975 378.091C555.112 378.091 554.441 377.848 553.964 377.36C553.486 376.872 553.247 376.187 553.247 375.303V371.311H551.8V369.756H552.028C552.414 369.756 552.714 369.644 552.927 369.421C553.141 369.197 553.247 368.893 553.247 368.507V367.867H554.969V369.756H556.844V371.311H554.969V375.227C554.969 375.511 555.015 375.755 555.106 375.958C555.198 376.151 555.345 376.303 555.548 376.415C555.752 376.517 556.016 376.568 556.341 376.568C556.422 376.568 556.513 376.563 556.615 376.552C556.717 376.542 556.813 376.532 556.905 376.522V378C556.762 378.02 556.605 378.041 556.432 378.061C556.26 378.081 556.107 378.091 555.975 378.091ZM558.585 378V369.756H560.307V378H558.585ZM558.585 368.629V366.648H560.307V368.629H558.585ZM566.297 378.183C565.505 378.183 564.778 377.995 564.118 377.619C563.468 377.243 562.95 376.73 562.564 376.08C562.178 375.43 561.985 374.693 561.985 373.87C561.985 373.037 562.178 372.301 562.564 371.661C562.95 371.011 563.468 370.503 564.118 370.137C564.768 369.761 565.495 369.573 566.297 369.573C567.11 369.573 567.836 369.761 568.476 370.137C569.126 370.503 569.639 371.011 570.015 371.661C570.401 372.301 570.594 373.037 570.594 373.87C570.594 374.704 570.401 375.445 570.015 376.095C569.629 376.745 569.111 377.258 568.461 377.634C567.811 378 567.09 378.183 566.297 378.183ZM566.297 376.583C566.785 376.583 567.216 376.466 567.592 376.232C567.968 375.999 568.263 375.679 568.476 375.272C568.7 374.856 568.811 374.389 568.811 373.87C568.811 373.352 568.7 372.89 568.476 372.484C568.263 372.077 567.968 371.757 567.592 371.524C567.216 371.29 566.785 371.173 566.297 371.173C565.82 371.173 565.388 371.29 565.002 371.524C564.626 371.757 564.326 372.077 564.103 372.484C563.89 372.89 563.783 373.352 563.783 373.87C563.783 374.389 563.89 374.856 564.103 375.272C564.326 375.679 564.626 375.999 565.002 376.232C565.388 376.466 565.82 376.583 566.297 376.583ZM572.275 378V369.756H573.921V371.371L573.723 371.158C573.926 370.64 574.251 370.249 574.698 369.985C575.145 369.711 575.663 369.573 576.252 369.573C576.862 369.573 577.4 369.705 577.868 369.97C578.335 370.234 578.701 370.599 578.965 371.067C579.229 371.534 579.361 372.072 579.361 372.682V378H577.654V373.139C577.654 372.723 577.578 372.372 577.426 372.088C577.273 371.793 577.055 371.57 576.771 371.417C576.496 371.255 576.181 371.173 575.826 371.173C575.47 371.173 575.15 371.255 574.866 371.417C574.592 371.57 574.378 371.793 574.226 372.088C574.073 372.382 573.997 372.733 573.997 373.139V378H572.275ZM580.671 380.438C581.402 379.371 581.951 378.259 582.316 377.101C582.682 375.933 582.865 374.744 582.865 373.535C582.865 372.316 582.682 371.133 582.316 369.985C581.951 368.827 581.402 367.714 580.671 366.648H582.118C582.961 367.603 583.596 368.659 584.023 369.817C584.45 370.975 584.663 372.215 584.663 373.535C584.663 374.846 584.45 376.08 584.023 377.238C583.596 378.396 582.961 379.463 582.118 380.438H580.671Z" fill="#535353"/>
<rect x="648" y="335" width="393" height="77" rx="10.8843" fill="white"/>
<mask id="mask3_6_2154" style="mask-type:alpha" maskUnits="userSpaceOnUse" x="851" y="335" width="190" height="77">
<rect x="851" y="335" width="190" height="77" rx="10.8843" fill="white"/>
</mask>
<g mask="url(#mask3_6_2154)">
<path d="M990.319 377.333C955.395 383.927 933.337 400.305 920.188 416.938C932.542 415.075 946.934 414.097 963.653 414.34C1053.77 415.646 1068.69 354.657 1064.88 324C1065.97 336.88 1052.58 365.578 990.319 377.333Z" fill="white"/>
<path d="M903.789 451.891C906.691 431.936 928.061 389.088 990.319 377.333C1052.58 365.578 1065.97 336.88 1064.88 324C1068.69 354.657 1053.77 415.646 963.653 414.34C873.531 413.034 851 447.174 851 464.408" stroke="url(#paint5_linear_6_2154)" stroke-opacity="0.1" stroke-width="1.08843"/>
</g>
<path d="M715.173 379V367.648H719.303C720.065 367.648 720.735 367.79 721.314 368.074C721.893 368.349 722.345 368.755 722.67 369.293C723.006 369.822 723.173 370.457 723.173 371.198C723.173 371.98 722.975 372.651 722.579 373.21C722.193 373.768 721.67 374.175 721.009 374.429L723.63 379H721.589L718.8 374.048L719.973 374.733H716.971V379H715.173ZM716.971 373.133H719.333C719.75 373.133 720.11 373.052 720.415 372.89C720.72 372.727 720.954 372.504 721.116 372.219C721.289 371.924 721.375 371.579 721.375 371.183C721.375 370.787 721.289 370.446 721.116 370.162C720.954 369.867 720.72 369.644 720.415 369.491C720.11 369.329 719.75 369.248 719.333 369.248H716.971V373.133ZM728.385 379.183C727.562 379.183 726.831 378.995 726.191 378.619C725.561 378.233 725.068 377.715 724.713 377.065C724.357 376.404 724.179 375.668 724.179 374.855C724.179 374.022 724.357 373.286 724.713 372.646C725.078 372.006 725.566 371.503 726.176 371.137C726.785 370.761 727.476 370.573 728.248 370.573C728.868 370.573 729.421 370.68 729.909 370.893C730.396 371.107 730.808 371.401 731.143 371.777C731.478 372.143 731.732 372.564 731.905 373.042C732.088 373.519 732.179 374.027 732.179 374.566C732.179 374.698 732.174 374.835 732.164 374.977C732.154 375.119 732.134 375.251 732.103 375.373H725.536V374.002H731.128L730.305 374.627C730.407 374.129 730.371 373.687 730.198 373.301C730.036 372.905 729.782 372.595 729.436 372.371C729.101 372.138 728.705 372.021 728.248 372.021C727.791 372.021 727.384 372.138 727.029 372.371C726.673 372.595 726.399 372.92 726.206 373.347C726.013 373.763 725.937 374.271 725.977 374.87C725.927 375.429 726.003 375.917 726.206 376.333C726.419 376.75 726.714 377.075 727.09 377.309C727.476 377.542 727.913 377.659 728.4 377.659C728.898 377.659 729.32 377.547 729.665 377.324C730.021 377.1 730.3 376.811 730.503 376.455L731.905 377.141C731.743 377.527 731.489 377.877 731.143 378.192C730.808 378.497 730.402 378.741 729.924 378.924C729.457 379.097 728.944 379.183 728.385 379.183ZM733.86 379V367.465H735.582V379H733.86ZM741.465 379.183C740.643 379.183 739.911 378.995 739.271 378.619C738.641 378.233 738.149 377.715 737.793 377.065C737.437 376.404 737.26 375.668 737.26 374.855C737.26 374.022 737.437 373.286 737.793 372.646C738.159 372.006 738.646 371.503 739.256 371.137C739.865 370.761 740.556 370.573 741.328 370.573C741.948 370.573 742.502 370.68 742.989 370.893C743.477 371.107 743.888 371.401 744.223 371.777C744.559 372.143 744.813 372.564 744.985 373.042C745.168 373.519 745.26 374.027 745.26 374.566C745.26 374.698 745.255 374.835 745.244 374.977C745.234 375.119 745.214 375.251 745.183 375.373H738.616V374.002H744.208L743.385 374.627C743.487 374.129 743.451 373.687 743.279 373.301C743.116 372.905 742.862 372.595 742.517 372.371C742.182 372.138 741.785 372.021 741.328 372.021C740.871 372.021 740.465 372.138 740.109 372.371C739.754 372.595 739.479 372.92 739.286 373.347C739.093 373.763 739.017 374.271 739.058 374.87C739.007 375.429 739.083 375.917 739.286 376.333C739.5 376.75 739.794 377.075 740.17 377.309C740.556 377.542 740.993 377.659 741.481 377.659C741.978 377.659 742.4 377.547 742.745 377.324C743.101 377.1 743.38 376.811 743.583 376.455L744.985 377.141C744.823 377.527 744.569 377.877 744.223 378.192C743.888 378.497 743.482 378.741 743.004 378.924C742.537 379.097 742.024 379.183 741.465 379.183ZM749.334 379.183C748.776 379.183 748.283 379.086 747.856 378.893C747.44 378.69 747.115 378.416 746.881 378.07C746.647 377.715 746.53 377.298 746.53 376.821C746.53 376.374 746.627 375.973 746.82 375.617C747.023 375.262 747.333 374.962 747.749 374.718C748.166 374.474 748.689 374.302 749.319 374.2L752.184 373.728V375.084L749.654 375.526C749.197 375.607 748.862 375.754 748.649 375.968C748.435 376.171 748.329 376.435 748.329 376.76C748.329 377.075 748.445 377.334 748.679 377.537C748.923 377.73 749.233 377.827 749.609 377.827C750.076 377.827 750.482 377.725 750.828 377.522C751.183 377.319 751.457 377.05 751.65 376.714C751.843 376.369 751.94 375.988 751.94 375.571V373.453C751.94 373.047 751.788 372.717 751.483 372.463C751.188 372.199 750.792 372.067 750.294 372.067C749.837 372.067 749.436 372.189 749.09 372.432C748.755 372.666 748.506 372.971 748.344 373.347L746.911 372.631C747.064 372.224 747.313 371.869 747.658 371.564C748.003 371.249 748.405 371.005 748.862 370.832C749.329 370.66 749.822 370.573 750.34 370.573C750.99 370.573 751.564 370.695 752.062 370.939C752.57 371.183 752.961 371.523 753.235 371.96C753.52 372.387 753.662 372.884 753.662 373.453V379H752.016V377.507L752.367 377.552C752.174 377.888 751.925 378.177 751.62 378.421C751.325 378.665 750.985 378.853 750.599 378.985C750.223 379.117 749.802 379.183 749.334 379.183ZM758.723 379.183C757.88 379.183 757.138 378.975 756.498 378.558C755.868 378.142 755.426 377.583 755.172 376.882L756.498 376.257C756.722 376.724 757.026 377.095 757.412 377.37C757.809 377.644 758.245 377.781 758.723 377.781C759.129 377.781 759.459 377.69 759.713 377.507C759.967 377.324 760.094 377.075 760.094 376.76C760.094 376.557 760.038 376.394 759.927 376.272C759.815 376.14 759.673 376.034 759.5 375.952C759.337 375.871 759.17 375.81 758.997 375.77L757.702 375.404C756.991 375.201 756.457 374.896 756.102 374.49C755.756 374.073 755.584 373.59 755.584 373.042C755.584 372.544 755.711 372.112 755.965 371.747C756.219 371.371 756.569 371.081 757.016 370.878C757.463 370.675 757.966 370.573 758.525 370.573C759.276 370.573 759.947 370.761 760.536 371.137C761.125 371.503 761.542 372.016 761.786 372.676L760.46 373.301C760.297 372.905 760.038 372.59 759.683 372.356C759.337 372.123 758.946 372.006 758.509 372.006C758.134 372.006 757.834 372.097 757.61 372.28C757.387 372.453 757.275 372.681 757.275 372.966C757.275 373.159 757.326 373.321 757.428 373.453C757.529 373.575 757.661 373.677 757.824 373.758C757.986 373.829 758.154 373.89 758.327 373.941L759.668 374.337C760.348 374.53 760.871 374.835 761.237 375.251C761.603 375.658 761.786 376.145 761.786 376.714C761.786 377.202 761.654 377.634 761.389 378.01C761.135 378.375 760.78 378.665 760.323 378.878C759.866 379.081 759.332 379.183 758.723 379.183ZM763.473 379V370.756H765.195V379H763.473ZM763.473 369.629V367.648H765.195V369.629H763.473ZM767.208 379V370.756H768.854V372.371L768.655 372.158C768.859 371.64 769.184 371.249 769.631 370.985C770.078 370.711 770.596 370.573 771.185 370.573C771.795 370.573 772.333 370.705 772.8 370.97C773.268 371.234 773.633 371.599 773.897 372.067C774.161 372.534 774.294 373.072 774.294 373.682V379H772.587V374.139C772.587 373.723 772.511 373.372 772.358 373.088C772.206 372.793 771.988 372.57 771.703 372.417C771.429 372.255 771.114 372.173 770.758 372.173C770.403 372.173 770.083 372.255 769.798 372.417C769.524 372.57 769.311 372.793 769.158 373.088C769.006 373.382 768.93 373.733 768.93 374.139V379H767.208ZM780.114 382.352C779.514 382.352 778.961 382.256 778.453 382.063C777.945 381.87 777.508 381.601 777.142 381.255C776.776 380.92 776.502 380.524 776.319 380.067L777.904 379.411C778.046 379.797 778.305 380.117 778.681 380.371C779.067 380.625 779.54 380.752 780.098 380.752C780.535 380.752 780.926 380.666 781.272 380.493C781.617 380.331 781.891 380.087 782.094 379.762C782.298 379.447 782.399 379.066 782.399 378.619V376.76L782.704 377.11C782.42 377.639 782.023 378.04 781.515 378.314C781.018 378.589 780.454 378.726 779.824 378.726C779.062 378.726 778.376 378.548 777.767 378.192C777.157 377.837 776.675 377.349 776.319 376.73C775.974 376.11 775.801 375.414 775.801 374.642C775.801 373.86 775.974 373.164 776.319 372.554C776.675 371.945 777.152 371.462 777.752 371.107C778.351 370.751 779.037 370.573 779.809 370.573C780.439 370.573 780.997 370.711 781.485 370.985C781.983 371.249 782.389 371.635 782.704 372.143L782.475 372.57V370.756H784.106V378.619C784.106 379.33 783.933 379.965 783.588 380.524C783.253 381.093 782.785 381.54 782.186 381.865C781.587 382.19 780.896 382.352 780.114 382.352ZM780.022 377.126C780.479 377.126 780.886 377.019 781.241 376.806C781.597 376.582 781.876 376.288 782.079 375.922C782.293 375.546 782.399 375.124 782.399 374.657C782.399 374.19 782.293 373.768 782.079 373.392C781.866 373.017 781.581 372.722 781.226 372.509C780.87 372.285 780.469 372.173 780.022 372.173C779.555 372.173 779.138 372.285 778.773 372.509C778.407 372.722 778.117 373.017 777.904 373.392C777.701 373.758 777.599 374.18 777.599 374.657C777.599 375.114 777.701 375.531 777.904 375.907C778.117 376.283 778.407 376.582 778.773 376.806C779.138 377.019 779.555 377.126 780.022 377.126ZM792.762 379.183C791.97 379.183 791.244 378.995 790.583 378.619C789.933 378.243 789.415 377.73 789.029 377.08C788.643 376.43 788.45 375.693 788.45 374.87C788.45 374.037 788.643 373.301 789.029 372.661C789.415 372.011 789.933 371.503 790.583 371.137C791.233 370.761 791.96 370.573 792.762 370.573C793.575 370.573 794.301 370.761 794.941 371.137C795.591 371.503 796.104 372.011 796.48 372.661C796.866 373.301 797.059 374.037 797.059 374.87C797.059 375.704 796.866 376.445 796.48 377.095C796.094 377.745 795.576 378.258 794.926 378.634C794.276 379 793.555 379.183 792.762 379.183ZM792.762 377.583C793.25 377.583 793.682 377.466 794.058 377.232C794.433 376.999 794.728 376.679 794.941 376.272C795.165 375.856 795.277 375.389 795.277 374.87C795.277 374.352 795.165 373.89 794.941 373.484C794.728 373.077 794.433 372.757 794.058 372.524C793.682 372.29 793.25 372.173 792.762 372.173C792.285 372.173 791.853 372.29 791.467 372.524C791.091 372.757 790.791 373.077 790.568 373.484C790.355 373.89 790.248 374.352 790.248 374.87C790.248 375.389 790.355 375.856 790.568 376.272C790.791 376.679 791.091 376.999 791.467 377.232C791.853 377.466 792.285 377.583 792.762 377.583ZM799.447 379V372.311H797.923V370.756H799.447V370.33C799.447 369.71 799.574 369.192 799.828 368.775C800.082 368.349 800.432 368.024 800.879 367.8C801.336 367.577 801.859 367.465 802.449 367.465C802.56 367.465 802.687 367.475 802.83 367.495C802.972 367.505 803.089 367.521 803.18 367.541V369.034C803.099 369.014 803.007 369.004 802.906 369.004C802.804 368.994 802.723 368.989 802.662 368.989C802.205 368.989 801.839 369.095 801.565 369.309C801.291 369.512 801.153 369.852 801.153 370.33V370.756H803.043V372.311H801.153V379H799.447ZM812.767 379.183C811.965 379.183 811.218 379.036 810.527 378.741C809.846 378.446 809.252 378.04 808.744 377.522C808.246 376.994 807.855 376.374 807.571 375.663C807.286 374.952 807.144 374.17 807.144 373.316C807.144 372.473 807.281 371.696 807.556 370.985C807.84 370.264 808.236 369.644 808.744 369.126C809.252 368.598 809.846 368.191 810.527 367.907C811.208 367.612 811.954 367.465 812.767 367.465C813.57 367.465 814.286 367.602 814.916 367.876C815.556 368.151 816.094 368.511 816.531 368.958C816.968 369.395 817.283 369.872 817.476 370.391L815.86 371.152C815.617 370.543 815.225 370.05 814.687 369.674C814.159 369.288 813.519 369.095 812.767 369.095C812.015 369.095 811.35 369.273 810.771 369.629C810.192 369.984 809.74 370.477 809.415 371.107C809.1 371.737 808.942 372.473 808.942 373.316C808.942 374.159 809.1 374.901 809.415 375.541C809.74 376.171 810.192 376.664 810.771 377.019C811.35 377.364 812.015 377.537 812.767 377.537C813.519 377.537 814.159 377.349 814.687 376.973C815.225 376.597 815.617 376.105 815.86 375.495L817.476 376.257C817.283 376.765 816.968 377.243 816.531 377.69C816.094 378.137 815.556 378.497 814.916 378.771C814.286 379.046 813.57 379.183 812.767 379.183ZM822.879 379.183C822.056 379.183 821.324 378.995 820.684 378.619C820.055 378.233 819.562 377.715 819.206 377.065C818.851 376.404 818.673 375.668 818.673 374.855C818.673 374.022 818.851 373.286 819.206 372.646C819.572 372.006 820.06 371.503 820.669 371.137C821.279 370.761 821.969 370.573 822.742 370.573C823.361 370.573 823.915 370.68 824.402 370.893C824.89 371.107 825.302 371.401 825.637 371.777C825.972 372.143 826.226 372.564 826.399 373.042C826.582 373.519 826.673 374.027 826.673 374.566C826.673 374.698 826.668 374.835 826.658 374.977C826.648 375.119 826.627 375.251 826.597 375.373H820.029V374.002H825.622L824.799 374.627C824.9 374.129 824.865 373.687 824.692 373.301C824.529 372.905 824.276 372.595 823.93 372.371C823.595 372.138 823.199 372.021 822.742 372.021C822.284 372.021 821.878 372.138 821.523 372.371C821.167 372.595 820.893 372.92 820.7 373.347C820.507 373.763 820.43 374.271 820.471 374.87C820.42 375.429 820.496 375.917 820.7 376.333C820.913 376.75 821.208 377.075 821.583 377.309C821.969 377.542 822.406 377.659 822.894 377.659C823.392 377.659 823.813 377.547 824.159 377.324C824.514 377.1 824.794 376.811 824.997 376.455L826.399 377.141C826.236 377.527 825.982 377.877 825.637 378.192C825.302 378.497 824.895 378.741 824.418 378.924C823.95 379.097 823.437 379.183 822.879 379.183ZM828.353 379V370.756H829.999V372.417L829.847 372.173C830.03 371.635 830.324 371.249 830.731 371.015C831.137 370.771 831.625 370.65 832.193 370.65H832.696V372.219H831.98C831.411 372.219 830.949 372.397 830.593 372.752C830.248 373.098 830.075 373.596 830.075 374.246V379H828.353ZM837.589 379.091C836.725 379.091 836.055 378.848 835.577 378.36C835.1 377.872 834.861 377.187 834.861 376.303V372.311H833.414V370.756H833.642C834.028 370.756 834.328 370.644 834.541 370.421C834.754 370.197 834.861 369.893 834.861 369.507V368.867H836.583V370.756H838.457V372.311H836.583V376.227C836.583 376.511 836.629 376.755 836.72 376.958C836.812 377.151 836.959 377.303 837.162 377.415C837.365 377.517 837.629 377.568 837.954 377.568C838.036 377.568 838.127 377.563 838.229 377.552C838.33 377.542 838.427 377.532 838.518 377.522V379C838.376 379.02 838.219 379.041 838.046 379.061C837.873 379.081 837.721 379.091 837.589 379.091ZM840.199 379V370.756H841.921V379H840.199ZM840.199 369.629V367.648H841.921V369.629H840.199ZM844.863 379V372.311H843.339V370.756H844.863V370.33C844.863 369.71 844.99 369.192 845.244 368.775C845.498 368.349 845.849 368.024 846.296 367.8C846.753 367.577 847.276 367.465 847.865 367.465C847.977 367.465 848.104 367.475 848.246 367.495C848.388 367.505 848.505 367.521 848.597 367.541V369.034C848.515 369.014 848.424 369.004 848.322 369.004C848.221 368.994 848.139 368.989 848.078 368.989C847.621 368.989 847.256 369.095 846.981 369.309C846.707 369.512 846.57 369.852 846.57 370.33V370.756H850.517V372.311H846.57V379H844.863ZM849.709 379V370.756H851.416V379H849.709ZM857.15 379.183C856.328 379.183 855.596 378.995 854.956 378.619C854.326 378.233 853.823 377.715 853.448 377.065C853.082 376.415 852.899 375.678 852.899 374.855C852.899 374.043 853.082 373.311 853.448 372.661C853.813 372.011 854.316 371.503 854.956 371.137C855.596 370.761 856.328 370.573 857.15 370.573C857.709 370.573 858.232 370.675 858.72 370.878C859.208 371.071 859.629 371.34 859.985 371.686C860.35 372.031 860.62 372.432 860.792 372.89L859.284 373.59C859.111 373.164 858.832 372.824 858.446 372.57C858.07 372.305 857.638 372.173 857.15 372.173C856.683 372.173 856.262 372.29 855.886 372.524C855.52 372.747 855.23 373.067 855.017 373.484C854.804 373.89 854.697 374.352 854.697 374.87C854.697 375.389 854.804 375.856 855.017 376.272C855.23 376.679 855.52 376.999 855.886 377.232C856.262 377.466 856.683 377.583 857.15 377.583C857.648 377.583 858.08 377.456 858.446 377.202C858.822 376.938 859.101 376.587 859.284 376.15L860.792 376.867C860.63 377.303 860.366 377.7 860 378.055C859.644 378.401 859.223 378.675 858.735 378.878C858.248 379.081 857.719 379.183 857.15 379.183ZM864.869 379.183C864.311 379.183 863.818 379.086 863.391 378.893C862.975 378.69 862.65 378.416 862.416 378.07C862.183 377.715 862.066 377.298 862.066 376.821C862.066 376.374 862.162 375.973 862.355 375.617C862.558 375.262 862.868 374.962 863.285 374.718C863.701 374.474 864.224 374.302 864.854 374.2L867.719 373.728V375.084L865.189 375.526C864.732 375.607 864.397 375.754 864.184 375.968C863.97 376.171 863.864 376.435 863.864 376.76C863.864 377.075 863.981 377.334 864.214 377.537C864.458 377.73 864.768 377.827 865.144 377.827C865.611 377.827 866.017 377.725 866.363 377.522C866.718 377.319 866.993 377.05 867.186 376.714C867.379 376.369 867.475 375.988 867.475 375.571V373.453C867.475 373.047 867.323 372.717 867.018 372.463C866.723 372.199 866.327 372.067 865.829 372.067C865.372 372.067 864.971 372.189 864.626 372.432C864.29 372.666 864.042 372.971 863.879 373.347L862.447 372.631C862.599 372.224 862.848 371.869 863.193 371.564C863.539 371.249 863.94 371.005 864.397 370.832C864.864 370.66 865.357 370.573 865.875 370.573C866.525 370.573 867.099 370.695 867.597 370.939C868.105 371.183 868.496 371.523 868.77 371.96C869.055 372.387 869.197 372.884 869.197 373.453V379H867.551V377.507L867.902 377.552C867.709 377.888 867.46 378.177 867.155 378.421C866.861 378.665 866.52 378.853 866.134 378.985C865.758 379.117 865.337 379.183 864.869 379.183ZM874.627 379.091C873.764 379.091 873.093 378.848 872.616 378.36C872.138 377.872 871.9 377.187 871.9 376.303V372.311H870.452V370.756H870.681C871.067 370.756 871.366 370.644 871.58 370.421C871.793 370.197 871.9 369.893 871.9 369.507V368.867H873.622V370.756H875.496V372.311H873.622V376.227C873.622 376.511 873.667 376.755 873.759 376.958C873.85 377.151 873.997 377.303 874.201 377.415C874.404 377.517 874.668 377.568 874.993 377.568C875.074 377.568 875.166 377.563 875.267 377.552C875.369 377.542 875.465 377.532 875.557 377.522V379C875.415 379.02 875.257 379.041 875.084 379.061C874.912 379.081 874.759 379.091 874.627 379.091ZM877.237 379V370.756H878.959V379H877.237ZM877.237 369.629V367.648H878.959V369.629H877.237ZM884.949 379.183C884.157 379.183 883.431 378.995 882.77 378.619C882.12 378.243 881.602 377.73 881.216 377.08C880.83 376.43 880.637 375.693 880.637 374.87C880.637 374.037 880.83 373.301 881.216 372.661C881.602 372.011 882.12 371.503 882.77 371.137C883.42 370.761 884.147 370.573 884.949 370.573C885.762 370.573 886.488 370.761 887.128 371.137C887.779 371.503 888.292 372.011 888.667 372.661C889.053 373.301 889.246 374.037 889.246 374.87C889.246 375.704 889.053 376.445 888.667 377.095C888.281 377.745 887.763 378.258 887.113 378.634C886.463 379 885.742 379.183 884.949 379.183ZM884.949 377.583C885.437 377.583 885.869 377.466 886.245 377.232C886.62 376.999 886.915 376.679 887.128 376.272C887.352 375.856 887.464 375.389 887.464 374.87C887.464 374.352 887.352 373.89 887.128 373.484C886.915 373.077 886.62 372.757 886.245 372.524C885.869 372.29 885.437 372.173 884.949 372.173C884.472 372.173 884.04 372.29 883.654 372.524C883.278 372.757 882.979 373.077 882.755 373.484C882.542 373.89 882.435 374.352 882.435 374.87C882.435 375.389 882.542 375.856 882.755 376.272C882.979 376.679 883.278 376.999 883.654 377.232C884.04 377.466 884.472 377.583 884.949 377.583ZM890.928 379V370.756H892.573V372.371L892.375 372.158C892.578 371.64 892.903 371.249 893.35 370.985C893.797 370.711 894.315 370.573 894.905 370.573C895.514 370.573 896.053 370.705 896.52 370.97C896.987 371.234 897.353 371.599 897.617 372.067C897.881 372.534 898.013 373.072 898.013 373.682V379H896.307V374.139C896.307 373.723 896.23 373.372 896.078 373.088C895.926 372.793 895.707 372.57 895.423 372.417C895.149 372.255 894.834 372.173 894.478 372.173C894.122 372.173 893.802 372.255 893.518 372.417C893.244 372.57 893.03 372.793 892.878 373.088C892.726 373.382 892.649 373.733 892.649 374.139V379H890.928Z" fill="#535353"/>
<circle cx="492.975" cy="245.462" r="10.3401" fill="#F0F0F0"/>
<circle cx="260.051" cy="373.02" r="10.3401" fill="#F0F0F0"/>
<path d="M492.975 235.122C494.333 235.122 495.678 235.39 496.932 235.909C498.187 236.429 499.327 237.19 500.287 238.151C501.247 239.111 502.009 240.251 502.528 241.505C503.048 242.76 503.315 244.104 503.315 245.462C503.315 246.82 503.048 248.165 502.528 249.419C502.009 250.674 501.247 251.814 500.287 252.774C499.327 253.734 498.187 254.496 496.932 255.015C495.678 255.535 494.333 255.802 492.975 255.802L492.975 245.462L492.975 235.122Z" fill="#135B40"/>
<path d="M260.051 362.68C262.096 362.68 264.095 363.286 265.796 364.422C267.496 365.558 268.821 367.173 269.604 369.063C270.387 370.952 270.591 373.031 270.192 375.037C269.793 377.043 268.809 378.885 267.363 380.331C265.916 381.777 264.074 382.762 262.068 383.161C260.062 383.56 257.983 383.355 256.094 382.573C254.205 381.79 252.59 380.465 251.454 378.764C250.317 377.064 249.711 375.065 249.711 373.02L260.051 373.02L260.051 362.68Z" fill="#135B40"/>
<circle cx="682.362" cy="373.02" r="10.3401" fill="#135B40"/>
<path d="M457.397 246.884C457.885 246.396 457.885 245.604 457.397 245.116L449.442 237.161C448.953 236.673 448.162 236.673 447.674 237.161C447.186 237.649 447.186 238.441 447.674 238.929L454.745 246L447.674 253.071C447.186 253.559 447.186 254.351 447.674 254.839C448.162 255.327 448.953 255.327 449.442 254.839L457.397 246.884ZM421.683 244.75C420.993 244.75 420.433 245.31 420.433 246C420.433 246.69 420.993 247.25 421.683 247.25V244.75ZM456.513 244.75H421.683V247.25H456.513V244.75Z" fill="url(#paint6_linear_6_2154)"/>
<path d="M648.961 379.884C649.449 379.396 649.449 378.604 648.961 378.116L641.006 370.161C640.517 369.673 639.726 369.673 639.238 370.161C638.75 370.649 638.75 371.441 639.238 371.929L646.309 379L639.238 386.071C638.75 386.559 638.75 387.351 639.238 387.839C639.726 388.327 640.517 388.327 641.006 387.839L648.961 379.884ZM618.689 377.75C617.999 377.75 617.439 378.31 617.439 379C617.439 379.69 617.999 380.25 618.689 380.25V377.75ZM648.077 377.75H618.689V380.25H648.077V377.75Z" fill="url(#paint7_linear_6_2154)"/>
<path d="M550.322 336.353C550.811 336.841 551.602 336.841 552.09 336.353L560.045 328.398C560.533 327.91 560.533 327.118 560.045 326.63C559.557 326.142 558.766 326.142 558.277 326.63L551.206 333.701L544.135 326.63C543.647 326.142 542.856 326.142 542.367 326.63C541.879 327.118 541.879 327.91 542.367 328.398L550.322 336.353ZM552.456 282.136C552.456 281.445 551.897 280.886 551.206 280.886C550.516 280.886 549.956 281.445 549.956 282.136L552.456 282.136ZM552.456 335.469L552.456 282.136L549.956 282.136L549.956 335.469L552.456 335.469Z" fill="url(#paint8_linear_6_2154)"/>
<path d="M316.54 21V6.1H326.36V8.2H318.9V12.48H325.96V14.58H318.9V18.9H326.36V21H316.54ZM328.552 21V6.1H330.452L338.812 17.64L337.912 17.78V6.1H340.252V21H338.352L330.052 9.38L330.912 9.22V21H328.552ZM343.337 21V6.1H348.217C349.764 6.1 351.104 6.41333 352.237 7.04C353.384 7.65333 354.27 8.52 354.897 9.64C355.524 10.76 355.837 12.06 355.837 13.54C355.837 15.0067 355.524 16.3067 354.897 17.44C354.27 18.56 353.384 19.4333 352.237 20.06C351.104 20.6867 349.764 21 348.217 21H343.337ZM345.697 18.9H348.257C349.31 18.9 350.224 18.68 350.997 18.24C351.784 17.8 352.39 17.18 352.817 16.38C353.244 15.58 353.457 14.6333 353.457 13.54C353.457 12.4467 353.237 11.5067 352.797 10.72C352.37 9.92 351.77 9.3 350.997 8.86C350.224 8.42 349.31 8.2 348.257 8.2H345.697V18.9ZM364.297 21V8.2H360.337V6.1H370.537V8.2H366.637V21H364.297ZM378.936 21.24C377.856 21.24 376.85 21.0467 375.916 20.66C374.996 20.2733 374.183 19.7333 373.476 19.04C372.783 18.3467 372.236 17.5333 371.836 16.6C371.45 15.6667 371.256 14.6467 371.256 13.54C371.256 12.4333 371.45 11.4133 371.836 10.48C372.236 9.53333 372.783 8.72 373.476 8.04C374.17 7.34667 374.983 6.81333 375.916 6.44C376.85 6.05333 377.856 5.86 378.936 5.86C380.03 5.86 381.036 6.05333 381.956 6.44C382.89 6.81333 383.703 7.34667 384.396 8.04C385.103 8.73333 385.65 9.54667 386.036 10.48C386.423 11.4133 386.616 12.4333 386.616 13.54C386.616 14.6467 386.416 15.6667 386.016 16.6C385.63 17.5333 385.09 18.3467 384.396 19.04C383.703 19.7333 382.89 20.2733 381.956 20.66C381.023 21.0467 380.016 21.24 378.936 21.24ZM378.936 19.08C379.71 19.08 380.416 18.94 381.056 18.66C381.71 18.38 382.276 17.9933 382.756 17.5C383.236 16.9933 383.61 16.4067 383.876 15.74C384.143 15.06 384.276 14.3267 384.276 13.54C384.276 12.7533 384.143 12.0267 383.876 11.36C383.61 10.6933 383.236 10.1067 382.756 9.6C382.276 9.09333 381.71 8.7 381.056 8.42C380.416 8.14 379.71 8 378.936 8C378.163 8 377.45 8.14 376.796 8.42C376.156 8.7 375.596 9.09333 375.116 9.6C374.636 10.1067 374.263 10.6933 373.996 11.36C373.743 12.0267 373.616 12.7533 373.616 13.54C373.616 14.3267 373.743 15.06 373.996 15.74C374.263 16.4067 374.636 16.9933 375.116 17.5C375.596 17.9933 376.163 18.38 376.816 18.66C377.47 18.94 378.176 19.08 378.936 19.08ZM392.751 21V6.1H402.571V8.2H395.111V12.48H402.171V14.58H395.111V18.9H402.571V21H392.751ZM404.763 21V6.1H406.663L415.023 17.64L414.123 17.78V6.1H416.463V21H414.563L406.263 9.38L407.123 9.22V21H404.763ZM419.548 21V6.1H424.428C425.974 6.1 427.314 6.41333 428.448 7.04C429.594 7.65333 430.481 8.52 431.108 9.64C431.734 10.76 432.048 12.06 432.048 13.54C432.048 15.0067 431.734 16.3067 431.108 17.44C430.481 18.56 429.594 19.4333 428.448 20.06C427.314 20.6867 425.974 21 424.428 21H419.548ZM421.908 18.9H424.468C425.521 18.9 426.434 18.68 427.208 18.24C427.994 17.8 428.601 17.18 429.028 16.38C429.454 15.58 429.668 14.6333 429.668 13.54C429.668 12.4467 429.448 11.5067 429.008 10.72C428.581 9.92 427.981 9.3 427.208 8.86C426.434 8.42 425.521 8.2 424.468 8.2H421.908V18.9ZM437.868 21V6.1H444.148C445.081 6.1 445.888 6.26667 446.568 6.6C447.248 6.92 447.768 7.38667 448.128 8C448.488 8.6 448.668 9.31333 448.668 10.14C448.668 10.86 448.481 11.52 448.108 12.12C447.748 12.7067 447.181 13.1733 446.408 13.52V12.52C447.088 12.7867 447.641 13.1267 448.068 13.54C448.495 13.94 448.801 14.3933 448.988 14.9C449.188 15.4067 449.288 15.94 449.288 16.5C449.288 17.9 448.828 19 447.908 19.8C447.001 20.6 445.755 21 444.168 21H437.868ZM440.228 18.9H444.348C445.135 18.9 445.761 18.6867 446.228 18.26C446.695 17.82 446.928 17.24 446.928 16.52C446.928 15.7867 446.695 15.2067 446.228 14.78C445.761 14.34 445.135 14.12 444.348 14.12H440.228V18.9ZM440.228 12.04H444.208C444.848 12.04 445.361 11.86 445.748 11.5C446.135 11.1267 446.328 10.64 446.328 10.04C446.328 9.44 446.135 8.97333 445.748 8.64C445.361 8.30667 444.848 8.14 444.208 8.14H440.228V12.04ZM451.716 21V6.1H454.076V18.9H460.516V21H451.716ZM469.346 21.24C468.266 21.24 467.26 21.0467 466.326 20.66C465.406 20.2733 464.593 19.7333 463.886 19.04C463.193 18.3467 462.646 17.5333 462.246 16.6C461.86 15.6667 461.666 14.6467 461.666 13.54C461.666 12.4333 461.86 11.4133 462.246 10.48C462.646 9.53333 463.193 8.72 463.886 8.04C464.58 7.34667 465.393 6.81333 466.326 6.44C467.26 6.05333 468.266 5.86 469.346 5.86C470.44 5.86 471.446 6.05333 472.366 6.44C473.3 6.81333 474.113 7.34667 474.806 8.04C475.513 8.73333 476.06 9.54667 476.446 10.48C476.833 11.4133 477.026 12.4333 477.026 13.54C477.026 14.6467 476.826 15.6667 476.426 16.6C476.04 17.5333 475.5 18.3467 474.806 19.04C474.113 19.7333 473.3 20.2733 472.366 20.66C471.433 21.0467 470.426 21.24 469.346 21.24ZM469.346 19.08C470.12 19.08 470.826 18.94 471.466 18.66C472.12 18.38 472.686 17.9933 473.166 17.5C473.646 16.9933 474.02 16.4067 474.286 15.74C474.553 15.06 474.686 14.3267 474.686 13.54C474.686 12.7533 474.553 12.0267 474.286 11.36C474.02 10.6933 473.646 10.1067 473.166 9.6C472.686 9.09333 472.12 8.7 471.466 8.42C470.826 8.14 470.12 8 469.346 8C468.573 8 467.86 8.14 467.206 8.42C466.566 8.7 466.006 9.09333 465.526 9.6C465.046 10.1067 464.673 10.6933 464.406 11.36C464.153 12.0267 464.026 12.7533 464.026 13.54C464.026 14.3267 464.153 15.06 464.406 15.74C464.673 16.4067 465.046 16.9933 465.526 17.5C466.006 17.9933 466.573 18.38 467.226 18.66C467.88 18.94 468.586 19.08 469.346 19.08ZM486.605 21.24C485.552 21.24 484.572 21.0467 483.665 20.66C482.772 20.2733 481.992 19.74 481.325 19.06C480.672 18.3667 480.158 17.5533 479.785 16.62C479.412 15.6867 479.225 14.66 479.225 13.54C479.225 12.4333 479.405 11.4133 479.765 10.48C480.138 9.53333 480.658 8.72 481.325 8.04C481.992 7.34667 482.772 6.81333 483.665 6.44C484.558 6.05333 485.538 5.86 486.605 5.86C487.658 5.86 488.598 6.04 489.425 6.4C490.265 6.76 490.972 7.23333 491.545 7.82C492.118 8.39333 492.532 9.02 492.785 9.7L490.665 10.7C490.345 9.9 489.832 9.25333 489.125 8.76C488.432 8.25333 487.592 8 486.605 8C485.618 8 484.745 8.23333 483.985 8.7C483.225 9.16667 482.632 9.81333 482.205 10.64C481.792 11.4667 481.585 12.4333 481.585 13.54C481.585 14.6467 481.792 15.62 482.205 16.46C482.632 17.2867 483.225 17.9333 483.985 18.4C484.745 18.8533 485.618 19.08 486.605 19.08C487.592 19.08 488.432 18.8333 489.125 18.34C489.832 17.8467 490.345 17.2 490.665 16.4L492.785 17.4C492.532 18.0667 492.118 18.6933 491.545 19.28C490.972 19.8667 490.265 20.34 489.425 20.7C488.598 21.06 487.658 21.24 486.605 21.24ZM495.212 21V6.1H497.572V14.18L496.952 13.94L503.692 6.1H506.632L500.672 13.08L500.792 11.4L506.872 21H504.092L499.732 14.18L497.572 16.7V21H495.212ZM514.964 21.24C513.911 21.24 512.931 21.0467 512.024 20.66C511.131 20.2733 510.351 19.74 509.684 19.06C509.031 18.3667 508.518 17.5533 508.144 16.62C507.771 15.6867 507.584 14.66 507.584 13.54C507.584 12.4333 507.764 11.4133 508.124 10.48C508.498 9.53333 509.018 8.72 509.684 8.04C510.351 7.34667 511.131 6.81333 512.024 6.44C512.918 6.05333 513.898 5.86 514.964 5.86C516.018 5.86 516.958 6.04 517.784 6.4C518.624 6.76 519.331 7.23333 519.904 7.82C520.478 8.39333 520.891 9.02 521.144 9.7L519.024 10.7C518.704 9.9 518.191 9.25333 517.484 8.76C516.791 8.25333 515.951 8 514.964 8C513.978 8 513.104 8.23333 512.344 8.7C511.584 9.16667 510.991 9.81333 510.564 10.64C510.151 11.4667 509.944 12.4333 509.944 13.54C509.944 14.6467 510.151 15.62 510.564 16.46C510.991 17.2867 511.584 17.9333 512.344 18.4C513.104 18.8533 513.978 19.08 514.964 19.08C515.951 19.08 516.791 18.8333 517.484 18.34C518.191 17.8467 518.704 17.2 519.024 16.4L521.144 17.4C520.891 18.0667 520.478 18.6933 519.904 19.28C519.331 19.8667 518.624 20.34 517.784 20.7C516.958 21.06 516.018 21.24 514.964 21.24ZM523.571 21V6.1H525.931V12.66H532.831V6.1H535.171V21H532.831V14.76H525.931V21H523.571ZM536.939 21L542.179 6.1H545.099L550.339 21H547.819L546.679 17.66H540.619L539.459 21H536.939ZM541.299 15.56H545.959L543.319 7.76H543.979L541.299 15.56ZM552.106 21V6.1H554.466V21H552.106ZM557.556 21V6.1H559.456L567.816 17.64L566.916 17.78V6.1H569.256V21H567.356L559.056 9.38L559.916 9.22V21H557.556ZM575.837 21V6.1H581.257C582.257 6.1 583.137 6.28667 583.897 6.66C584.67 7.02 585.27 7.55333 585.697 8.26C586.124 8.95333 586.337 9.78667 586.337 10.76C586.337 11.72 586.117 12.5467 585.677 13.24C585.25 13.9333 584.657 14.4667 583.897 14.84C583.137 15.2133 582.257 15.4 581.257 15.4H578.197V21H575.837ZM578.197 13.3H581.317C581.85 13.3 582.317 13.1933 582.717 12.98C583.117 12.7667 583.43 12.4733 583.657 12.1C583.884 11.7133 583.997 11.26 583.997 10.74C583.997 10.22 583.884 9.77333 583.657 9.4C583.43 9.01333 583.117 8.72 582.717 8.52C582.317 8.30667 581.85 8.2 581.317 8.2H578.197V13.3ZM588.767 21V6.1H591.127V18.9H597.567V21H588.767ZM598.228 21L603.468 6.1H606.388L611.628 21H609.108L607.968 17.66H601.908L600.748 21H598.228ZM602.588 15.56H607.248L604.608 7.76H605.268L602.588 15.56ZM615.039 21V8.2H611.079V6.1H621.279V8.2H617.379V21H615.039ZM623.044 21V6.1H632.744V8.2H625.404V12.68H631.944V14.78H625.404V21H623.044ZM641.768 21.24C640.688 21.24 639.682 21.0467 638.748 20.66C637.828 20.2733 637.015 19.7333 636.308 19.04C635.615 18.3467 635.068 17.5333 634.668 16.6C634.282 15.6667 634.088 14.6467 634.088 13.54C634.088 12.4333 634.282 11.4133 634.668 10.48C635.068 9.53333 635.615 8.72 636.308 8.04C637.002 7.34667 637.815 6.81333 638.748 6.44C639.682 6.05333 640.688 5.86 641.768 5.86C642.862 5.86 643.868 6.05333 644.788 6.44C645.722 6.81333 646.535 7.34667 647.228 8.04C647.935 8.73333 648.482 9.54667 648.868 10.48C649.255 11.4133 649.448 12.4333 649.448 13.54C649.448 14.6467 649.248 15.6667 648.848 16.6C648.462 17.5333 647.922 18.3467 647.228 19.04C646.535 19.7333 645.722 20.2733 644.788 20.66C643.855 21.0467 642.848 21.24 641.768 21.24ZM641.768 19.08C642.542 19.08 643.248 18.94 643.888 18.66C644.542 18.38 645.108 17.9933 645.588 17.5C646.068 16.9933 646.442 16.4067 646.708 15.74C646.975 15.06 647.108 14.3267 647.108 13.54C647.108 12.7533 646.975 12.0267 646.708 11.36C646.442 10.6933 646.068 10.1067 645.588 9.6C645.108 9.09333 644.542 8.7 643.888 8.42C643.248 8.14 642.542 8 641.768 8C640.995 8 640.282 8.14 639.628 8.42C638.988 8.7 638.428 9.09333 637.948 9.6C637.468 10.1067 637.095 10.6933 636.828 11.36C636.575 12.0267 636.448 12.7533 636.448 13.54C636.448 14.3267 636.575 15.06 636.828 15.74C637.095 16.4067 637.468 16.9933 637.948 17.5C638.428 17.9933 638.995 18.38 639.648 18.66C640.302 18.94 641.008 19.08 641.768 19.08ZM652.087 21V6.1H657.507C658.507 6.1 659.387 6.28667 660.147 6.66C660.907 7.02 661.5 7.55333 661.927 8.26C662.367 8.95333 662.587 9.78667 662.587 10.76C662.587 11.7867 662.327 12.6667 661.807 13.4C661.3 14.1333 660.614 14.6667 659.747 15L663.187 21H660.507L656.847 14.5L658.387 15.4H654.447V21H652.087ZM654.447 13.3H657.547C658.094 13.3 658.567 13.1933 658.967 12.98C659.367 12.7667 659.674 12.4733 659.887 12.1C660.114 11.7133 660.227 11.26 660.227 10.74C660.227 10.22 660.114 9.77333 659.887 9.4C659.674 9.01333 659.367 8.72 658.967 8.52C658.567 8.30667 658.094 8.2 657.547 8.2H654.447V13.3ZM665.173 21V6.1H667.373L672.973 13.86H671.873L677.373 6.1H679.573V21H677.233V8.88L678.113 9.12L672.493 16.8H672.253L666.753 9.12L667.533 8.88V21H665.173Z" fill="#FFF8E6"/>
<defs>
<linearGradient id="paint0_linear_6_2154" x1="1039.81" y1="199.229" x2="946.796" y2="-100.14" gradientUnits="userSpaceOnUse">
<stop stop-color="#FFF8E6"/>
<stop offset="1" stop-color="#FFF8E6" stop-opacity="0.11"/>
</linearGradient>
<linearGradient id="paint1_linear_6_2154" x1="2.18037" y1="202.785" x2="96.6811" y2="-96.8358" gradientUnits="userSpaceOnUse">
<stop stop-color="#FFF8E6"/>
<stop offset="1" stop-color="#FFF8E6" stop-opacity="0.11"/>
</linearGradient>
<linearGradient id="paint2_linear_6_2154" x1="472.688" y1="182.321" x2="351.521" y2="397.865" gradientUnits="userSpaceOnUse">
<stop stop-color="#061A2E"/>
<stop offset="1" stop-color="#061A2E" stop-opacity="0"/>
</linearGradient>
<linearGradient id="paint3_linear_6_2154" x1="890.688" y1="327.087" x2="769.521" y2="111.542" gradientUnits="userSpaceOnUse">
<stop stop-color="#061A2E"/>
<stop offset="1" stop-color="#061A2E" stop-opacity="0"/>
</linearGradient>
<linearGradient id="paint4_linear_6_2154" x1="672.622" y1="433.087" x2="551.456" y2="217.543" gradientUnits="userSpaceOnUse">
<stop stop-color="#061A2E"/>
<stop offset="1" stop-color="#061A2E" stop-opacity="0"/>
</linearGradient>
<linearGradient id="paint5_linear_6_2154" x1="1092.69" y1="324.321" x2="971.521" y2="539.865" gradientUnits="userSpaceOnUse">
<stop stop-color="#061A2E"/>
<stop offset="1" stop-color="#061A2E" stop-opacity="0"/>
</linearGradient>
<linearGradient id="paint6_linear_6_2154" x1="420.627" y1="245.5" x2="458.724" y2="245.5" gradientUnits="userSpaceOnUse">
<stop offset="0.0001" stop-color="#061A2E" stop-opacity="0"/>
<stop offset="1" stop-color="white"/>
</linearGradient>
<linearGradient id="paint7_linear_6_2154" x1="617.798" y1="378.5" x2="649.943" y2="378.5" gradientUnits="userSpaceOnUse">
<stop offset="0.0001" stop-color="#061A2E" stop-opacity="0"/>
<stop offset="1" stop-color="white"/>
</linearGradient>
<linearGradient id="paint8_linear_6_2154" x1="551.706" y1="280.519" x2="551.706" y2="338.855" gradientUnits="userSpaceOnUse">
<stop offset="0.0001" stop-color="#061A2E" stop-opacity="0"/>
<stop offset="1" stop-color="white"/>
</linearGradient>
</defs>
</svg>
