<svg width="203" height="19" viewBox="0 0 203 19" fill="none" xmlns="http://www.w3.org/2000/svg">
<path d="M32.135 16V6.4H29.165V4.825H36.815V6.4H33.89V16H32.135ZM41.1384 16V4.825H45.2034C45.9534 4.825 46.6134 4.965 47.1834 5.245C47.7534 5.515 48.1984 5.915 48.5184 6.445C48.8484 6.965 49.0134 7.59 49.0134 8.32C49.0134 9.09 48.8184 9.75 48.4284 10.3C48.0484 10.85 47.5334 11.25 46.8834 11.5L49.4634 16H47.4534L44.7084 11.125L45.8634 11.8H42.9084V16H41.1384ZM42.9084 10.225H45.2334C45.6434 10.225 45.9984 10.145 46.2984 9.985C46.5984 9.825 46.8284 9.605 46.9884 9.325C47.1584 9.035 47.2434 8.695 47.2434 8.305C47.2434 7.915 47.1584 7.58 46.9884 7.3C46.8284 7.01 46.5984 6.79 46.2984 6.64C45.9984 6.48 45.6434 6.4 45.2334 6.4H42.9084V10.225ZM52.9629 16L56.8929 4.825H59.0829L63.0129 16H61.1229L60.2679 13.495H55.7229L54.8529 16H52.9629ZM56.2329 11.92H59.7279L57.7479 6.07H58.2429L56.2329 11.92ZM67.3386 16V4.825H68.7636L75.0336 13.48L74.3586 13.585V4.825H76.1136V16H74.6886L68.4636 7.285L69.1086 7.165V16H67.3386ZM85.3425 16.18C84.6425 16.18 83.9925 16.05 83.3925 15.79C82.7925 15.52 82.2825 15.155 81.8625 14.695C81.4425 14.235 81.1325 13.705 80.9325 13.105L82.4325 12.475C82.7025 13.165 83.0975 13.695 83.6175 14.065C84.1375 14.435 84.7375 14.62 85.4175 14.62C85.8175 14.62 86.1675 14.56 86.4675 14.44C86.7675 14.31 86.9975 14.13 87.1575 13.9C87.3275 13.67 87.4125 13.405 87.4125 13.105C87.4125 12.695 87.2975 12.37 87.0675 12.13C86.8375 11.89 86.4975 11.7 86.0475 11.56L83.9475 10.9C83.1075 10.64 82.4675 10.245 82.0275 9.715C81.5875 9.175 81.3675 8.545 81.3675 7.825C81.3675 7.195 81.5225 6.645 81.8325 6.175C82.1425 5.695 82.5675 5.32 83.1075 5.05C83.6575 4.78 84.2825 4.645 84.9825 4.645C85.6525 4.645 86.2625 4.765 86.8125 5.005C87.3625 5.235 87.8325 5.555 88.2225 5.965C88.6225 6.375 88.9125 6.85 89.0925 7.39L87.6225 8.035C87.4025 7.445 87.0575 6.99 86.5875 6.67C86.1275 6.35 85.5925 6.19 84.9825 6.19C84.6125 6.19 84.2875 6.255 84.0075 6.385C83.7275 6.505 83.5075 6.685 83.3475 6.925C83.1975 7.155 83.1225 7.425 83.1225 7.735C83.1225 8.095 83.2375 8.415 83.4675 8.695C83.6975 8.975 84.0475 9.185 84.5175 9.325L86.4675 9.94C87.3575 10.21 88.0275 10.6 88.4775 11.11C88.9275 11.61 89.1525 12.235 89.1525 12.985C89.1525 13.605 88.9875 14.155 88.6575 14.635C88.3375 15.115 87.8925 15.495 87.3225 15.775C86.7525 16.045 86.0925 16.18 85.3425 16.18ZM94.1394 16V4.825H98.2044C98.9544 4.825 99.6144 4.965 100.184 5.245C100.764 5.515 101.214 5.915 101.534 6.445C101.854 6.965 102.014 7.59 102.014 8.32C102.014 9.04 101.849 9.66 101.519 10.18C101.199 10.7 100.754 11.1 100.184 11.38C99.6144 11.66 98.9544 11.8 98.2044 11.8H95.9094V16H94.1394ZM95.9094 10.225H98.2494C98.6494 10.225 98.9994 10.145 99.2994 9.985C99.5994 9.825 99.8344 9.605 100.004 9.325C100.174 9.035 100.259 8.695 100.259 8.305C100.259 7.915 100.174 7.58 100.004 7.3C99.8344 7.01 99.5994 6.79 99.2994 6.64C98.9994 6.48 98.6494 6.4 98.2494 6.4H95.9094V10.225ZM112.267 16.18C111.457 16.18 110.702 16.035 110.002 15.745C109.312 15.455 108.702 15.05 108.172 14.53C107.652 14.01 107.242 13.4 106.942 12.7C106.652 12 106.507 11.235 106.507 10.405C106.507 9.575 106.652 8.81 106.942 8.11C107.242 7.4 107.652 6.79 108.172 6.28C108.692 5.76 109.302 5.36 110.002 5.08C110.702 4.79 111.457 4.645 112.267 4.645C113.087 4.645 113.842 4.79 114.532 5.08C115.232 5.36 115.842 5.76 116.362 6.28C116.892 6.8 117.302 7.41 117.592 8.11C117.882 8.81 118.027 9.575 118.027 10.405C118.027 11.235 117.877 12 117.577 12.7C117.287 13.4 116.882 14.01 116.362 14.53C115.842 15.05 115.232 15.455 114.532 15.745C113.832 16.035 113.077 16.18 112.267 16.18ZM112.267 14.56C112.847 14.56 113.377 14.455 113.857 14.245C114.347 14.035 114.772 13.745 115.132 13.375C115.492 12.995 115.772 12.555 115.972 12.055C116.172 11.545 116.272 10.995 116.272 10.405C116.272 9.815 116.172 9.27 115.972 8.77C115.772 8.27 115.492 7.83 115.132 7.45C114.772 7.07 114.347 6.775 113.857 6.565C113.377 6.355 112.847 6.25 112.267 6.25C111.687 6.25 111.152 6.355 110.662 6.565C110.182 6.775 109.762 7.07 109.402 7.45C109.042 7.83 108.762 8.27 108.562 8.77C108.372 9.27 108.277 9.815 108.277 10.405C108.277 10.995 108.372 11.545 108.562 12.055C108.762 12.555 109.042 12.995 109.402 13.375C109.762 13.745 110.187 14.035 110.677 14.245C111.167 14.455 111.697 14.56 112.267 14.56ZM123.006 16V4.825H127.071C127.821 4.825 128.481 4.965 129.051 5.245C129.621 5.515 130.066 5.915 130.386 6.445C130.716 6.965 130.881 7.59 130.881 8.32C130.881 9.09 130.686 9.75 130.296 10.3C129.916 10.85 129.401 11.25 128.751 11.5L131.331 16H129.321L126.576 11.125L127.731 11.8H124.776V16H123.006ZM124.776 10.225H127.101C127.511 10.225 127.866 10.145 128.166 9.985C128.466 9.825 128.696 9.605 128.856 9.325C129.026 9.035 129.111 8.695 129.111 8.305C129.111 7.915 129.026 7.58 128.856 7.3C128.696 7.01 128.466 6.79 128.166 6.64C127.866 6.48 127.511 6.4 127.101 6.4H124.776V10.225ZM137.507 16V6.4H134.537V4.825H142.187V6.4H139.262V16H137.507ZM144.773 16L148.703 4.825H150.893L154.823 16H152.933L152.078 13.495H147.533L146.663 16H144.773ZM148.043 11.92H151.538L149.558 6.07H150.053L148.043 11.92ZM160.382 16V6.4H157.412V4.825H165.062V6.4H162.137V16H160.382ZM169.385 16V4.825H171.155V16H169.385ZM181.902 16.18C181.092 16.18 180.337 16.035 179.637 15.745C178.947 15.455 178.337 15.05 177.807 14.53C177.287 14.01 176.877 13.4 176.577 12.7C176.287 12 176.142 11.235 176.142 10.405C176.142 9.575 176.287 8.81 176.577 8.11C176.877 7.4 177.287 6.79 177.807 6.28C178.327 5.76 178.937 5.36 179.637 5.08C180.337 4.79 181.092 4.645 181.902 4.645C182.722 4.645 183.477 4.79 184.167 5.08C184.867 5.36 185.477 5.76 185.997 6.28C186.527 6.8 186.937 7.41 187.227 8.11C187.517 8.81 187.662 9.575 187.662 10.405C187.662 11.235 187.512 12 187.212 12.7C186.922 13.4 186.517 14.01 185.997 14.53C185.477 15.05 184.867 15.455 184.167 15.745C183.467 16.035 182.712 16.18 181.902 16.18ZM181.902 14.56C182.482 14.56 183.012 14.455 183.492 14.245C183.982 14.035 184.407 13.745 184.767 13.375C185.127 12.995 185.407 12.555 185.607 12.055C185.807 11.545 185.907 10.995 185.907 10.405C185.907 9.815 185.807 9.27 185.607 8.77C185.407 8.27 185.127 7.83 184.767 7.45C184.407 7.07 183.982 6.775 183.492 6.565C183.012 6.355 182.482 6.25 181.902 6.25C181.322 6.25 180.787 6.355 180.297 6.565C179.817 6.775 179.397 7.07 179.037 7.45C178.677 7.83 178.397 8.27 178.197 8.77C178.007 9.27 177.912 9.815 177.912 10.405C177.912 10.995 178.007 11.545 178.197 12.055C178.397 12.555 178.677 12.995 179.037 13.375C179.397 13.745 179.822 14.035 180.312 14.245C180.802 14.455 181.332 14.56 181.902 14.56ZM192.641 16V4.825H194.066L200.336 13.48L199.661 13.585V4.825H201.416V16H199.991L193.766 7.285L194.411 7.165V16H192.641Z" fill="#F2F4E8"/>
<path d="M8 0C4 0 0 0.5 0 4V13.5C0 14.45 0.38 15.31 1 15.94V18C1 18.55 1.45 19 2 19H3C3.55 19 4 18.55 4 18V17H12V18C12 18.55 12.45 19 13 19H14C14.55 19 15 18.55 15 18V15.94C15.62 15.31 16 14.45 16 13.5V4C16 0.5 12.42 0 8 0ZM8 2C11.71 2 13.13 2.46 13.67 3H2.43C3.03 2.48 4.48 2 8 2ZM14 13C14 14.1 13.1 15 12 15H4C2.9 15 2 14.1 2 13V10H14V13ZM14 8H2V5H14V8Z" fill="#F2F4E8"/>
<path d="M4.5 14C5.32843 14 6 13.3284 6 12.5C6 11.6716 5.32843 11 4.5 11C3.67157 11 3 11.6716 3 12.5C3 13.3284 3.67157 14 4.5 14Z" fill="#F2F4E8"/>
<path d="M11.5 14C12.3284 14 13 13.3284 13 12.5C13 11.6716 12.3284 11 11.5 11C10.6716 11 10 11.6716 10 12.5C10 13.3284 10.6716 14 11.5 14Z" fill="#F2F4E8"/>
</svg>
