<svg width="199" height="19" viewBox="0 0 199 19" fill="none" xmlns="http://www.w3.org/2000/svg">
<path d="M33.155 16V4.825H34.805L39.005 10.645H38.18L42.305 4.825H43.955V16H42.2V6.91L42.86 7.09L38.645 12.85H38.465L34.34 7.09L34.925 6.91V16H33.155ZM48.2754 16L52.2054 4.825H54.3954L58.3254 16H56.4354L55.5804 13.495H51.0354L50.1654 16H48.2754ZM51.5454 11.92H55.0404L53.0604 6.07H53.5554L51.5454 11.92ZM62.6511 16V4.825H64.0761L70.3461 13.48L69.6711 13.585V4.825H71.4261V16H70.0011L63.7761 7.285L64.4211 7.165V16H62.6511ZM80.925 16.18C80.095 16.18 79.355 16.005 78.705 15.655C78.065 15.305 77.56 14.825 77.19 14.215C76.83 13.605 76.65 12.91 76.65 12.13V4.825H78.42V12.055C78.42 12.545 78.525 12.98 78.735 13.36C78.955 13.74 79.25 14.035 79.62 14.245C80 14.455 80.435 14.56 80.925 14.56C81.425 14.56 81.86 14.455 82.23 14.245C82.61 14.035 82.905 13.74 83.115 13.36C83.335 12.98 83.445 12.545 83.445 12.055V4.825H85.2V12.13C85.2 12.91 85.02 13.605 84.66 14.215C84.3 14.825 83.795 15.305 83.145 15.655C82.505 16.005 81.765 16.18 80.925 16.18ZM90.4187 16V4.825H97.6937V6.4H92.1887V9.76H97.0937V11.335H92.1887V16H90.4187ZM100.441 16L104.371 4.825H106.561L110.491 16H108.601L107.746 13.495H103.201L102.331 16H100.441ZM103.711 11.92H107.206L105.226 6.07H105.721L103.711 11.92ZM119.568 16.18C118.778 16.18 118.043 16.035 117.363 15.745C116.693 15.455 116.108 15.055 115.608 14.545C115.118 14.025 114.733 13.415 114.453 12.715C114.173 12.015 114.033 11.245 114.033 10.405C114.033 9.575 114.168 8.81 114.438 8.11C114.718 7.4 115.108 6.79 115.608 6.28C116.108 5.76 116.693 5.36 117.363 5.08C118.033 4.79 118.768 4.645 119.568 4.645C120.358 4.645 121.063 4.78 121.683 5.05C122.313 5.32 122.843 5.675 123.273 6.115C123.703 6.545 124.013 7.015 124.203 7.525L122.613 8.275C122.373 7.675 121.988 7.19 121.458 6.82C120.938 6.44 120.308 6.25 119.568 6.25C118.828 6.25 118.173 6.425 117.603 6.775C117.033 7.125 116.588 7.61 116.268 8.23C115.958 8.85 115.803 9.575 115.803 10.405C115.803 11.235 115.958 11.965 116.268 12.595C116.588 13.215 117.033 13.7 117.603 14.05C118.173 14.39 118.828 14.56 119.568 14.56C120.308 14.56 120.938 14.375 121.458 14.005C121.988 13.635 122.373 13.15 122.613 12.55L124.203 13.3C124.013 13.8 123.703 14.27 123.273 14.71C122.843 15.15 122.313 15.505 121.683 15.775C121.063 16.045 120.358 16.18 119.568 16.18ZM131.003 16V6.4H128.033V4.825H135.683V6.4H132.758V16H131.003ZM144.192 16.18C143.362 16.18 142.622 16.005 141.972 15.655C141.332 15.305 140.827 14.825 140.457 14.215C140.097 13.605 139.917 12.91 139.917 12.13V4.825H141.687V12.055C141.687 12.545 141.792 12.98 142.002 13.36C142.222 13.74 142.517 14.035 142.887 14.245C143.267 14.455 143.702 14.56 144.192 14.56C144.692 14.56 145.127 14.455 145.497 14.245C145.877 14.035 146.172 13.74 146.382 13.36C146.602 12.98 146.712 12.545 146.712 12.055V4.825H148.467V12.13C148.467 12.91 148.287 13.605 147.927 14.215C147.567 14.825 147.062 15.305 146.412 15.655C145.772 16.005 145.032 16.18 144.192 16.18ZM153.685 16V4.825H157.75C158.5 4.825 159.16 4.965 159.73 5.245C160.3 5.515 160.745 5.915 161.065 6.445C161.395 6.965 161.56 7.59 161.56 8.32C161.56 9.09 161.365 9.75 160.975 10.3C160.595 10.85 160.08 11.25 159.43 11.5L162.01 16H160L157.255 11.125L158.41 11.8H155.455V16H153.685ZM155.455 10.225H157.78C158.19 10.225 158.545 10.145 158.845 9.985C159.145 9.825 159.375 9.605 159.535 9.325C159.705 9.035 159.79 8.695 159.79 8.305C159.79 7.915 159.705 7.58 159.535 7.3C159.375 7.01 159.145 6.79 158.845 6.64C158.545 6.48 158.19 6.4 157.78 6.4H155.455V10.225ZM166.5 16V4.825H168.27V16H166.5ZM173.587 16V4.825H175.012L181.282 13.48L180.607 13.585V4.825H182.362V16H180.937L174.712 7.285L175.357 7.165V16H173.587ZM192.911 16.18C192.121 16.18 191.386 16.035 190.706 15.745C190.036 15.455 189.446 15.055 188.936 14.545C188.436 14.025 188.046 13.415 187.766 12.715C187.486 12.015 187.346 11.245 187.346 10.405C187.346 9.575 187.481 8.81 187.751 8.11C188.031 7.4 188.421 6.79 188.921 6.28C189.421 5.76 190.006 5.36 190.676 5.08C191.346 4.79 192.081 4.645 192.881 4.645C193.671 4.645 194.376 4.78 194.996 5.05C195.626 5.32 196.156 5.675 196.586 6.115C197.016 6.545 197.326 7.015 197.516 7.525L195.941 8.29C195.711 7.68 195.331 7.19 194.801 6.82C194.271 6.44 193.631 6.25 192.881 6.25C192.141 6.25 191.486 6.425 190.916 6.775C190.346 7.125 189.901 7.61 189.581 8.23C189.271 8.85 189.116 9.575 189.116 10.405C189.116 11.235 189.276 11.965 189.596 12.595C189.926 13.215 190.376 13.7 190.946 14.05C191.516 14.39 192.171 14.56 192.911 14.56C193.531 14.56 194.096 14.435 194.606 14.185C195.126 13.925 195.541 13.565 195.851 13.105C196.161 12.635 196.316 12.09 196.316 11.47V10.705L197.111 11.425H192.881V9.925H198.071V10.975C198.071 11.795 197.931 12.53 197.651 13.18C197.371 13.82 196.991 14.365 196.511 14.815C196.031 15.265 195.481 15.605 194.861 15.835C194.241 16.065 193.591 16.18 192.911 16.18Z" fill="#F2F4E8"/>
<path d="M2.94588 1.38432e-08C2.3966 -6.22057e-05 1.86819 0.209617 1.46946 0.585867C1.07072 0.962117 0.832013 1.4763 0.802473 2.02255L0.00310595 16.7475C-0.0125753 17.0375 0.0312394 17.3277 0.131876 17.6002C0.232513 17.8728 0.387861 18.122 0.588439 18.3328C0.789018 18.5436 1.03062 18.7115 1.2985 18.8262C1.56638 18.9409 1.85492 19 2.14652 19H4.84987C5.14138 18.9999 5.42981 18.9407 5.69758 18.8259C5.96535 18.7111 6.20684 18.5433 6.40732 18.3325C6.60779 18.1217 6.76306 17.8725 6.86363 17.6C6.96421 17.3275 7.008 17.0375 6.99232 16.7475L6.19295 2.02255C6.16342 1.47646 5.92485 0.962419 5.52632 0.586194C5.12779 0.209968 4.59962 0.000180871 4.0505 1.38432e-08H2.94588ZM2.23046 2.0995C2.24023 1.91736 2.31976 1.74589 2.45268 1.6204C2.5856 1.49492 2.76178 1.42498 2.94493 1.425H4.04954C4.23269 1.42498 4.40887 1.49492 4.54179 1.6204C4.67471 1.74589 4.75425 1.91736 4.76401 2.0995L5.56243 16.8245C5.56761 16.9211 5.553 17.0176 5.51949 17.1084C5.48598 17.1992 5.43428 17.2822 5.36752 17.3524C5.30077 17.4226 5.22037 17.4785 5.13121 17.5168C5.04205 17.5551 4.946 17.5749 4.84891 17.575H2.14652C2.04935 17.575 1.95319 17.5553 1.86392 17.5171C1.77465 17.4789 1.69413 17.4229 1.62728 17.3527C1.56042 17.2825 1.50863 17.1994 1.47507 17.1086C1.4415 17.0178 1.42686 16.9211 1.43205 16.8245L2.23046 2.0995ZM7.08676 19C7.46355 18.6086 7.73827 18.1184 7.86705 17.575H8.98311V13.5375C8.98311 12.6198 9.73001 11.875 10.6524 11.875H14.468C15.3895 11.875 16.1374 12.6198 16.1374 13.5375V17.575H16.8528C17.0425 17.575 17.2245 17.4999 17.3587 17.3663C17.4928 17.2327 17.5682 17.0515 17.5682 16.8625V5.42735L12.5688 10.0234C12.4667 10.1178 12.3391 10.1804 12.2018 10.2035C12.0644 10.2267 11.9233 10.2094 11.7957 10.1538C11.6681 10.0983 11.5595 10.0068 11.4833 9.89064C11.4072 9.77449 11.3667 9.63872 11.3669 9.5V5.42735L7.52555 8.95945L7.42539 7.11265L11.5977 3.27655C11.6999 3.18222 11.8274 3.11963 11.9648 3.09647C12.1021 3.0733 12.2433 3.09057 12.3709 3.14615C12.4985 3.20174 12.6071 3.29321 12.6832 3.40936C12.7594 3.52551 12.7999 3.66128 12.7997 3.8V7.87265L17.799 3.27655C17.9012 3.18253 18.0287 3.12021 18.1659 3.09722C18.303 3.07423 18.444 3.09157 18.5714 3.14712C18.6989 3.20266 18.8073 3.294 18.8834 3.40996C18.9595 3.52592 19 3.66146 19 3.8V16.8625C19 17.4294 18.7739 17.9731 18.3714 18.3739C17.9689 18.7748 17.423 19 16.8537 19H7.08676ZM10.414 13.5375V17.575H14.7065V13.5375C14.7065 13.4745 14.6814 13.4141 14.6367 13.3696C14.5919 13.325 14.5313 13.3 14.468 13.3H10.6524C10.5892 13.3 10.5285 13.325 10.4838 13.3696C10.4391 13.4141 10.414 13.4745 10.414 13.5375Z" fill="#F2F4E8"/>
</svg>
