<svg width="46" height="46" viewBox="0 0 46 46" fill="none" xmlns="http://www.w3.org/2000/svg">
<circle cx="23" cy="23" r="22" fill="#FAFAFA" stroke="#2BAB7B" stroke-width="2"/>
<path d="M30.632 15.5949C29.9763 14.0294 28.8726 12.6925 27.4595 11.7523C26.0464 10.8122 24.387 10.3105 22.6897 10.3105C20.9924 10.3105 19.3329 10.8122 17.9198 11.7523C16.5067 12.6925 15.403 14.0294 14.7473 15.5949C13.3365 16.2487 12.1409 17.2905 11.3002 18.5987C10.4596 19.9068 10.0086 21.4272 10 22.9821C9.9887 27.3781 13.5577 31.0491 17.9424 31.1624C19.2729 31.1971 20.5916 30.9054 21.7833 30.3126V34.788C21.7833 35.0284 21.8787 35.2589 22.0487 35.4289C22.2187 35.5989 22.4493 35.6944 22.6897 35.6944C22.93 35.6944 23.1606 35.5989 23.3306 35.4289C23.5006 35.2589 23.5961 35.0284 23.5961 34.788V30.3126C24.7229 30.8716 25.9638 31.1624 27.2217 31.1624H27.4369C31.8217 31.0491 35.3906 27.3781 35.3793 22.9821C35.3707 21.4272 34.9197 19.9068 34.0791 18.5987C33.2384 17.2905 32.0428 16.2487 30.632 15.5949ZM27.3916 29.3496C26.0801 29.3835 24.7901 29.0116 23.698 28.2845L23.5961 28.2166V23.5599L28.536 21.1013C28.7523 20.9931 28.9168 20.8034 28.9933 20.574C29.0698 20.3445 29.052 20.094 28.9438 19.8777C28.8357 19.6613 28.646 19.4968 28.4165 19.4203C28.187 19.3438 27.9365 19.3616 27.7202 19.4698L23.5961 21.5432V18.4727C23.5961 18.2323 23.5006 18.0018 23.3306 17.8318C23.1606 17.6618 22.93 17.5663 22.6897 17.5663C22.4493 17.5663 22.2187 17.6618 22.0487 17.8318C21.8787 18.0018 21.7833 18.2323 21.7833 18.4727V24.2624L17.6591 22.189C17.552 22.1354 17.4354 22.1035 17.3159 22.095C17.1964 22.0865 17.0765 22.1016 16.9628 22.1395C16.8492 22.1774 16.7441 22.2373 16.6537 22.3157C16.5632 22.3942 16.489 22.4897 16.4355 22.5969C16.3819 22.704 16.35 22.8206 16.3415 22.9401C16.333 23.0596 16.3481 23.1795 16.386 23.2932C16.4239 23.4068 16.4838 23.5118 16.5622 23.6023C16.6407 23.6928 16.7362 23.7669 16.8434 23.8205L21.7833 26.2791V28.2166L21.6813 28.2845C20.5892 29.0116 19.2992 29.3835 17.9877 29.3496C14.5774 29.2589 11.8015 26.4038 11.8128 22.9821C11.8208 21.773 12.1722 20.591 12.8261 19.574C13.4801 18.557 14.4096 17.7467 15.5064 17.2378C15.9167 17.0465 16.243 16.7121 16.4242 16.2974C16.9432 15.0643 17.8146 14.0118 18.9291 13.2717C20.0437 12.5316 21.3518 12.1369 22.6897 12.1369C24.0275 12.1369 25.3357 12.5316 26.4502 13.2717C27.5647 14.0118 28.4361 15.0643 28.9552 16.2974C29.1363 16.7121 29.4627 17.0465 29.8729 17.2378C30.9697 17.7467 31.8992 18.557 32.5532 19.574C33.2071 20.591 33.5586 21.773 33.5665 22.9821C33.5778 26.4038 30.802 29.2589 27.3916 29.3496Z" fill="#2BAB7B"/>
</svg>
