<svg width="126" height="19" viewBox="0 0 126 19" fill="none" xmlns="http://www.w3.org/2000/svg">
<path d="M35.165 16L39.095 4.825H41.285L45.215 16H43.325L42.47 13.495H37.925L37.055 16H35.165ZM38.435 11.92H41.93L39.95 6.07H40.445L38.435 11.92ZM51.7637 16L47.8037 4.825H49.7087L52.9487 14.365H52.5737L55.7987 4.825H57.7037L53.7437 16H51.7637ZM62.0183 16V4.825H63.7883V16H62.0183ZM68.1152 16L72.0452 4.825H74.2352L78.1652 16H76.2752L75.4202 13.495H70.8752L70.0052 16H68.1152ZM71.3852 11.92H74.8802L72.9002 6.07H73.3952L71.3852 11.92ZM83.7239 16V6.4H80.7539V4.825H88.4039V6.4H85.4789V16H83.7239ZM92.7273 16V4.825H94.4973V16H92.7273ZM105.244 16.18C104.434 16.18 103.679 16.035 102.979 15.745C102.289 15.455 101.679 15.05 101.149 14.53C100.629 14.01 100.219 13.4 99.9192 12.7C99.6292 12 99.4842 11.235 99.4842 10.405C99.4842 9.575 99.6292 8.81 99.9192 8.11C100.219 7.4 100.629 6.79 101.149 6.28C101.669 5.76 102.279 5.36 102.979 5.08C103.679 4.79 104.434 4.645 105.244 4.645C106.064 4.645 106.819 4.79 107.509 5.08C108.209 5.36 108.819 5.76 109.339 6.28C109.869 6.8 110.279 7.41 110.569 8.11C110.859 8.81 111.004 9.575 111.004 10.405C111.004 11.235 110.854 12 110.554 12.7C110.264 13.4 109.859 14.01 109.339 14.53C108.819 15.05 108.209 15.455 107.509 15.745C106.809 16.035 106.054 16.18 105.244 16.18ZM105.244 14.56C105.824 14.56 106.354 14.455 106.834 14.245C107.324 14.035 107.749 13.745 108.109 13.375C108.469 12.995 108.749 12.555 108.949 12.055C109.149 11.545 109.249 10.995 109.249 10.405C109.249 9.815 109.149 9.27 108.949 8.77C108.749 8.27 108.469 7.83 108.109 7.45C107.749 7.07 107.324 6.775 106.834 6.565C106.354 6.355 105.824 6.25 105.244 6.25C104.664 6.25 104.129 6.355 103.639 6.565C103.159 6.775 102.739 7.07 102.379 7.45C102.019 7.83 101.739 8.27 101.539 8.77C101.349 9.27 101.254 9.815 101.254 10.405C101.254 10.995 101.349 11.545 101.539 12.055C101.739 12.555 102.019 12.995 102.379 13.375C102.739 13.745 103.164 14.035 103.654 14.245C104.144 14.455 104.674 14.56 105.244 14.56ZM115.983 16V4.825H117.408L123.678 13.48L123.003 13.585V4.825H124.758V16H123.333L117.108 7.285L117.753 7.165V16H115.983Z" fill="#F2F4E8"/>
<path d="M22.0572 7.78208C22.1199 7.52514 22.0842 7.25407 21.9572 7.02208C21.6331 6.45972 21.2012 5.9669 20.6862 5.57188C20.1712 5.17686 19.5832 4.88743 18.9561 4.72019C18.3289 4.55295 17.6749 4.5112 17.0316 4.59732C16.3883 4.68345 15.7683 4.89577 15.2072 5.22208L13.0572 6.46208L8.05724 4.11208C7.91509 4.03844 7.75733 4 7.59724 4C7.43714 4 7.27939 4.03844 7.13724 4.11208L4.13724 5.84208C3.98898 5.9276 3.86515 6.04975 3.7776 6.19682C3.69006 6.3439 3.64173 6.51098 3.63724 6.68208C3.6324 6.85445 3.67221 7.02514 3.75281 7.17758C3.83341 7.33002 3.95206 7.45903 4.09724 7.55208L7.39724 9.63208L5.65724 10.6321L0.877239 11.2121C0.685085 11.2358 0.503963 11.3149 0.355862 11.4396C0.207761 11.5643 0.0990511 11.7294 0.0429296 11.9147C-0.0131919 12.1 -0.0143111 12.2976 0.0397077 12.4835C0.0937266 12.6694 0.20056 12.8357 0.347239 12.9621L3.88724 16.0221C4.35329 16.4669 4.95014 16.7498 5.58949 16.8291C6.22883 16.9083 6.8767 16.7796 7.43724 16.4621L21.5572 8.39208C21.6776 8.32961 21.784 8.24332 21.8699 8.13846C21.9559 8.03359 22.0196 7.91234 22.0572 7.78208ZM6.52724 14.7821C6.33515 14.8878 6.11364 14.9274 5.89682 14.8949C5.67999 14.8624 5.47987 14.7595 5.32724 14.6021L3.42724 12.9721L6.15724 12.6421C6.29139 12.6249 6.42067 12.5807 6.53724 12.5121L9.89724 10.5821C10.0469 10.4957 10.1717 10.372 10.2593 10.223C10.3469 10.074 10.3945 9.90489 10.3972 9.73208C10.3993 9.56045 10.3571 9.39118 10.2748 9.24056C10.1925 9.08994 10.0728 8.96304 9.92724 8.87208L6.62724 6.78208L7.72724 6.15208L12.7272 8.47208C12.8694 8.54572 13.0271 8.58416 13.1872 8.58416C13.3473 8.58416 13.5051 8.54572 13.6472 8.47208L16.2072 6.99208C16.7318 6.69808 17.3327 6.56854 17.9318 6.62025C18.531 6.67196 19.1008 6.90254 19.5672 7.28208L6.52724 14.7821Z" fill="#F2F4E8"/>
</svg>
