<svg width="158" height="19" viewBox="0 0 158 19" fill="none" xmlns="http://www.w3.org/2000/svg">
<path d="M38.585 16.18C37.775 16.18 37.02 16.035 36.32 15.745C35.63 15.455 35.02 15.05 34.49 14.53C33.97 14.01 33.56 13.4 33.26 12.7C32.97 12 32.825 11.235 32.825 10.405C32.825 9.575 32.97 8.81 33.26 8.11C33.56 7.4 33.97 6.79 34.49 6.28C35.01 5.76 35.62 5.36 36.32 5.08C37.02 4.79 37.775 4.645 38.585 4.645C39.405 4.645 40.16 4.79 40.85 5.08C41.55 5.36 42.16 5.76 42.68 6.28C43.21 6.8 43.62 7.41 43.91 8.11C44.2 8.81 44.345 9.575 44.345 10.405C44.345 11.235 44.195 12 43.895 12.7C43.605 13.4 43.2 14.01 42.68 14.53C42.16 15.05 41.55 15.455 40.85 15.745C40.15 16.035 39.395 16.18 38.585 16.18ZM38.585 14.56C39.165 14.56 39.695 14.455 40.175 14.245C40.665 14.035 41.09 13.745 41.45 13.375C41.81 12.995 42.09 12.555 42.29 12.055C42.49 11.545 42.59 10.995 42.59 10.405C42.59 9.815 42.49 9.27 42.29 8.77C42.09 8.27 41.81 7.83 41.45 7.45C41.09 7.07 40.665 6.775 40.175 6.565C39.695 6.355 39.165 6.25 38.585 6.25C38.005 6.25 37.47 6.355 36.98 6.565C36.5 6.775 36.08 7.07 35.72 7.45C35.36 7.83 35.08 8.27 34.88 8.77C34.69 9.27 34.595 9.815 34.595 10.405C34.595 10.995 34.69 11.545 34.88 12.055C35.08 12.555 35.36 12.995 35.72 13.375C36.08 13.745 36.505 14.035 36.995 14.245C37.485 14.455 38.015 14.56 38.585 14.56ZM49.3239 16V4.825H51.0939V16H49.3239ZM56.4109 16V4.825H58.1809V14.425H63.0109V16H56.4109ZM72.1289 16L76.0589 4.825H78.2489L82.1789 16H80.2889L79.4339 13.495H74.8889L74.0189 16H72.1289ZM75.3989 11.92H78.8939L76.9139 6.07H77.4089L75.3989 11.92ZM86.5046 16V4.825H87.9296L94.1996 13.48L93.5246 13.585V4.825H95.2796V16H93.8546L87.6296 7.285L88.2746 7.165V16H86.5046ZM100.593 16V4.825H104.253C105.413 4.825 106.418 5.06 107.268 5.53C108.128 5.99 108.793 6.64 109.263 7.48C109.733 8.32 109.968 9.295 109.968 10.405C109.968 11.505 109.733 12.48 109.263 13.33C108.793 14.17 108.128 14.825 107.268 15.295C106.418 15.765 105.413 16 104.253 16H100.593ZM102.363 14.425H104.283C105.073 14.425 105.758 14.26 106.338 13.93C106.928 13.6 107.383 13.135 107.703 12.535C108.023 11.935 108.183 11.225 108.183 10.405C108.183 9.585 108.018 8.88 107.688 8.29C107.368 7.69 106.918 7.225 106.338 6.895C105.758 6.565 105.073 6.4 104.283 6.4H102.363V14.425ZM125.569 16.18C124.779 16.18 124.044 16.035 123.364 15.745C122.694 15.455 122.104 15.055 121.594 14.545C121.094 14.025 120.704 13.415 120.424 12.715C120.144 12.015 120.004 11.245 120.004 10.405C120.004 9.575 120.139 8.81 120.409 8.11C120.689 7.4 121.079 6.79 121.579 6.28C122.079 5.76 122.664 5.36 123.334 5.08C124.004 4.79 124.739 4.645 125.539 4.645C126.329 4.645 127.034 4.78 127.654 5.05C128.284 5.32 128.814 5.675 129.244 6.115C129.674 6.545 129.984 7.015 130.174 7.525L128.599 8.29C128.369 7.68 127.989 7.19 127.459 6.82C126.929 6.44 126.289 6.25 125.539 6.25C124.799 6.25 124.144 6.425 123.574 6.775C123.004 7.125 122.559 7.61 122.239 8.23C121.929 8.85 121.774 9.575 121.774 10.405C121.774 11.235 121.934 11.965 122.254 12.595C122.584 13.215 123.034 13.7 123.604 14.05C124.174 14.39 124.829 14.56 125.569 14.56C126.189 14.56 126.754 14.435 127.264 14.185C127.784 13.925 128.199 13.565 128.509 13.105C128.819 12.635 128.974 12.09 128.974 11.47V10.705L129.769 11.425H125.539V9.925H130.729V10.975C130.729 11.795 130.589 12.53 130.309 13.18C130.029 13.82 129.649 14.365 129.169 14.815C128.689 15.265 128.139 15.605 127.519 15.835C126.899 16.065 126.249 16.18 125.569 16.18ZM134.473 16L138.403 4.825H140.593L144.523 16H142.633L141.778 13.495H137.233L136.363 16H134.473ZM137.743 11.92H141.238L139.258 6.07H139.753L137.743 11.92ZM152.617 16.18C151.917 16.18 151.267 16.05 150.667 15.79C150.067 15.52 149.557 15.155 149.137 14.695C148.717 14.235 148.407 13.705 148.207 13.105L149.707 12.475C149.977 13.165 150.372 13.695 150.892 14.065C151.412 14.435 152.012 14.62 152.692 14.62C153.092 14.62 153.442 14.56 153.742 14.44C154.042 14.31 154.272 14.13 154.432 13.9C154.602 13.67 154.687 13.405 154.687 13.105C154.687 12.695 154.572 12.37 154.342 12.13C154.112 11.89 153.772 11.7 153.322 11.56L151.222 10.9C150.382 10.64 149.742 10.245 149.302 9.715C148.862 9.175 148.642 8.545 148.642 7.825C148.642 7.195 148.797 6.645 149.107 6.175C149.417 5.695 149.842 5.32 150.382 5.05C150.932 4.78 151.557 4.645 152.257 4.645C152.927 4.645 153.537 4.765 154.087 5.005C154.637 5.235 155.107 5.555 155.497 5.965C155.897 6.375 156.187 6.85 156.367 7.39L154.897 8.035C154.677 7.445 154.332 6.99 153.862 6.67C153.402 6.35 152.867 6.19 152.257 6.19C151.887 6.19 151.562 6.255 151.282 6.385C151.002 6.505 150.782 6.685 150.622 6.925C150.472 7.155 150.397 7.425 150.397 7.735C150.397 8.095 150.512 8.415 150.742 8.695C150.972 8.975 151.322 9.185 151.792 9.325L153.742 9.94C154.632 10.21 155.302 10.6 155.752 11.11C156.202 11.61 156.427 12.235 156.427 12.985C156.427 13.605 156.262 14.155 155.932 14.635C155.612 15.115 155.167 15.495 154.597 15.775C154.027 16.045 153.367 16.18 152.617 16.18Z" fill="#F2F4E8"/>
<path d="M18.4062 5.14167L16.7692 3.525C16.6374 3.41869 16.47 3.36436 16.2996 3.37258C16.1293 3.3808 15.9681 3.45098 15.8475 3.56947C15.7269 3.68796 15.6555 3.84629 15.6471 4.01366C15.6387 4.18103 15.694 4.34547 15.8022 4.475L17.4478 6.08333C17.5099 6.1447 17.5591 6.2175 17.5926 6.29758C17.6261 6.37766 17.6432 6.46343 17.6429 6.55V13.3333C17.6429 13.5101 17.5714 13.6797 17.4441 13.8047C17.3168 13.9298 17.1443 14 16.9643 14C16.7843 14 16.6117 13.9298 16.4845 13.8047C16.3572 13.6797 16.2857 13.5101 16.2857 13.3333V10C16.2835 9.47024 16.0683 8.96281 15.687 8.58821C15.3057 8.21361 14.7892 8.00219 14.25 8H12.8929V4C12.8906 3.47024 12.6754 2.96281 12.2941 2.58821C11.9129 2.21361 11.3964 2.00219 10.8571 2H4.07143C3.53221 2.00219 3.01572 2.21361 2.63443 2.58821C2.25314 2.96281 2.03795 3.47024 2.03571 4V16.6667H0.678571C0.498603 16.6667 0.326006 16.7369 0.198749 16.8619C0.0714921 16.987 0 17.1565 0 17.3333C0 17.5101 0.0714921 17.6797 0.198749 17.8047C0.326006 17.9298 0.498603 18 0.678571 18H14.25C14.43 18 14.6026 17.9298 14.7298 17.8047C14.8571 17.6797 14.9286 17.5101 14.9286 17.3333C14.9286 17.1565 14.8571 16.987 14.7298 16.8619C14.6026 16.7369 14.43 16.6667 14.25 16.6667H12.8929V9.33333H14.25C14.43 9.33333 14.6026 9.40357 14.7298 9.5286C14.8571 9.65362 14.9286 9.82319 14.9286 10V13.3333C14.9286 13.8638 15.143 14.3725 15.5248 14.7475C15.9066 15.1226 16.4244 15.3333 16.9643 15.3333C17.5042 15.3333 18.022 15.1226 18.4038 14.7475C18.7855 14.3725 19 13.8638 19 13.3333V6.55C19.0005 6.28838 18.9482 6.02926 18.8463 5.78755C18.7444 5.54585 18.5949 5.32634 18.4062 5.14167ZM3.39286 16.6667V4C3.39286 3.82319 3.46435 3.65362 3.59161 3.5286C3.71886 3.40357 3.89146 3.33333 4.07143 3.33333H10.8571C11.0371 3.33333 11.2097 3.40357 11.337 3.5286C11.4642 3.65362 11.5357 3.82319 11.5357 4V16.6667H3.39286ZM10.1786 8.66667C10.1786 8.84348 10.1071 9.01305 9.97982 9.13807C9.85256 9.2631 9.67997 9.33333 9.5 9.33333H5.42857C5.2486 9.33333 5.07601 9.2631 4.94875 9.13807C4.82149 9.01305 4.75 8.84348 4.75 8.66667C4.75 8.48986 4.82149 8.32029 4.94875 8.19526C5.07601 8.07024 5.2486 8 5.42857 8H9.5C9.67997 8 9.85256 8.07024 9.97982 8.19526C10.1071 8.32029 10.1786 8.48986 10.1786 8.66667Z" fill="#F2F4E8"/>
</svg>
