<svg width="46" height="46" viewBox="0 0 46 46" fill="none" xmlns="http://www.w3.org/2000/svg">
<circle cx="23" cy="23" r="22" fill="#FAFAFA" stroke="#2BAB7B" stroke-width="2"/>
<path d="M13 30.6389L13.0032 25.598C13.0032 25.43 13.0699 25.2689 13.1887 25.1501C13.3075 25.0313 13.4687 24.9645 13.6367 24.9645H19.9731C20.5572 24.9645 20.554 24.4463 20.554 23.2135C20.554 21.9807 17.4485 20.9424 17.4485 16.6085C17.4485 12.2746 20.6655 11 23.3389 11C26.0124 11 28.9246 12.2746 28.9246 16.6085C28.9246 20.9424 25.8356 21.6316 25.8356 23.2135C25.8356 24.7954 25.8356 24.9645 26.3298 24.9645H32.6396C32.8076 24.9645 32.9687 25.0313 33.0875 25.1501C33.2063 25.2689 33.2731 25.43 33.2731 25.598V30.6389H13Z" stroke="#2BAB7B" stroke-width="2" stroke-linejoin="round"/>
<path d="M13 34.4399H33.2724" stroke="#2BAB7B" stroke-width="2" stroke-linecap="round" stroke-linejoin="round"/>
</svg>
