<svg width="454" height="85" viewBox="0 0 454 85" fill="none" xmlns="http://www.w3.org/2000/svg">
<path d="M131.9 63.6C129.533 63.6 127.333 63.1667 125.3 62.3C123.3 61.4333 121.567 60.2333 120.1 58.7C118.667 57.1333 117.617 55.3167 116.95 53.25L122.6 50.8C123.5 52.9333 124.8 54.6167 126.5 55.85C128.2 57.05 130.117 57.65 132.25 57.65C133.45 57.65 134.483 57.4667 135.35 57.1C136.25 56.7 136.933 56.1667 137.4 55.5C137.9 54.8333 138.15 54.0333 138.15 53.1C138.15 52 137.817 51.1 137.15 50.4C136.517 49.6667 135.55 49.1 134.25 48.7L127.1 46.4C124.2 45.5 122.017 44.15 120.55 42.35C119.083 40.55 118.35 38.4333 118.35 36C118.35 33.8667 118.867 31.9833 119.9 30.35C120.967 28.7167 122.433 27.45 124.3 26.55C126.2 25.6167 128.367 25.15 130.8 25.15C133.033 25.15 135.083 25.55 136.95 26.35C138.817 27.1167 140.417 28.2 141.75 29.6C143.117 30.9667 144.133 32.5833 144.8 34.45L139.2 36.95C138.467 35.0833 137.367 33.65 135.9 32.65C134.433 31.6167 132.733 31.1 130.8 31.1C129.667 31.1 128.667 31.3 127.8 31.7C126.933 32.0667 126.25 32.6 125.75 33.3C125.283 33.9667 125.05 34.7667 125.05 35.7C125.05 36.7333 125.383 37.65 126.05 38.45C126.717 39.2167 127.733 39.8167 129.1 40.25L135.95 42.4C138.917 43.3667 141.133 44.7 142.6 46.4C144.1 48.1 144.85 50.2 144.85 52.7C144.85 54.8333 144.3 56.7167 143.2 58.35C142.1 59.9833 140.583 61.2667 138.65 62.2C136.717 63.1333 134.467 63.6 131.9 63.6ZM160.123 63.6C158.023 63.6 156.19 63.1333 154.623 62.2C153.09 61.2667 151.906 59.9667 151.073 58.3C150.273 56.6333 149.873 54.6833 149.873 52.45V35.8H156.423V51.9C156.423 53.0333 156.64 54.0333 157.073 54.9C157.54 55.7333 158.19 56.4 159.023 56.9C159.89 57.3667 160.856 57.6 161.923 57.6C162.99 57.6 163.94 57.3667 164.773 56.9C165.606 56.4 166.256 55.7167 166.723 54.85C167.19 53.9833 167.423 52.95 167.423 51.75V35.8H173.973V63H167.773V57.65L168.323 58.6C167.69 60.2667 166.64 61.5167 165.173 62.35C163.74 63.1833 162.056 63.6 160.123 63.6ZM190.412 63.6C187.512 63.6 184.978 62.9167 182.812 61.55C180.678 60.15 179.212 58.2667 178.412 55.9L183.312 53.55C184.012 55.0833 184.978 56.2833 186.212 57.15C187.478 58.0167 188.878 58.45 190.412 58.45C191.612 58.45 192.562 58.1833 193.262 57.65C193.962 57.1167 194.312 56.4167 194.312 55.55C194.312 55.0167 194.162 54.5833 193.862 54.25C193.595 53.8833 193.212 53.5833 192.712 53.35C192.245 53.0833 191.728 52.8667 191.162 52.7L186.712 51.45C184.412 50.7833 182.662 49.7667 181.462 48.4C180.295 47.0333 179.712 45.4167 179.712 43.55C179.712 41.8833 180.128 40.4333 180.962 39.2C181.828 37.9333 183.012 36.95 184.512 36.25C186.045 35.55 187.795 35.2 189.762 35.2C192.328 35.2 194.595 35.8167 196.562 37.05C198.528 38.2833 199.928 40.0167 200.762 42.25L195.762 44.6C195.295 43.3667 194.512 42.3833 193.412 41.65C192.312 40.9167 191.078 40.55 189.712 40.55C188.612 40.55 187.745 40.8 187.112 41.3C186.478 41.8 186.162 42.45 186.162 43.25C186.162 43.75 186.295 44.1833 186.562 44.55C186.828 44.9167 187.195 45.2167 187.662 45.45C188.162 45.6833 188.728 45.9 189.362 46.1L193.712 47.4C195.945 48.0667 197.662 49.0667 198.862 50.4C200.095 51.7333 200.712 53.3667 200.712 55.3C200.712 56.9333 200.278 58.3833 199.412 59.65C198.545 60.8833 197.345 61.85 195.812 62.55C194.278 63.25 192.478 63.6 190.412 63.6ZM218.145 63.3C215.079 63.3 212.695 62.4667 210.995 60.8C209.329 59.1 208.495 56.7167 208.495 53.65V41.65H203.795V35.8H204.295C205.629 35.8 206.662 35.45 207.395 34.75C208.129 34.05 208.495 33.0333 208.495 31.7V29.6H215.045V35.8H221.295V41.65H215.045V53.3C215.045 54.2 215.195 54.9667 215.495 55.6C215.829 56.2333 216.329 56.7167 216.995 57.05C217.695 57.3833 218.579 57.55 219.645 57.55C219.879 57.55 220.145 57.5333 220.445 57.5C220.779 57.4667 221.095 57.4333 221.395 57.4V63C220.929 63.0667 220.395 63.1333 219.795 63.2C219.195 63.2667 218.645 63.3 218.145 63.3ZM234.552 63.6C232.652 63.6 231.002 63.2833 229.602 62.65C228.202 62.0167 227.119 61.1167 226.352 59.95C225.585 58.75 225.202 57.3667 225.202 55.8C225.202 54.3 225.535 52.9667 226.202 51.8C226.869 50.6 227.902 49.6 229.302 48.8C230.702 48 232.469 47.4333 234.602 47.1L243.502 45.65V50.65L235.852 51.95C234.552 52.1833 233.585 52.6 232.952 53.2C232.319 53.8 232.002 54.5833 232.002 55.55C232.002 56.4833 232.352 57.2333 233.052 57.8C233.785 58.3333 234.685 58.6 235.752 58.6C237.119 58.6 238.319 58.3167 239.352 57.75C240.419 57.15 241.235 56.3333 241.802 55.3C242.402 54.2667 242.702 53.1333 242.702 51.9V44.9C242.702 43.7333 242.235 42.7667 241.302 42C240.402 41.2 239.202 40.8 237.702 40.8C236.302 40.8 235.052 41.1833 233.952 41.95C232.885 42.6833 232.102 43.6667 231.602 44.9L226.252 42.3C226.785 40.8667 227.619 39.6333 228.752 38.6C229.919 37.5333 231.285 36.7 232.852 36.1C234.419 35.5 236.119 35.2 237.952 35.2C240.185 35.2 242.152 35.6167 243.852 36.45C245.552 37.25 246.869 38.3833 247.802 39.85C248.769 41.2833 249.252 42.9667 249.252 44.9V63H243.052V58.35L244.452 58.25C243.752 59.4167 242.919 60.4 241.952 61.2C240.985 61.9667 239.885 62.5667 238.652 63C237.419 63.4 236.052 63.6 234.552 63.6ZM255.306 63V35.8H261.856V63H255.306ZM255.306 32.75V25.75H261.856V32.75H255.306ZM267.904 63V35.8H274.054V41.15L273.554 40.2C274.187 38.5667 275.22 37.3333 276.654 36.5C278.12 35.6333 279.82 35.2 281.754 35.2C283.754 35.2 285.52 35.6333 287.054 36.5C288.62 37.3667 289.837 38.5833 290.704 40.15C291.57 41.6833 292.004 43.4667 292.004 45.5V63H285.454V47.05C285.454 45.85 285.22 44.8167 284.754 43.95C284.287 43.0833 283.637 42.4167 282.804 41.95C282.004 41.45 281.054 41.2 279.954 41.2C278.887 41.2 277.937 41.45 277.104 41.95C276.27 42.4167 275.62 43.0833 275.154 43.95C274.687 44.8167 274.454 45.85 274.454 47.05V63H267.904ZM310.842 63.6C308.176 63.6 305.742 62.9833 303.542 61.75C301.376 60.5167 299.642 58.8333 298.342 56.7C297.076 54.5667 296.442 52.1333 296.442 49.4C296.442 46.6667 297.076 44.2333 298.342 42.1C299.642 39.9667 301.376 38.2833 303.542 37.05C305.709 35.8167 308.142 35.2 310.842 35.2C313.509 35.2 315.926 35.8167 318.092 37.05C320.259 38.2833 321.976 39.9667 323.242 42.1C324.542 44.2 325.192 46.6333 325.192 49.4C325.192 52.1333 324.542 54.5667 323.242 56.7C321.942 58.8333 320.209 60.5167 318.042 61.75C315.876 62.9833 313.476 63.6 310.842 63.6ZM310.842 57.6C312.309 57.6 313.592 57.25 314.692 56.55C315.826 55.85 316.709 54.8833 317.342 53.65C318.009 52.3833 318.342 50.9667 318.342 49.4C318.342 47.8 318.009 46.4 317.342 45.2C316.709 43.9667 315.826 43 314.692 42.3C313.592 41.5667 312.309 41.2 310.842 41.2C309.342 41.2 308.026 41.5667 306.892 42.3C305.759 43 304.859 43.9667 304.192 45.2C303.559 46.4 303.242 47.8 303.242 49.4C303.242 50.9667 303.559 52.3833 304.192 53.65C304.859 54.8833 305.759 55.85 306.892 56.55C308.026 57.25 309.342 57.6 310.842 57.6ZM343.359 74C341.326 74 339.443 73.6667 337.709 73C335.976 72.3333 334.476 71.4 333.209 70.2C331.976 69.0333 331.076 67.65 330.509 66.05L336.609 63.75C337.009 65.0167 337.793 66.0333 338.959 66.8C340.159 67.6 341.626 68 343.359 68C344.693 68 345.859 67.75 346.859 67.25C347.893 66.75 348.693 66.0167 349.259 65.05C349.826 64.1167 350.109 62.9833 350.109 61.65V55.45L351.359 56.95C350.426 58.5833 349.176 59.8167 347.609 60.65C346.043 61.4833 344.259 61.9 342.259 61.9C339.726 61.9 337.459 61.3167 335.459 60.15C333.459 58.9833 331.893 57.3833 330.759 55.35C329.626 53.3167 329.059 51.0333 329.059 48.5C329.059 45.9333 329.626 43.65 330.759 41.65C331.893 39.65 333.443 38.0833 335.409 36.95C337.376 35.7833 339.609 35.2 342.109 35.2C344.143 35.2 345.926 35.6333 347.459 36.5C349.026 37.3333 350.326 38.55 351.359 40.15L350.459 41.8V35.8H356.659V61.65C356.659 64.0167 356.076 66.1333 354.909 68C353.776 69.8667 352.209 71.3333 350.209 72.4C348.243 73.4667 345.959 74 343.359 74ZM343.059 55.85C344.459 55.85 345.676 55.55 346.709 54.95C347.776 54.3167 348.609 53.45 349.209 52.35C349.809 51.25 350.109 49.9833 350.109 48.55C350.109 47.15 349.793 45.9 349.159 44.8C348.559 43.6667 347.726 42.7833 346.659 42.15C345.626 41.5167 344.426 41.2 343.059 41.2C341.693 41.2 340.459 41.5167 339.359 42.15C338.259 42.7833 337.393 43.6667 336.759 44.8C336.159 45.9 335.859 47.15 335.859 48.55C335.859 49.95 336.159 51.2 336.759 52.3C337.393 53.4 338.243 54.2667 339.309 54.9C340.409 55.5333 341.659 55.85 343.059 55.85ZM362.777 63V35.8H368.927V41.85L368.427 40.95C369.06 38.9167 370.043 37.5 371.377 36.7C372.743 35.9 374.377 35.5 376.277 35.5H377.877V41.3H375.527C373.66 41.3 372.16 41.8833 371.027 43.05C369.893 44.1833 369.327 45.7833 369.327 47.85V63H362.777ZM389.728 63.6C387.828 63.6 386.178 63.2833 384.778 62.65C383.378 62.0167 382.294 61.1167 381.528 59.95C380.761 58.75 380.378 57.3667 380.378 55.8C380.378 54.3 380.711 52.9667 381.378 51.8C382.044 50.6 383.078 49.6 384.478 48.8C385.878 48 387.644 47.4333 389.778 47.1L398.678 45.65V50.65L391.028 51.95C389.728 52.1833 388.761 52.6 388.128 53.2C387.494 53.8 387.178 54.5833 387.178 55.55C387.178 56.4833 387.528 57.2333 388.228 57.8C388.961 58.3333 389.861 58.6 390.928 58.6C392.294 58.6 393.494 58.3167 394.528 57.75C395.594 57.15 396.411 56.3333 396.978 55.3C397.578 54.2667 397.878 53.1333 397.878 51.9V44.9C397.878 43.7333 397.411 42.7667 396.478 42C395.578 41.2 394.378 40.8 392.878 40.8C391.478 40.8 390.228 41.1833 389.128 41.95C388.061 42.6833 387.278 43.6667 386.778 44.9L381.428 42.3C381.961 40.8667 382.794 39.6333 383.928 38.6C385.094 37.5333 386.461 36.7 388.028 36.1C389.594 35.5 391.294 35.2 393.128 35.2C395.361 35.2 397.328 35.6167 399.028 36.45C400.728 37.25 402.044 38.3833 402.978 39.85C403.944 41.2833 404.428 42.9667 404.428 44.9V63H398.228V58.35L399.628 58.25C398.928 59.4167 398.094 60.4 397.128 61.2C396.161 61.9667 395.061 62.5667 393.828 63C392.594 63.4 391.228 63.6 389.728 63.6ZM410.482 63V35.8H416.632V42.1L415.932 41.05C416.432 39.0833 417.432 37.6167 418.932 36.65C420.432 35.6833 422.198 35.2 424.232 35.2C426.465 35.2 428.432 35.7833 430.132 36.95C431.832 38.1167 432.932 39.65 433.432 41.55L431.582 41.7C432.415 39.5333 433.665 37.9167 435.332 36.85C436.998 35.75 438.915 35.2 441.082 35.2C443.015 35.2 444.732 35.6333 446.232 36.5C447.765 37.3667 448.965 38.5833 449.832 40.15C450.698 41.6833 451.132 43.4667 451.132 45.5V63H444.582V47.05C444.582 45.85 444.365 44.8167 443.932 43.95C443.498 43.0833 442.898 42.4167 442.132 41.95C441.365 41.45 440.432 41.2 439.332 41.2C438.298 41.2 437.382 41.45 436.582 41.95C435.782 42.4167 435.165 43.0833 434.732 43.95C434.298 44.8167 434.082 45.85 434.082 47.05V63H427.532V47.05C427.532 45.85 427.315 44.8167 426.882 43.95C426.448 43.0833 425.832 42.4167 425.032 41.95C424.265 41.45 423.348 41.2 422.282 41.2C421.248 41.2 420.332 41.45 419.532 41.95C418.732 42.4167 418.115 43.0833 417.682 43.95C417.248 44.8167 417.032 45.85 417.032 47.05V63H410.482Z" fill="white"/>
<path fill-rule="evenodd" clip-rule="evenodd" d="M39.2655 18.4538C39.4353 18.1924 39.6399 17.9843 39.866 17.8261C40.238 14.8189 40.6093 6.05492 40.5822 0.0374341C29.6777 0.466605 20.3027 4.58607 12.4572 12.3958C4.15241 20.6597 0 30.6945 0 42.5C0 47.4583 0.82639 52.1995 2.47917 56.7233C4.13195 61.2504 6.41435 65.3241 9.32639 68.9445L0 78.2709L6.72917 85L16.0556 75.6736C19.6759 78.5857 23.7292 80.8681 28.2153 82.5209C32.7014 84.1736 37.463 85 42.5 85C42.6004 85 42.7007 84.9997 42.8009 84.9991L42.6828 64.2236V62.3432H42.6897V49.9988C42.6897 49.0915 42.1395 48.2748 41.2987 47.9339L27.0288 42.1486C25.731 41.6225 25.2346 40.0437 25.9977 38.8695L39.2655 18.4538ZM45.6673 67.2925C45.332 71.8317 45.062 80.0355 45.1834 84.9269C55.8335 84.3393 64.9737 80.2129 72.6042 72.5475C80.8681 64.2427 85 54.2269 85 42.5V0H42.9484L43.0537 18.5207C43.2084 18.783 43.3132 19.0888 43.3496 19.4339L44.885 33.9728C44.9699 34.7774 45.4843 35.4727 46.2288 35.7893L60.9558 42.0521C62.27 42.6109 62.7265 44.2445 61.8925 45.4038L46.7266 66.4844C46.436 66.8883 46.0655 67.1521 45.6673 67.2925Z" fill="white"/>
</svg>
