<svg width="339" height="264" viewBox="0 0 339 264" fill="none" xmlns="http://www.w3.org/2000/svg">
<path d="M16.9 253.6C14.5333 253.6 12.3333 253.167 10.3 252.3C8.3 251.433 6.56667 250.233 5.1 248.7C3.66667 247.133 2.61667 245.317 1.95 243.25L7.6 240.8C8.5 242.933 9.8 244.617 11.5 245.85C13.2 247.05 15.1167 247.65 17.25 247.65C18.45 247.65 19.4833 247.467 20.35 247.1C21.25 246.7 21.9333 246.167 22.4 245.5C22.9 244.833 23.15 244.033 23.15 243.1C23.15 242 22.8167 241.1 22.15 240.4C21.5167 239.667 20.55 239.1 19.25 238.7L12.1 236.4C9.2 235.5 7.01667 234.15 5.55 232.35C4.08333 230.55 3.35 228.433 3.35 226C3.35 223.867 3.86667 221.983 4.9 220.35C5.96667 218.717 7.43333 217.45 9.3 216.55C11.2 215.617 13.3667 215.15 15.8 215.15C18.0333 215.15 20.0833 215.55 21.95 216.35C23.8167 217.117 25.4167 218.2 26.75 219.6C28.1167 220.967 29.1333 222.583 29.8 224.45L24.2 226.95C23.4667 225.083 22.3667 223.65 20.9 222.65C19.4333 221.617 17.7333 221.1 15.8 221.1C14.6667 221.1 13.6667 221.3 12.8 221.7C11.9333 222.067 11.25 222.6 10.75 223.3C10.2833 223.967 10.05 224.767 10.05 225.7C10.05 226.733 10.3833 227.65 11.05 228.45C11.7167 229.217 12.7333 229.817 14.1 230.25L20.95 232.4C23.9167 233.367 26.1333 234.7 27.6 236.4C29.1 238.1 29.85 240.2 29.85 242.7C29.85 244.833 29.3 246.717 28.2 248.35C27.1 249.983 25.5833 251.267 23.65 252.2C21.7167 253.133 19.4667 253.6 16.9 253.6ZM45.123 253.6C43.023 253.6 41.1897 253.133 39.623 252.2C38.0897 251.267 36.9064 249.967 36.073 248.3C35.273 246.633 34.873 244.683 34.873 242.45V225.8H41.423V241.9C41.423 243.033 41.6397 244.033 42.073 244.9C42.5397 245.733 43.1897 246.4 44.023 246.9C44.8897 247.367 45.8564 247.6 46.923 247.6C47.9897 247.6 48.9397 247.367 49.773 246.9C50.6064 246.4 51.2564 245.717 51.723 244.85C52.1897 243.983 52.423 242.95 52.423 241.75V225.8H58.973V253H52.773V247.65L53.323 248.6C52.6897 250.267 51.6397 251.517 50.173 252.35C48.7397 253.183 47.0564 253.6 45.123 253.6ZM75.4117 253.6C72.5117 253.6 69.9784 252.917 67.8117 251.55C65.6784 250.15 64.2117 248.267 63.4117 245.9L68.3117 243.55C69.0117 245.083 69.9784 246.283 71.2117 247.15C72.4784 248.017 73.8784 248.45 75.4117 248.45C76.6117 248.45 77.5617 248.183 78.2617 247.65C78.9617 247.117 79.3117 246.417 79.3117 245.55C79.3117 245.017 79.1617 244.583 78.8617 244.25C78.5951 243.883 78.2117 243.583 77.7117 243.35C77.2451 243.083 76.7284 242.867 76.1617 242.7L71.7117 241.45C69.4117 240.783 67.6617 239.767 66.4617 238.4C65.2951 237.033 64.7117 235.417 64.7117 233.55C64.7117 231.883 65.1284 230.433 65.9617 229.2C66.8284 227.933 68.0117 226.95 69.5117 226.25C71.0451 225.55 72.7951 225.2 74.7617 225.2C77.3284 225.2 79.5951 225.817 81.5617 227.05C83.5284 228.283 84.9284 230.017 85.7617 232.25L80.7617 234.6C80.2951 233.367 79.5117 232.383 78.4117 231.65C77.3117 230.917 76.0784 230.55 74.7117 230.55C73.6117 230.55 72.7451 230.8 72.1117 231.3C71.4784 231.8 71.1617 232.45 71.1617 233.25C71.1617 233.75 71.2951 234.183 71.5617 234.55C71.8284 234.917 72.1951 235.217 72.6617 235.45C73.1617 235.683 73.7284 235.9 74.3617 236.1L78.7117 237.4C80.9451 238.067 82.6617 239.067 83.8617 240.4C85.0951 241.733 85.7117 243.367 85.7117 245.3C85.7117 246.933 85.2784 248.383 84.4117 249.65C83.5451 250.883 82.3451 251.85 80.8117 252.55C79.2784 253.25 77.4784 253.6 75.4117 253.6ZM103.145 253.3C100.079 253.3 97.6953 252.467 95.9953 250.8C94.3286 249.1 93.4953 246.717 93.4953 243.65V231.65H88.7953V225.8H89.2953C90.6286 225.8 91.662 225.45 92.3953 224.75C93.1286 224.05 93.4953 223.033 93.4953 221.7V219.6H100.045V225.8H106.295V231.65H100.045V243.3C100.045 244.2 100.195 244.967 100.495 245.6C100.829 246.233 101.329 246.717 101.995 247.05C102.695 247.383 103.579 247.55 104.645 247.55C104.879 247.55 105.145 247.533 105.445 247.5C105.779 247.467 106.095 247.433 106.395 247.4V253C105.929 253.067 105.395 253.133 104.795 253.2C104.195 253.267 103.645 253.3 103.145 253.3ZM119.552 253.6C117.652 253.6 116.002 253.283 114.602 252.65C113.202 252.017 112.119 251.117 111.352 249.95C110.585 248.75 110.202 247.367 110.202 245.8C110.202 244.3 110.535 242.967 111.202 241.8C111.869 240.6 112.902 239.6 114.302 238.8C115.702 238 117.469 237.433 119.602 237.1L128.502 235.65V240.65L120.852 241.95C119.552 242.183 118.585 242.6 117.952 243.2C117.319 243.8 117.002 244.583 117.002 245.55C117.002 246.483 117.352 247.233 118.052 247.8C118.785 248.333 119.685 248.6 120.752 248.6C122.119 248.6 123.319 248.317 124.352 247.75C125.419 247.15 126.235 246.333 126.802 245.3C127.402 244.267 127.702 243.133 127.702 241.9V234.9C127.702 233.733 127.235 232.767 126.302 232C125.402 231.2 124.202 230.8 122.702 230.8C121.302 230.8 120.052 231.183 118.952 231.95C117.885 232.683 117.102 233.667 116.602 234.9L111.252 232.3C111.785 230.867 112.619 229.633 113.752 228.6C114.919 227.533 116.285 226.7 117.852 226.1C119.419 225.5 121.119 225.2 122.952 225.2C125.185 225.2 127.152 225.617 128.852 226.45C130.552 227.25 131.869 228.383 132.802 229.85C133.769 231.283 134.252 232.967 134.252 234.9V253H128.052V248.35L129.452 248.25C128.752 249.417 127.919 250.4 126.952 251.2C125.985 251.967 124.885 252.567 123.652 253C122.419 253.4 121.052 253.6 119.552 253.6ZM140.306 253V225.8H146.856V253H140.306ZM140.306 222.75V215.75H146.856V222.75H140.306ZM152.904 253V225.8H159.054V231.15L158.554 230.2C159.187 228.567 160.22 227.333 161.654 226.5C163.12 225.633 164.82 225.2 166.754 225.2C168.754 225.2 170.52 225.633 172.054 226.5C173.62 227.367 174.837 228.583 175.704 230.15C176.57 231.683 177.004 233.467 177.004 235.5V253H170.454V237.05C170.454 235.85 170.22 234.817 169.754 233.95C169.287 233.083 168.637 232.417 167.804 231.95C167.004 231.45 166.054 231.2 164.954 231.2C163.887 231.2 162.937 231.45 162.104 231.95C161.27 232.417 160.62 233.083 160.154 233.95C159.687 234.817 159.454 235.85 159.454 237.05V253H152.904ZM195.842 253.6C193.176 253.6 190.742 252.983 188.542 251.75C186.376 250.517 184.642 248.833 183.342 246.7C182.076 244.567 181.442 242.133 181.442 239.4C181.442 236.667 182.076 234.233 183.342 232.1C184.642 229.967 186.376 228.283 188.542 227.05C190.709 225.817 193.142 225.2 195.842 225.2C198.509 225.2 200.926 225.817 203.092 227.05C205.259 228.283 206.976 229.967 208.242 232.1C209.542 234.2 210.192 236.633 210.192 239.4C210.192 242.133 209.542 244.567 208.242 246.7C206.942 248.833 205.209 250.517 203.042 251.75C200.876 252.983 198.476 253.6 195.842 253.6ZM195.842 247.6C197.309 247.6 198.592 247.25 199.692 246.55C200.826 245.85 201.709 244.883 202.342 243.65C203.009 242.383 203.342 240.967 203.342 239.4C203.342 237.8 203.009 236.4 202.342 235.2C201.709 233.967 200.826 233 199.692 232.3C198.592 231.567 197.309 231.2 195.842 231.2C194.342 231.2 193.026 231.567 191.892 232.3C190.759 233 189.859 233.967 189.192 235.2C188.559 236.4 188.242 237.8 188.242 239.4C188.242 240.967 188.559 242.383 189.192 243.65C189.859 244.883 190.759 245.85 191.892 246.55C193.026 247.25 194.342 247.6 195.842 247.6ZM228.359 264C226.326 264 224.443 263.667 222.709 263C220.976 262.333 219.476 261.4 218.209 260.2C216.976 259.033 216.076 257.65 215.509 256.05L221.609 253.75C222.009 255.017 222.793 256.033 223.959 256.8C225.159 257.6 226.626 258 228.359 258C229.693 258 230.859 257.75 231.859 257.25C232.893 256.75 233.693 256.017 234.259 255.05C234.826 254.117 235.109 252.983 235.109 251.65V245.45L236.359 246.95C235.426 248.583 234.176 249.817 232.609 250.65C231.043 251.483 229.259 251.9 227.259 251.9C224.726 251.9 222.459 251.317 220.459 250.15C218.459 248.983 216.893 247.383 215.759 245.35C214.626 243.317 214.059 241.033 214.059 238.5C214.059 235.933 214.626 233.65 215.759 231.65C216.893 229.65 218.443 228.083 220.409 226.95C222.376 225.783 224.609 225.2 227.109 225.2C229.143 225.2 230.926 225.633 232.459 226.5C234.026 227.333 235.326 228.55 236.359 230.15L235.459 231.8V225.8H241.659V251.65C241.659 254.017 241.076 256.133 239.909 258C238.776 259.867 237.209 261.333 235.209 262.4C233.243 263.467 230.959 264 228.359 264ZM228.059 245.85C229.459 245.85 230.676 245.55 231.709 244.95C232.776 244.317 233.609 243.45 234.209 242.35C234.809 241.25 235.109 239.983 235.109 238.55C235.109 237.15 234.793 235.9 234.159 234.8C233.559 233.667 232.726 232.783 231.659 232.15C230.626 231.517 229.426 231.2 228.059 231.2C226.693 231.2 225.459 231.517 224.359 232.15C223.259 232.783 222.393 233.667 221.759 234.8C221.159 235.9 220.859 237.15 220.859 238.55C220.859 239.95 221.159 241.2 221.759 242.3C222.393 243.4 223.243 244.267 224.309 244.9C225.409 245.533 226.659 245.85 228.059 245.85ZM247.777 253V225.8H253.927V231.85L253.427 230.95C254.06 228.917 255.043 227.5 256.377 226.7C257.743 225.9 259.377 225.5 261.277 225.5H262.877V231.3H260.527C258.66 231.3 257.16 231.883 256.027 233.05C254.893 234.183 254.327 235.783 254.327 237.85V253H247.777ZM274.728 253.6C272.828 253.6 271.178 253.283 269.778 252.65C268.378 252.017 267.294 251.117 266.528 249.95C265.761 248.75 265.378 247.367 265.378 245.8C265.378 244.3 265.711 242.967 266.378 241.8C267.044 240.6 268.078 239.6 269.478 238.8C270.878 238 272.644 237.433 274.778 237.1L283.678 235.65V240.65L276.028 241.95C274.728 242.183 273.761 242.6 273.128 243.2C272.494 243.8 272.178 244.583 272.178 245.55C272.178 246.483 272.528 247.233 273.228 247.8C273.961 248.333 274.861 248.6 275.928 248.6C277.294 248.6 278.494 248.317 279.528 247.75C280.594 247.15 281.411 246.333 281.978 245.3C282.578 244.267 282.878 243.133 282.878 241.9V234.9C282.878 233.733 282.411 232.767 281.478 232C280.578 231.2 279.378 230.8 277.878 230.8C276.478 230.8 275.228 231.183 274.128 231.95C273.061 232.683 272.278 233.667 271.778 234.9L266.428 232.3C266.961 230.867 267.794 229.633 268.928 228.6C270.094 227.533 271.461 226.7 273.028 226.1C274.594 225.5 276.294 225.2 278.128 225.2C280.361 225.2 282.328 225.617 284.028 226.45C285.728 227.25 287.044 228.383 287.978 229.85C288.944 231.283 289.428 232.967 289.428 234.9V253H283.228V248.35L284.628 248.25C283.928 249.417 283.094 250.4 282.128 251.2C281.161 251.967 280.061 252.567 278.828 253C277.594 253.4 276.228 253.6 274.728 253.6ZM295.482 253V225.8H301.632V232.1L300.932 231.05C301.432 229.083 302.432 227.617 303.932 226.65C305.432 225.683 307.198 225.2 309.232 225.2C311.465 225.2 313.432 225.783 315.132 226.95C316.832 228.117 317.932 229.65 318.432 231.55L316.582 231.7C317.415 229.533 318.665 227.917 320.332 226.85C321.998 225.75 323.915 225.2 326.082 225.2C328.015 225.2 329.732 225.633 331.232 226.5C332.765 227.367 333.965 228.583 334.832 230.15C335.698 231.683 336.132 233.467 336.132 235.5V253H329.582V237.05C329.582 235.85 329.365 234.817 328.932 233.95C328.498 233.083 327.898 232.417 327.132 231.95C326.365 231.45 325.432 231.2 324.332 231.2C323.298 231.2 322.382 231.45 321.582 231.95C320.782 232.417 320.165 233.083 319.732 233.95C319.298 234.817 319.082 235.85 319.082 237.05V253H312.532V237.05C312.532 235.85 312.315 234.817 311.882 233.95C311.448 233.083 310.832 232.417 310.032 231.95C309.265 231.45 308.348 231.2 307.282 231.2C306.248 231.2 305.332 231.45 304.532 231.95C303.732 232.417 303.115 233.083 302.682 233.95C302.248 234.817 302.032 235.85 302.032 237.05V253H295.482Z" fill="#135B40"/>
<path fill-rule="evenodd" clip-rule="evenodd" d="M135.472 80.5957L164.73 35.5737C165.445 28.9856 166.13 12.3275 166.078 0.754473C144.292 1.61189 125.562 9.84205 109.888 25.445C93.296 41.9552 85 62.0033 85 85.5892C85 95.4954 86.651 104.967 89.9531 114.006C93.2551 123.05 97.8151 131.189 103.633 138.422L85 157.055L98.444 170.499L117.077 151.866C124.31 157.684 132.408 162.244 141.371 165.546C150.333 168.848 159.846 170.499 169.91 170.499C170.11 170.499 170.311 170.498 170.511 170.497L170.327 138.239C170.302 138.101 170.289 137.956 170.289 137.805V131.384L170.275 128.991V125.234H170.289V99.0732C170.289 98.1658 169.738 97.3491 168.898 97.0082L136.503 83.8748C135.205 83.3486 134.709 81.7699 135.472 80.5957ZM176.134 136.592C175.514 145.875 175.041 161.088 175.271 170.353C196.548 169.179 214.809 160.935 230.054 145.62C246.564 129.028 254.819 109.018 254.819 85.5892V0.679688H170.805L170.993 33.6933L174.812 69.8538C174.897 70.6584 175.411 71.3537 176.156 71.6703L209.34 85.7823C210.654 86.3411 211.111 87.9747 210.277 89.134L176.134 136.592Z" fill="#135B40"/>
</svg>
