<svg width="23" height="16" viewBox="0 0 23 16" fill="none" xmlns="http://www.w3.org/2000/svg">
<path d="M22.5148 2.49796C22.3839 2.01473 22.1276 1.57413 21.7715 1.22027C21.4155 0.866415 20.9722 0.611704 20.4859 0.481633C18.6953 1.45971e-07 11.5 0 11.5 0C11.5 0 4.30467 1.45971e-07 2.51405 0.481633C2.02783 0.611704 1.5845 0.866415 1.22845 1.22027C0.872401 1.57413 0.616111 2.01473 0.485235 2.49796C0.150887 4.31287 -0.0113634 6.15496 0.000618039 8C-0.0113634 9.84504 0.150887 11.6871 0.485235 13.502C0.616111 13.9853 0.872401 14.4259 1.22845 14.7797C1.5845 15.1336 2.02783 15.3883 2.51405 15.5184C4.30467 16 11.5 16 11.5 16C11.5 16 18.6953 16 20.4859 15.5184C20.9722 15.3883 21.4155 15.1336 21.7715 14.7797C22.1276 14.4259 22.3839 13.9853 22.5148 13.502C22.8491 11.6871 23.0114 9.84504 22.9994 8C23.0114 6.15496 22.8491 4.31287 22.5148 2.49796ZM9.20012 11.4286V4.57143L15.1716 8L9.20012 11.4286Z" fill="#F2F4E8"/>
</svg>
